<svg xmlns="http://www.w3.org/2000/svg" width="1099.019" height="163.25" viewBox="0 0 1099.019 163.25">
  <g>
    <path d="M7.153,140.859,7.5,120.108c.088-5.532,0-15.91-.346-20.058l2.249-.6L49.347,145.7V121.748c0-5.533-.171-16.686-.693-20.834a83.141,83.141,0,0,0,9.6-.434c-.347,2.508-.606,9.426-.693,12.8l-.6,36.49c-.088,3.372-.088,10.369.171,12.793l-2.245.6L15.277,117.6v31.645c0,3.372.088,10.027.346,12.452H6.114c.522-4.152.951-15.218,1.039-20.839" fill="#fff"/>
    <path d="M96.2,137.575c-.863-6.66-3.63-10.2-9.592-10.2-6.4,0-10.466,4.665-11.588,10.807Zm2.249,5.879-23.605.689c.605,8.04,4.757,12.1,12.452,12.1,6.05,0,10.548-2.679,14.442-5.875l-.351,8.124a26,26,0,0,1-14.867,4.752c-13.315,0-19.628-9.421-19.628-20.229,0-12.451,7.869-22.3,20.145-22.3,11.759,0,16.6,8.817,16.6,19.624Z" fill="#fff"/>
    <path d="M115.745,148.033l-4.152-11.066c-1.9-5.1-4.06-10.9-5.792-14.613l8.734-1.122,8.9,27.406,3.893-11.237c2.074-5.879,3.889-11.329,5.187-15.652l5.8-.517,9.768,27.235,3.547-11.149c1.035-3.205,3.455-11.246,4.582-15.569a84.327,84.327,0,0,0,8.47-.346L150.5,162.04l-5.1.605c-1.3-4.576-3.2-10.373-5.45-16.51l-4.582-12.281-9.685,28.186-5.186.605c-1.039-4.064-2.938-9.509-4.757-14.612" fill="#fff"/>
    <path d="M232.2,101.952l-37.174,52.655c3.279,0,8.211.083,11.583.083,8.817,0,17.9-.083,23.688-.258a51.154,51.154,0,0,0-.688,7.611c-4.928-.346-14.613-.434-22.312-.434-9.421,0-18.067.088-24.034.434l-1.727-1.644,37.178-52.567c-3.718-.088-6.831-.088-11.066-.088-8.475,0-15.739.088-22.224.171a66.737,66.737,0,0,0,.347-7.523c7.694.263,11.671.438,21.96.438s17.38-.175,22.825-.438Z" fill="#fff"/>
    <path d="M263.409,137.575c-.864-6.66-3.63-10.2-9.593-10.2-6.4,0-10.465,4.665-11.587,10.807Zm2.249,5.879-23.605.689c.61,8.04,4.757,12.1,12.452,12.1,6.05,0,10.548-2.679,14.442-5.875L268.6,158.5a25.991,25.991,0,0,1-14.867,4.752c-13.315,0-19.629-9.421-19.629-20.229,0-12.451,7.87-22.3,20.146-22.3,11.758,0,16.6,8.817,16.6,19.624Z" fill="#fff"/>
    <path d="M299.12,146.91l.171-3.893c-1.206-.083-2.333-.166-3.543-.166-9.684,0-13.056,3.542-13.056,7.865,0,3.284,1.815,5.792,6.572,5.792a9.687,9.687,0,0,0,9.856-9.6M275,151.15c0-8.045,7.177-13.4,21.009-13.4,1.122,0,2.249.083,3.372.171l.087-1.3c.171-5.962-2.337-8.9-8.387-8.9a19.492,19.492,0,0,0-10.978,3.806l-1.815-6.914a27.621,27.621,0,0,1,14.086-3.893c10.295,0,15.135,6.225,14.876,15.388l-.521,17.121c-.084,2.42.609,3.459,2.507,3.459a11.091,11.091,0,0,0,3.46-.693l-.777,5.533a13.114,13.114,0,0,1-5.19,1.21c-3.284,0-6.309-2.249-6.739-6.743a14.179,14.179,0,0,1-12.451,6.914c-7.612,0-12.539-4.669-12.539-11.754" fill="#fff"/>
    <path d="M317.7,161.7a135.793,135.793,0,0,0,.605-14.183V114.575a138.558,138.558,0,0,0-.605-14.266,83.526,83.526,0,0,0,8.909-1.123c-.264,2.245-.351,6.48-.351,9.422v44.7a79.041,79.041,0,0,0,.351,8.387Z" fill="#fff"/>
    <path d="M357.819,146.91l.171-3.893c-1.21-.083-2.333-.166-3.542-.166-9.685,0-13.057,3.542-13.057,7.865,0,3.284,1.815,5.792,6.572,5.792a9.687,9.687,0,0,0,9.856-9.6M333.7,151.15c0-8.045,7.177-13.4,21.009-13.4,1.123,0,2.249.083,3.372.171l.087-1.3c.171-5.962-2.336-8.9-8.387-8.9a19.492,19.492,0,0,0-10.978,3.806l-1.815-6.914a27.621,27.621,0,0,1,14.086-3.893c10.295,0,15.135,6.225,14.877,15.388l-.522,17.121c-.083,2.42.609,3.459,2.507,3.459a11.091,11.091,0,0,0,3.46-.693l-.776,5.533a13.119,13.119,0,0,1-5.191,1.21c-3.284,0-6.309-2.249-6.739-6.743a14.179,14.179,0,0,1-12.451,6.914c-7.611,0-12.539-4.669-12.539-11.754" fill="#fff"/>
    <path d="M403.119,161.7c.434-3.722.6-9.685.6-14.7V136.619c0-5.011-1.64-8.9-6.914-8.9-5.709,0-11.847,5.616-11.847,10.8v14.266c0,3.03.088,6.66.347,8.909h-8.822c.347-3.722.522-9.685.522-14.7V136.619c0-5.011-.175-10.978-.522-14.7a72.883,72.883,0,0,0,7.782-.429l.61,7.689c3.279-5.357,9.163-8.465,14-8.465,8.646,0,12.793,5.357,12.793,14.349v17.721c0,3.03.176,6.66.351,8.909Z" fill="#fff"/>
    <path d="M427.245,142.5c0,9.255,5.532,13.832,11.846,13.832a11.37,11.37,0,0,0,10.114-6.046V131.262a12.341,12.341,0,0,0-9.08-3.631c-8.128,0-12.88,6.744-12.88,14.868m21.96-18.932-.088-8.992a141.946,141.946,0,0,0-.517-14.266,83.412,83.412,0,0,0,8.9-1.123c-.259,2.245-.347,6.48-.347,9.422v38.735c0,5.016.171,10.373.6,14.354h-7.348l-.605-4.323a16.08,16.08,0,0,1-12.193,5.875c-11.236,0-18.33-8.729-18.33-19.795,0-12.71,8.821-22.736,20.667-22.736a15.9,15.9,0,0,1,9.251,2.849" fill="#fff"/>
    <path d="M514.217,163.25a30.818,30.818,0,0,1-31.3-31.124c0-18.159,14.1-32.68,32.944-32.68,6.484,0,14.437,2.332,19.194,5.445l-2.424,7.782c-4.319-3.459-11.759-5.533-17.634-5.533-14.012,0-23.346,10.291-23.346,24.294,0,15.393,10.72,24.21,23.517,24.21a25.251,25.251,0,0,0,12.281-2.767V142.07c0-1.3,0-3.63-.176-5.187-2.591-.087-1.9-.087-4.586-.087-4.318,0-6.826.087-11.759.263a57.087,57.087,0,0,0,0-7.787c5.275.171,7.87.259,11.759.259,6.055,0,8.563-.088,13.666-.347-.434,3.377-.6,15.394-.6,20.927v6.743a36.135,36.135,0,0,1-21.531,6.4" fill="#fff"/>
    <path d="M563.5,127.716c-7.348,0-12.1,6.226-12.1,14.008,0,9.6,4.673,14.524,11.763,14.524,7.606,0,12.1-6.313,12.1-14.178,0-9.255-5.187-14.354-11.759-14.354m-.775,35.534c-11.759,0-19.195-9.422-19.195-20.229,0-12.451,8.041-22.307,20.317-22.307,11.846,0,19.282,9.427,19.282,20.234,0,12.451-8.041,22.3-20.4,22.3" fill="#fff"/>
    <path d="M596.1,148.033l-4.841-11.066c-2.249-5.1-4.669-10.9-6.66-14.613l8.646-1.122,11.671,29.138,5.016-13.4c1.215-3.284,4.235-11.066,5.533-15.218,3.112,0,6.313-.083,8.816-.346L607.42,162.04l-5.445.605c-1.3-4.064-3.718-9.509-5.879-14.612" fill="#fff"/>
    <path d="M655.058,137.575c-.863-6.66-3.629-10.2-9.592-10.2-6.4,0-10.465,4.665-11.588,10.807Zm2.25,5.879-23.605.689c.605,8.04,4.757,12.1,12.451,12.1,6.05,0,10.549-2.679,14.442-5.875l-.351,8.124a26,26,0,0,1-14.867,4.752c-13.315,0-19.628-9.421-19.628-20.229,0-12.451,7.87-22.3,20.146-22.3,11.758,0,16.6,8.817,16.6,19.624Z" fill="#fff"/>
    <path d="M690.765,129.88c-5.7-1.039-12.88,1.986-12.88,8.041v14.871c0,3.025.087,6.66.346,8.905H669.41c.434-3.723.521-9.681.521-14.7V134.9a73.191,73.191,0,0,0-.868-12.452,38.784,38.784,0,0,0,7.87-1.122l.864,7.865c3.283-5.362,7.523-7.694,14.007-8.47Z" fill="#fff"/>
    <path d="M723.534,161.7c.434-3.722.61-9.685.61-14.7V136.619c0-5.011-1.644-8.9-6.919-8.9-5.708,0-11.846,5.616-11.846,10.8v14.266c0,3.03.088,6.66.347,8.909H696.9c.347-3.722.522-9.685.522-14.7V136.619c0-5.011-.175-10.978-.522-14.7a72.883,72.883,0,0,0,7.782-.429l.61,7.689c3.279-5.357,9.163-8.465,14-8.465,8.646,0,12.793,5.357,12.793,14.349v17.721c0,3.03.176,6.66.351,8.909Z" fill="#fff"/>
    <path d="M792.268,161.7c.434-3.722.605-9.685.605-14.7V136.619c0-5.011-1.381-8.9-6.656-8.9-5.708,0-10.636,4.406-10.636,9.68v15.389c0,3.03.088,6.66.347,8.909h-8.817c.342-3.722.517-9.685.517-14.7V136.619c0-5.011-1.127-8.9-6.4-8.9-5.626,0-10.636,4.406-10.636,9.68v15.389c0,3.03.087,6.66.346,8.909h-8.909c.434-3.722.609-9.685.609-14.7V136.619c0-5.011-.175-10.978-.609-14.7a71.536,71.536,0,0,0,7.782-.429l.609,6.567c3.543-4.752,8.3-7.343,12.881-7.343,6.4,0,10.115,3.279,11.5,7.69a15.69,15.69,0,0,1,13.4-7.69c8.645,0,12.622,5.357,12.622,14.349v17.721c0,3.03.087,6.66.351,8.909Z" fill="#fff"/>
    <path d="M837.826,137.575c-.864-6.66-3.63-10.2-9.593-10.2-6.4,0-10.465,4.665-11.587,10.807Zm2.249,5.879-23.605.689c.61,8.04,4.757,12.1,12.451,12.1,6.051,0,10.549-2.679,14.442-5.875l-.35,8.124a25.993,25.993,0,0,1-14.867,4.752c-13.315,0-19.629-9.421-19.629-20.229,0-12.451,7.87-22.3,20.146-22.3,11.758,0,16.6,8.817,16.6,19.624Z" fill="#fff"/>
    <path d="M878.806,161.7c.434-3.722.61-9.685.61-14.7V136.619c0-5.011-1.645-8.9-6.919-8.9-5.708,0-11.846,5.616-11.846,10.8v14.266c0,3.03.087,6.66.346,8.909h-8.821c.346-3.722.522-9.685.522-14.7V136.619c0-5.011-.176-10.978-.522-14.7a72.883,72.883,0,0,0,7.782-.429l.605,7.689c3.284-5.357,9.168-8.465,14.008-8.465,8.645,0,12.793,5.357,12.793,14.349v17.721c0,3.03.176,6.66.351,8.909Z" fill="#fff"/>
    <path d="M918.752,160.659c-1.815,1.469-5.274,2.249-7.87,2.249-7.519,0-10.632-4.235-10.632-11.759V128.5h-7.177l2.079-6.914h5.186l.776-8.48,7.089-1.9v10.382H918.84c-.171,1.9-.259,3.8-.259,6.914H908.2v22.136c0,4.06,1.474,5.187,4.411,5.187a13.056,13.056,0,0,0,6.484-2.079Z" fill="#fff"/>
    <path d="M53.953,15.044c-5.967-.088-11.154-.171-17.9-.171-.084,1.9-.084,4.147-.084,5.445V49.2c0,3.284.084,10.027.347,12.452H17.9c.435-4.152.605-15.218.605-20.839V27.925c0-3.2-.083-8.558-.258-13.052-6.743,0-12.364.083-18.243.171C.263,10.633.346,5.188.346.348c8.387.259,16.77.429,26.889.429,10.2,0,18.848-.17,27.411-.429-.435,4.665-.693,8.9-.693,14.7" fill="#fff"/>
    <path d="M85.851,36.14C85.505,31.475,83.6,28.7,79.713,28.7c-4.147,0-6.918,3.284-7.265,7.782Zm10.983,6.484-24.469.518c.342,5.274,3.718,8.216,10.027,8.216a33.187,33.187,0,0,0,16.257-4.406L98.39,58.1a34.254,34.254,0,0,1-17.9,4.928c-15.822,0-23.775-9.68-23.775-21.785,0-13.749,9.768-23.171,23.517-23.171,13.657,0,19.8,9.334,19.8,20.922Z" fill="#fff"/>
    <path d="M139.715,35.8V49.2c0,3.283.088,10.026.346,12.451h-18.33c.434-4.152.609-15.218.609-20.838V21.7c0-5.533-.175-16.686-.609-20.838,3.376,0,15.476-.083,18.33-.43-.258,2.508-.346,9.422-.346,12.8V26.2l7.694-10.29c2.767-3.543,7.87-10.549,11.329-15.218h19.8L154.586,29.74l14.789,18.418c2.415,3.026,8.124,9.944,10.719,13.057l-20.15,1.3Z" fill="#fff"/>
    <path d="M203.691,47.554l.175-3.977a19.239,19.239,0,0,0-2.337-.088c-5.186,0-7.26,2.333-7.26,5.358,0,2.859,1.64,4.757,4.323,4.757,2.937,0,5.015-1.9,5.1-6.05m13.49-35.969c-4.064-.088-7.089-.171-10.636-.171H195.738c-4.411,0-7.436.083-10.978.171.171-2.508.342-7,.342-10.285,5.361.171,9.343.254,16.515.254,5.016,0,10.807-.083,15.994-.254-.259,3.108-.43,6.914-.43,10.285M179.31,51.271c0-8.47,7.094-14.183,21.443-14.183.864,0,1.991.088,3.2.176l.088-1.127c.088-3.63-1.552-5.616-6.4-5.616a28.15,28.15,0,0,0-13.491,3.8l-1.815-11.237a39.224,39.224,0,0,1,18.848-5.015c13.061,0,18.594,5.445,18.418,17.466l-.346,13.833c-.088,2.42.78,3.025,2.508,3.025a9.986,9.986,0,0,0,2.073-.43l-.605,9.163a21.207,21.207,0,0,1-8.124,1.557c-5.1,0-8.9-1.727-10.289-6.831-2.42,4.24-7.607,6.831-12.8,6.831-7.782,0-12.71-4.235-12.71-11.413" fill="#fff"/>
    <path d="M233.343,47.813,229.19,36.577c-1.9-5.1-4.84-13.061-6.567-16.862,2.249,0,13.486-.522,16-.693l7,22.649,2.937-8.383,4.84-13.832,10.637-.351,7.606,22.654,2.767-8.729c.263-.781,4.152-12.539,4.41-13.574,5.967,0,10.207,0,15.047-.263l-16.6,42.54-11.671.435c-1.385-4.328-3.284-9.514-5.274-15.135l-2.249-6.4-8.129,21.1-11.671.347c-1.21-4.064-3.025-9.08-4.927-14.267" fill="#fff"/>
    <path d="M317.557,47.554l.171-3.977a19.28,19.28,0,0,0-2.337-.088c-5.186,0-7.26,2.333-7.26,5.358,0,2.859,1.64,4.757,4.323,4.757,2.937,0,5.016-1.9,5.1-6.05m-24.385,3.717c0-8.47,7.089-14.183,21.443-14.183.864,0,1.991.088,3.2.176l.088-1.127c.088-3.63-1.556-5.616-6.4-5.616a28.15,28.15,0,0,0-13.491,3.8L296.2,23.085a39.224,39.224,0,0,1,18.848-5.015c13.056,0,18.594,5.445,18.418,17.466l-.346,13.833c-.088,2.42.78,3.025,2.508,3.025a9.986,9.986,0,0,0,2.073-.43l-.6,9.163a21.221,21.221,0,0,1-8.124,1.557c-5.1,0-8.9-1.727-10.29-6.831-2.424,4.24-7.606,6.831-12.8,6.831-7.782,0-12.71-4.235-12.71-11.413" fill="#fff"/>
    <path d="M368.822,61.647c.434-3.718.517-9.685.517-14.7v-9.08c0-5.015-.951-7.352-4.493-7.352a7.253,7.253,0,0,0-7.007,7.264V52.738c0,3.03.088,6.66.347,8.909H340.894c.347-3.718.517-9.685.517-14.7V33.978c0-5.011-.17-10.2-.517-13.92,3.025,0,13.662-1.293,16.253-1.557l.609,9.339c3.459-6.138,9.768-9.768,15.647-9.768,8.388,0,12.364,5.616,12.364,14.955V52.738c0,3.03.171,6.66.346,8.909Z" fill="#fff"/>
    <path d="M414.126,47.554l.171-3.977a19.2,19.2,0,0,0-2.332-.088c-5.191,0-7.265,2.333-7.265,5.358,0,2.859,1.639,4.757,4.323,4.757,2.942,0,5.015-1.9,5.1-6.05m-24.385,3.717c0-8.47,7.089-14.183,21.443-14.183.864,0,1.991.088,3.2.176l.088-1.127c.088-3.63-1.552-5.616-6.4-5.616a28.146,28.146,0,0,0-13.49,3.8l-1.815-11.237a39.224,39.224,0,0,1,18.848-5.015c13.061,0,18.593,5.445,18.418,17.466l-.346,13.833c-.088,2.42.78,3.025,2.507,3.025a9.929,9.929,0,0,0,2.074-.43l-.605,9.163a21.225,21.225,0,0,1-8.124,1.557c-5.1,0-8.9-1.727-10.29-6.831-2.42,4.24-7.606,6.831-12.8,6.831-7.783,0-12.71-4.235-12.71-11.413" fill="#fff"/>
    <path d="M467.379,60.7a24.712,24.712,0,0,1-10.9,2.421c-9.51,0-15.647-3.372-15.647-15.823V30H433.83l1.991-10.807h5.186l.869-8.558,15.389-5.362v13.92H467.9c-.171,1.9-.259,7.694-.259,10.807H457.265V45.39c0,4.5,1.727,5.62,4.41,5.62a12.1,12.1,0,0,0,6.05-1.815Z" fill="#fff"/>
    <path d="M493.491,47.554l.171-3.977a19.187,19.187,0,0,0-2.332-.088c-5.191,0-7.265,2.333-7.265,5.358,0,2.859,1.64,4.757,4.323,4.757,2.942,0,5.016-1.9,5.1-6.05m-24.385,3.717c0-8.47,7.089-14.183,21.443-14.183.864,0,1.991.088,3.2.176l.088-1.127c.088-3.63-1.552-5.616-6.4-5.616a28.15,28.15,0,0,0-13.491,3.8l-1.815-11.237a39.224,39.224,0,0,1,18.848-5.015c13.061,0,18.594,5.445,18.418,17.466l-.346,13.833c-.088,2.42.781,3.025,2.508,3.025a9.934,9.934,0,0,0,2.073-.43l-.6,9.163a21.22,21.22,0,0,1-8.123,1.557c-5.1,0-8.9-1.727-10.29-6.831-2.42,4.24-7.607,6.831-12.8,6.831-7.782,0-12.71-4.235-12.71-11.413" fill="#fff"/>
    <path d="M544.756,61.647c.434-3.718.518-9.685.518-14.7v-9.08c0-5.015-.952-7.352-4.494-7.352a7.253,7.253,0,0,0-7.007,7.264V52.738c0,3.03.088,6.66.347,8.909H516.828c.347-3.718.518-9.685.518-14.7V33.978c0-5.011-.171-10.2-.518-13.92,3.025,0,13.662-1.293,16.253-1.557l.609,9.339c3.46-6.138,9.768-9.768,15.648-9.768,8.387,0,12.363,5.616,12.363,14.955V52.738c0,3.03.171,6.66.347,8.909Z" fill="#fff"/>
    <path d="M587.377,28.011c-3.289,0-5.45,2.25-5.45,6.4,0,4.84,2.249,7,5.362,7,3.284,0,5.357-2.332,5.357-6.572,0-4.928-2.415-6.831-5.269-6.831m-7.006,37.355c-3.2,1.122-4.494,2.849-4.494,4.235,0,2.249,2.678,4.064,8.9,4.064,6.655,0,10.983-2.6,10.983-5.191,0-1.9-1.991-2.679-7.87-2.938h-1.815c-1.732-.087-3.806-.17-5.708-.17m6.572-15.306a31.79,31.79,0,0,1-7.348-.78c-1.386.78-1.991,1.732-1.991,2.424,0,1.381,1.82,2.245,10.461,2.245h1.99c12.364,0,20.063,2.942,20.063,10.982,0,9.08-10.382,17.38-26.722,17.38-13.052,0-19.712-4.67-19.712-10.549,0-4.24,3.547-7.348,8.475-8.992-3.2-1.381-5.362-3.976-5.362-7.177s2.508-6.568,6.743-8.9a13.205,13.205,0,0,1-6.309-11.5c0-9.768,8.475-17.121,20.575-17.121A26.13,26.13,0,0,1,595.5,19.2c.521-7.348,4.757-11.241,14.1-10.2l-.429,11.324c-4.5-1.122-6.919-.429-7.787,1.986a14.752,14.752,0,0,1,5.967,11.675c0,9.686-8.646,16.082-20.4,16.082" fill="#fff"/>
    <path d="M634.581,47.554l.175-3.977a19.272,19.272,0,0,0-2.337-.088c-5.186,0-7.26,2.333-7.26,5.358,0,2.859,1.64,4.757,4.323,4.757,2.937,0,5.016-1.9,5.1-6.05M610.2,51.271c0-8.47,7.094-14.183,21.443-14.183.864,0,1.991.088,3.2.176l.088-1.127c.088-3.63-1.556-5.616-6.4-5.616a28.15,28.15,0,0,0-13.491,3.8l-1.815-11.237a39.224,39.224,0,0,1,18.848-5.015c13.056,0,18.594,5.445,18.419,17.466l-.347,13.833c-.088,2.42.781,3.025,2.508,3.025a10.008,10.008,0,0,0,2.074-.43l-.606,9.163A21.2,21.2,0,0,1,646,62.684c-5.1,0-8.905-1.727-10.29-6.831-2.425,4.24-7.607,6.831-12.8,6.831-7.782,0-12.71-4.235-12.71-11.413" fill="#fff"/>
    <path d="M694.668,29.483c-4.239,0-6.918,3.46-6.918,10.72,0,8.475,2.766,11.5,6.572,11.5,4.318,0,7-3.283,7-10.723,0-8.729-2.938-11.5-6.656-11.5m-.78,33.719c-13.4,0-22.049-9.426-22.049-21.531,0-13.744,9.251-23.6,23.171-23.6,13.49,0,22.224,9.422,22.224,21.527,0,13.749-9.339,23.6-23.346,23.6" fill="#fff"/>
    <path d="M758.9,40.033h13.92l-7.006-18.765Zm-6.743-22.654C755.186,10.2,757.177,5.7,758.816.863L772.736,0l18.936,43.921c2.249,5.358,5.533,12.364,7.957,17.726l-18.418.693-4.669-11.588h-21.18c-1.127,2.854-3.635,9.685-4.152,10.895H733.225Z" fill="#fff"/>
    <path d="M822.883,29.483c-4.239,0-6.918,3.46-6.918,10.72,0,8.475,2.767,11.5,6.572,11.5,4.319,0,7-3.283,7-10.723,0-8.729-2.942-11.5-6.656-11.5M822.1,63.2c-13.4,0-22.044-9.426-22.044-21.531,0-13.744,9.251-23.6,23.166-23.6,13.491,0,22.224,9.422,22.224,21.527,0,13.749-9.338,23.6-23.346,23.6" fill="#fff"/>
    <path d="M879.51,60.7a24.716,24.716,0,0,1-10.895,2.421c-9.51,0-15.648-3.372-15.648-15.823V30h-7l1.986-10.807h5.186l.868-8.558L869.4,5.274v13.92h10.636c-.175,1.9-.263,7.694-.263,10.807H869.4V45.39c0,4.5,1.727,5.62,4.411,5.62a12.085,12.085,0,0,0,6.05-1.815Z" fill="#fff"/>
    <path d="M910.976,36.14c-.346-4.665-2.249-7.436-6.138-7.436-4.147,0-6.918,3.284-7.264,7.782Zm10.983,6.484-24.469.518c.342,5.274,3.718,8.216,10.027,8.216a33.184,33.184,0,0,0,16.257-4.406L923.515,58.1a34.251,34.251,0,0,1-17.9,4.928c-15.823,0-23.776-9.68-23.776-21.785,0-13.749,9.768-23.171,23.517-23.171,13.657,0,19.8,9.334,19.8,20.922Z" fill="#fff"/>
    <path d="M951.094,47.554l.175-3.977a19.247,19.247,0,0,0-2.337-.088c-5.186,0-7.26,2.333-7.26,5.358,0,2.859,1.64,4.757,4.323,4.757,2.937,0,5.016-1.9,5.1-6.05m-24.381,3.717c0-8.47,7.094-14.183,21.443-14.183.864,0,1.991.088,3.2.176l.088-1.127c.088-3.63-1.552-5.616-6.4-5.616a28.15,28.15,0,0,0-13.491,3.8l-1.815-11.237a39.224,39.224,0,0,1,18.848-5.015c13.061,0,18.594,5.445,18.418,17.466l-.346,13.833c-.088,2.42.78,3.025,2.507,3.025a9.929,9.929,0,0,0,2.074-.43l-.605,9.163a21.207,21.207,0,0,1-8.124,1.557c-5.1,0-8.9-1.727-10.29-6.831-2.42,4.24-7.606,6.831-12.8,6.831-7.782,0-12.71-4.235-12.71-11.413" fill="#fff"/>
    <path d="M1005.474,33.116c-7.26-.78-14.1.947-14.1,8.992V52.74c0,3.025.087,6.66.35,8.909H974.438c.43-3.718.517-9.685.517-14.7V33.55c0-5.02-.258-9.685-.605-13.4,2.938,0,13.662-1.385,16.252-1.732L991.3,29.14c2.42-6.226,7.524-10.466,15.218-11.071Z" fill="#fff"/>
    <path d="M1030.2,29.483c-4.239,0-6.918,3.46-6.918,10.72,0,8.475,2.766,11.5,6.572,11.5,4.318,0,7-3.283,7-10.723,0-8.729-2.942-11.5-6.656-11.5m-.78,33.719c-13.4,0-22.049-9.426-22.049-21.531,0-13.744,9.256-23.6,23.171-23.6,13.491,0,22.224,9.422,22.224,21.527,0,13.749-9.338,23.6-23.346,23.6" fill="#fff"/>
    <path d="M1078.878,47.554l.171-3.977a19.28,19.28,0,0,0-2.337-.088c-5.186,0-7.26,2.333-7.26,5.358,0,2.859,1.64,4.757,4.323,4.757,2.937,0,5.016-1.9,5.1-6.05m-24.385,3.717c0-8.47,7.089-14.183,21.443-14.183.864,0,1.991.088,3.2.176l.088-1.127c.088-3.63-1.556-5.616-6.4-5.616a28.15,28.15,0,0,0-13.491,3.8l-1.815-11.237a39.224,39.224,0,0,1,18.848-5.015c13.056,0,18.594,5.445,18.418,17.466l-.346,13.833c-.088,2.42.78,3.025,2.508,3.025a9.986,9.986,0,0,0,2.073-.43l-.605,9.163a21.221,21.221,0,0,1-8.124,1.557c-5.1,0-8.9-1.727-10.29-6.831-2.424,4.24-7.606,6.831-12.8,6.831-7.782,0-12.71-4.235-12.71-11.413" fill="#fff"/>
  </g>
</svg>
