<svg id="Layer_1" data-name="Layer 1" xmlns="http://www.w3.org/2000/svg" viewBox="0 0 264.5 48.9"><defs><style>.cls-1{fill:#fff;}</style></defs><title>mbie_logo4</title><g id="Page-1"><g id="Imported-Layers"><path id="Fill-1" class="cls-1" d="M262.3,24H265V22.2h-7.6V24H260v8h2.4V24h0Zm-12.2-1.7h-2.6V32h2.2V28.9c0-1-.1-2.7-0.1-3.7h0a18.7,18.7,0,0,0,1.3,2.4l2.8,4.4h2.6V22.2H254v3.1c0,1,.1,2.7.1,3.8h-0.1a18.1,18.1,0,0,0-1.3-2.4l-2.7-4.4h0Zm-4.2,8h-4.4V27.9h3.7V26.1h-3.7V24h4.3V22.2h-6.7V32H246V30.2h0ZM234.7,32H237V22.2h-3.1l-2.2,5h0c-0.1-.3-2-4.5-2.2-5h-3.1V32h2.2V28.1c0-1.4-.1-2.2-0.2-3.7h0a21.7,21.7,0,0,0,1,2.8l1.4,3h1.7l1.4-3a21.5,21.5,0,0,0,1-2.8h0c-0.1,1.5-.2,2.3-0.2,3.7V32h0Zm-16.2-9.7h-2.6l3.5,6.3V32h2.4V28.6l3.6-6.3h-2.4l-1.2,2.3-1.1,2.1h0l-1-2.1-1.1-2.3h0ZM209,27.1c0-2.7.6-3.4,2.1-3.4s2.1,0.7,2.1,3.4-0.6,3.4-2.1,3.4-2.1-.7-2.1-3.4h0Zm6.8,0c0-3.3-1.1-5.1-4.6-5.1s-4.6,1.8-4.6,5.1,1.1,5.1,4.6,5.1,4.6-1.8,4.6-5.1h0Zm-9.9,3.1h-4.4v-8H199V32h6.8V30.2h0ZM192,28.9h1.6c1.6,0,2.5-.1,3.2-0.8a3.7,3.7,0,0,0,.8-2.5,3.6,3.6,0,0,0-.8-2.5c-0.7-.7-1.6-0.8-3.2-0.8h-4V32H192v-3h0Zm0-1.7V24h1.4a1.9,1.9,0,0,1,1.4.3,1.8,1.8,0,0,1,.4,1.3,1.9,1.9,0,0,1-.4,1.3,1.9,1.9,0,0,1-1.4.3H192ZM185.1,32h2.3V22.2h-3.1c-0.2.5-2.1,4.7-2.2,5h0c-0.1-.3-2-4.5-2.2-5h-3.1V32h2.2V28.1c0-1.4-.1-2.2-0.2-3.7h0a20.8,20.8,0,0,0,1,2.8l1.4,3h1.7l1.4-3a21,21,0,0,0,1-2.8h0c-0.1,1.5-.2,2.3-0.2,3.7V32h0Zm-10-1.7h-4.4V27.9h3.7V26.1h-3.7V24h4.3V22.2h-6.7V32h6.8V30.2h0Zm-15.2,1.2h0a2.4,2.4,0,0,0,2.1.7l1.5-.2V30.3h-0.8c-0.8,0-1.1-.2-1.1-0.9V27.8h1.7V26.1h-1.7V25h-1.4l-0.5,1.2h-1.4a1.8,1.8,0,0,1-1.3-.4,1.3,1.3,0,0,1-.4-0.9c0-.6.2-1.2,1.7-1.2l1.7,0.2V22.3a8.9,8.9,0,0,0-2.2-.3c-2,0-3.6.8-3.6,2.6a2.6,2.6,0,0,0,1.4,2.3h0a2.6,2.6,0,0,0-1.6,2.4c0,2.2,2,2.8,3.4,2.8a4.1,4.1,0,0,0,2.6-.8h0Zm-0.5-1.7a1.8,1.8,0,0,1-1.6.7,1.3,1.3,0,0,1-1.5-1.3,1.3,1.3,0,0,1,.4-0.9,1.9,1.9,0,0,1,1.5-.4h1.2v1.9h0Zm-16.9-7.5H140V32h2.2V28.9c0-1-.1-2.7-0.1-3.7h0a18.8,18.8,0,0,0,1.3,2.4l2.8,4.4h2.6V22.2h-2.2v3.1c0,1,.1,2.7.1,3.8h-0.1a18.3,18.3,0,0,0-1.3-2.4l-2.7-4.4h0Zm-11.1,4.9c0-2.7.6-3.4,2.1-3.4s2.1,0.7,2.1,3.4-0.6,3.4-2.1,3.4-2.1-.7-2.1-3.4h0Zm6.8,0c0-3.3-1.1-5.1-4.6-5.1s-4.6,1.8-4.6,5.1,1.1,5.1,4.6,5.1,4.6-1.8,4.6-5.1h0ZM124.9,32h2.4V22.2h-2.4V32Zm-3.7-8h2.6V22.2h-7.6V24h2.6v8h2.4V24h0Zm-9.3.4h0c0.1,0.5.3,1.3,0.6,2.1l0.6,1.8h-2.4l0.6-1.8c0.2-.7.5-1.5,0.6-2.1h0Zm1.7,5.5,0.7,2.1h2.5l-3.5-9.7h-2.7L107.1,32h2.4l0.7-2.1h3.5Zm-8.5-7.6-1.3,4.2c-0.3,1.1-.6,2.2-1,3.4h0c-0.3-1.2-.6-2.4-0.9-3.4l-1.4-4.2H97.9l3.3,9.7h3l3.3-9.7h-2.5ZM90.6,27.1c0-2.7.6-3.4,2.1-3.4s2.1,0.7,2.1,3.4-0.6,3.4-2.1,3.4-2.1-.7-2.1-3.4h0Zm6.8,0c0-3.3-1.1-5.1-4.6-5.1s-4.6,1.8-4.6,5.1,1.1,5.1,4.6,5.1,4.6-1.8,4.6-5.1h0ZM80.3,22.2H77.7V32h2.2V28.9c0-1-.1-2.7-0.1-3.7h0A19,19,0,0,0,81,27.5L83.8,32h2.6V22.2H84.2v3.1c0,1,.1,2.7.1,3.8H84.3A18.1,18.1,0,0,0,83,26.6l-2.7-4.4h0Zm-10.9,0H66.8V32H69V28.9c0-1-.1-2.7-0.1-3.7h0a18.9,18.9,0,0,0,1.3,2.4L72.9,32h2.6V22.2H73.3v3.1c0,1,.1,2.7.1,3.8H73.4a17.9,17.9,0,0,0-1.3-2.4l-2.7-4.4h0ZM62.2,32h2.4V22.2H62.2V32Z" transform="translate(-0.5 -0.5)"/><path id="Fill-2" class="cls-1" d="M225.2,18.7h1.7l1.9-4.4h-2.6l-1,4.4h0ZM219.9,15a16.3,16.3,0,0,1-3.1-.3v1.8a12.2,12.2,0,0,0,3.2.4c2.8,0,4.4-1.2,4.4-3.2s-1.8-3-3.5-3.1-1.9-.1-1.9-1,0.6-1.1,2-1.1a14.1,14.1,0,0,1,2.6.3V7a11.7,11.7,0,0,0-2.8-.4c-2.7,0-4.2,1-4.2,3.1s1.7,2.9,3.5,3,1.9,0.2,1.9,1.1-0.5,1.2-2.1,1.2h0Zm-9,0a16.3,16.3,0,0,1-3.1-.3v1.8a12.2,12.2,0,0,0,3.2.4c2.8,0,4.4-1.2,4.4-3.2s-1.7-3-3.5-3.1-1.9-.1-1.9-1,0.6-1.1,2-1.1a14.1,14.1,0,0,1,2.6.3V7a11.7,11.7,0,0,0-2.8-.4c-2.7,0-4.2,1-4.2,3.1s1.7,2.9,3.5,3,1.9,0.2,1.9,1.1-0.5,1.2-2.1,1.2h0Zm-4.5-.1H202V12.5h3.7V10.8H202V8.6h4.3V6.9h-6.7v9.7h6.8V14.9h0Zm-15-8h-2.6v9.7h2.2V13.5c0-1-.1-2.7-0.1-3.7h0a18.9,18.9,0,0,0,1.3,2.4l2.8,4.4h2.6V6.9h-2.2V10c0,1,.1,2.7.1,3.8h-0.1a17.6,17.6,0,0,0-1.3-2.4l-2.7-4.4h0Zm-7.2,9.7h2.4V6.9h-2.4v9.7Zm-6-1.6a16.3,16.3,0,0,1-3.1-.3v1.8a12.3,12.3,0,0,0,3.2.4c2.8,0,4.4-1.2,4.4-3.2s-1.7-3-3.5-3.1-1.9-.1-1.9-1,0.6-1.1,2-1.1a14.1,14.1,0,0,1,2.6.3V7a11.7,11.7,0,0,0-2.8-.4c-2.7,0-4.2,1-4.2,3.1s1.7,2.9,3.5,3,1.9,0.2,1.9,1.1-0.5,1.2-2.1,1.2h0ZM169,16.9a4.5,4.5,0,0,0,3.3-1,3.4,3.4,0,0,0,.8-2.6V6.9h-2.4v6.7a1.6,1.6,0,0,1-.4,1.1,2.6,2.6,0,0,1-2.9,0,1.6,1.6,0,0,1-.3-1.1V6.9h-2.4v6.4a3.5,3.5,0,0,0,.8,2.6,4.5,4.5,0,0,0,3.3,1h0Zm-9.2-.3c1.3,0,2.4-.1,3-0.7a2.5,2.5,0,0,0,.8-2,2.5,2.5,0,0,0-1.6-2.4h0a2.1,2.1,0,0,0,1.3-2.1,2.3,2.3,0,0,0-.6-1.7c-0.6-.6-1.7-0.8-3.2-0.8h-3.8v9.7h4.1ZM158,10.9V8.6h1.5a1.4,1.4,0,0,1,1.1.3,1.3,1.3,0,0,1,.3.9,1.4,1.4,0,0,1-.3.9,1.4,1.4,0,0,1-1.1.3H158Zm0,4.1V12.5h1.7a1.5,1.5,0,0,1,1.1.3,1.4,1.4,0,0,1,.3,1,1.4,1.4,0,0,1-.3,1,1.5,1.5,0,0,1-1.1.3H158Zm-11.2,1.6V12.5h3.6V10.8h-3.6V8.6h4.4V6.9h-6.8v9.7h2.4ZM136,11.8c0-2.7.6-3.4,2.1-3.4s2.1,0.7,2.1,3.4-0.6,3.4-2.1,3.4-2.1-.7-2.1-3.4h0Zm6.8,0c0-3.3-1.1-5.1-4.6-5.1s-4.6,1.8-4.6,5.1,1.1,5.1,4.6,5.1,4.6-1.8,4.6-5.1h0Zm-20-4.9h-2.6l3.5,6.3v3.4h2.4V13.2l3.6-6.3h-2.4L126,9.2,125,11.3h0l-1-2.1-1.1-2.3h0Zm-7.1,1.7a1.7,1.7,0,0,1,1.3.2,1.5,1.5,0,0,1,.4,1.1,1.6,1.6,0,0,1-.4,1.1,1.8,1.8,0,0,1-1.3.2h-1.5V8.6h1.5Zm0.2-1.7h-4.1v9.7h2.4V13.1h1.1l2.2,3.5h2.7L117.8,13a2.9,2.9,0,0,0,2-3,3.5,3.5,0,0,0-.8-2.4c-0.7-.6-1.6-0.7-3.1-0.7h0Zm-7.8,1.7h2.6V6.9h-7.6V8.6h2.6v8h2.4v-8h0ZM98.1,15a16.3,16.3,0,0,1-3.1-.3v1.8a12.2,12.2,0,0,0,3.2.4c2.8,0,4.4-1.2,4.4-3.2s-1.7-3-3.5-3.1-1.9-.1-1.9-1,0.6-1.1,2-1.1a14.1,14.1,0,0,1,2.6.3V7A11.7,11.7,0,0,0,99,6.6c-2.7,0-4.2,1-4.2,3.1s1.7,2.9,3.5,3,1.9,0.2,1.9,1.1S99.7,15,98.1,15h0Zm-7.5,1.6H93V6.9H90.6v9.7ZM82.3,6.9H79.7v9.7h2.2V13.5c0-1-.1-2.7-0.1-3.7h0A18.9,18.9,0,0,0,83,12.2l2.8,4.4h2.6V6.9H86.2V10c0,1,.1,2.7.1,3.8H86.3A17.9,17.9,0,0,0,85,11.3L82.3,6.9h0Zm-7.2,9.7h2.4V6.9H75.1v9.7Zm-4.5,0h2.3V6.9H69.8c-0.2.5-2.1,4.7-2.2,5.1h0c-0.1-.3-2-4.5-2.2-5.1H62.2v9.7h2.2V12.8c0-1.4-.1-2.2-0.2-3.7h0a20.9,20.9,0,0,0,1,2.8l1.4,3h1.7l1.4-3a21.1,21.1,0,0,0,1-2.8h0c-0.1,1.5-.2,2.3-0.2,3.7v3.8h0Z" transform="translate(-0.5 -0.5)"/><path id="Fill-3" class="cls-1" d="M174.8,46.3H176v-7h-1.2v7Zm-1.7-7h-1.3l-1.9,3H169v-3h-1.2v7H169V43.2h0.9l2.1,3.1h1.3l-2.4-3.7,2.2-3.3h0Zm-10.2,7.1a2.9,2.9,0,0,0,2.2-.7,2.5,2.5,0,0,0,.6-1.9V39.3h-1.2v4.8a1.4,1.4,0,0,1-.4,1,1.6,1.6,0,0,1-1.2.4,1.6,1.6,0,0,1-1.2-.4,1.4,1.4,0,0,1-.4-1V39.3h-1.2v4.6a2.5,2.5,0,0,0,.6,1.9,2.8,2.8,0,0,0,2.2.7h0Zm-6.1-6.2h2V39.3h-5.2v0.9h2v6.1h1.2V40.2h0Zm-7.3,6.2a2.9,2.9,0,0,0,2.2-.7,2.5,2.5,0,0,0,.6-1.9V39.3h-1.2v4.8a1.4,1.4,0,0,1-.3,1,1.6,1.6,0,0,1-1.2.4,1.6,1.6,0,0,1-1.2-.4,1.4,1.4,0,0,1-.3-1V39.3h-1.2v4.6a2.5,2.5,0,0,0,.6,1.9,2.9,2.9,0,0,0,2.2.7h0Zm-6.1-6.2h2V39.3h-5.2v0.9h2v6.1h1.2V40.2h0Zm-6.7.1h0l0.4,1.3,0.7,2h-2.2l0.7-2,0.4-1.3h0Zm1.4,4.3,0.6,1.7h1.2l-2.5-7H136l-2.5,7h1.2l0.6-1.7h2.9Zm-5.5-5.3h-1.3l-1.9,3h-0.9v-3h-1.2v7h1.2V43.2h0.9l2.1,3.1h1.3l-2.4-3.7,2.2-3.3h0Zm-10,1h0l0.4,1.3,0.7,2h-2.2l0.7-2,0.4-1.3h0Zm1.4,4.3,0.6,1.7h1.2l-2.5-7h-1.4l-2.5,7h1.2l0.6-1.7H124Zm-6.1-5.3h-1.2v3h-3.1v-3h-1.2v7h1.2V43.2h3.1v3.1h1.2v-7h0Zm-11.8,2.6,0.6,1.9,0.9,2.5h1.3l1.9-7h-1.2l-0.8,3.2-0.6,2.6h0l-0.8-2.5-1.1-3.3h-1.2l0.4,1.1-0.8,2.3L104,45.1h0c-0.2-.8-0.4-1.6-0.6-2.4l-0.9-3.3h-1.2l1.9,7h1.3l0.9-2.5,0.6-1.9h0ZM94.4,40.3h0l0.4,1.3,0.7,2H93.3l0.7-2,0.4-1.3h0Zm1.4,4.3,0.6,1.7h1.2l-2.5-7H93.7l-2.5,7h1.2L93,44.6h2.9ZM85.3,39.3H84v7h1.1V44.2c0-.9,0-2.3-0.1-3.3h0L86,42.5l2.4,3.8h1.3v-7H88.6v2c0,0.9,0,2.4.1,3.3h0l-0.9-1.6-2.4-3.8h0Zm-4.8,7h1.2v-7H80.6v7Zm-1.7-7H77.6l-1.9,3H74.8v-3H73.6v7h1.2V43.2h0.9l2.1,3.1h1.3l-2.4-3.7,2.2-3.3h0Zm-8.7,7h1.2v-7H70.1v7Zm-2.3-7H66.7v3H63.5v-3H62.4v7h1.2V43.2h3.1v3.1h1.2v-7h0Z" transform="translate(-0.5 -0.5)"/><path id="Fill-4" class="cls-1" d="M26.3,3.1h0l0.3-.3a2.1,2.1,0,0,1,1-.4,2.1,2.1,0,0,1-.3,1l-0.3.3h0.5l-0.5.4a1.3,1.3,0,0,0-.3.7h1v-1h0.6v1h1a1.3,1.3,0,0,0-.9-1.1h0.5l-0.3-.3a2.1,2.1,0,0,1-.3-1,2.3,2.3,0,0,1,1,.4l0.3,0.3h0v-1h0V1.3h0l-0.3.3a2.1,2.1,0,0,1-1,.3,1.9,1.9,0,0,1,.4-1L29,0.5H26.7l0.4,0.4a1.8,1.8,0,0,1,.4,1h0a2.1,2.1,0,0,1-1-.3l-0.3-.3h0V3.1h0" transform="translate(-0.5 -0.5)"/><path id="Fill-5" class="cls-1" d="M25,23.2h0.5v0.4H25.4v0.3h0.5V24.1h0.8L27,24.9l0.2,0.2h0.1a0.2,0.2,0,0,0,0-.3l-0.2-.3h0.4l0.3,0.4L28,25.1H28a0.2,0.2,0,0,0,0-.3l-0.2-.3h0.4l0.3,0.4,0.2,0.2h0.1V24.7l-0.2-.3h0.4l0.3,0.4,0.2,0.2h0.1V24.7l-0.2-.4h0.1a0.8,0.8,0,0,0,.5-0.5,0.6,0.6,0,0,1,.3-0.4h0.3l0.2-.2,0.3-.4H30.6l-0.5-.6V21.3H29.6v0.4H30v0.3l-0.5.6H29.2a0.5,0.5,0,0,1-.1.4H28.9l-0.5-1.8H29V20.9h0.1a0.3,0.3,0,0,0,.2-0.3h0.1a0.2,0.2,0,0,0,.1-0.2h0l-0.6.3h0L28,20.1h0.2V19.7H27.9V18.9H27.8v0.2h0l-0.4.2H26.8l-0.3.3h1.3v0.3H27.4v0.4h0.2l-0.9,1.2h0.1l-0.9.4h1.3l-0.4,1.4H26.4a0.5,0.5,0,0,1-.1-0.4H26l-0.5-.6V21.3H25v0.4h0.5v0.3l-0.5.6H24.6L25,23.2h0Zm5.1-1v0.5h0.1V22.2l0.4,0.5H29.7l0.4-.5h0Zm-2.1-1.8v0.5H27.9V20.4h0Zm0,2.8V21.7h0.2l0.3,1.6H28Zm0.8,0H28.5l-0.3-1.6h0.1l0.5,1.7h0Zm0.1-2.7-0.7.3L28,20.2l0.9,0.3h0Zm-1-.4h0Zm-0.2,3.1H27.3l0.3-1.5h0.2v1.5h0ZM27.6,21h0Zm0.2-.6V21H27.7V20.4h0Zm-0.9,1,0.8-1-0.2.8-0.6.3h0Zm0.5,0.5h0.1l-0.2,1.5H27l0.4-1.4h0Zm-1.9.4v0.5h0.1V22.2l0.4,0.5H25.1l0.4-.5h0Z" transform="translate(-0.5 -0.5)"/><path id="Fill-6" class="cls-1" d="M25.2,30.7h0.3v0.4H25.4v0.3h0.5V31.6h0.8L27,32.3h0.3a0.2,0.2,0,0,0,0-.3l-0.2-.3h0.4l0.3,0.4h0.4V32.1l-0.2-.3h0.4l0.3,0.4h0.3a0.3,0.3,0,0,0-.1-0.2l-0.2-.3h0.4l0.3,0.4h0.3a0.3,0.3,0,0,0,0-.2l-0.2-.4h0.1a0.8,0.8,0,0,0,.5-0.5,0.6,0.6,0,0,1,.3-0.4h0.3l0.2-.2,0.3-.4H30.6l-0.5-.6V28.7H29.6v0.4H30v0.3l-0.5.6H29.2a0.4,0.4,0,0,1-.1.4H28.9l-0.5-1.8H29V28.3h0.1a0.3,0.3,0,0,0,.2-0.3h0.1a0.2,0.2,0,0,0,.1-0.2h0l-0.6.3h0L28,27.5h0.2V27.1H27.9V26.3H27.8v0.2h0l-0.4.2H26.8l-0.3.3h1.3v0.3H27.4v0.4h0.2l-0.9,1.2h0.1l-0.9.4h1.3l-0.4,1.4H26.4a0.5,0.5,0,0,1-.1-0.4H26l-0.5-.6V28.7H25v0.4h0.5v0.3l-0.5.6H24.6L25,30.6h0.2ZM30,29.6v0.5h0.1V29.6l0.4,0.5H29.7l0.4-.5h0Zm-2.1-1.8v0.5H27.9V27.8h0Zm0,2.8V29.1h0.2l0.3,1.6H28Zm0.8,0H28.5L28.2,29h0.1l0.5,1.7h0Zm0.1-2.7-0.7.3L28,27.6l0.9,0.3h0Zm-1-.4h0Zm-0.2,3.1H27.3l0.3-1.6h0.2v1.5h0Zm-0.2-2.2h0Zm0.2-.6v0.6H27.7V27.8h0Zm-0.9,1,0.8-1.1-0.2.8-0.6.3h0Zm0.5,0.5h0.1l-0.2,1.5H27l0.4-1.4h0Zm-1.9.4v0.5h0.1V29.6l0.4,0.5H25.1l0.4-.5h0Z" transform="translate(-0.5 -0.5)"/><path id="Fill-7" class="cls-1" d="M25.2,38.1h0.3v0.4H25.4v0.3h0.5V39h0.8L27,39.7l0.2,0.2h0.1V39.5l-0.2-.3h0.4l0.3,0.4L28,39.9h0.1a0.3,0.3,0,0,0,0-.2l-0.2-.3h0.4l0.3,0.4,0.2,0.2h0.1a0.3,0.3,0,0,0-.1-0.2l-0.2-.3h0.4l0.3,0.4,0.2,0.2h0.1a0.3,0.3,0,0,0,0-.2l-0.2-.4h0.1a0.9,0.9,0,0,0,.5-0.5,0.6,0.6,0,0,1,.3-0.4h0.3l0.2-.2,0.3-.4H30.6l-0.5-.6V36.1H29.6v0.4H30v0.3l-0.5.6H29.2a0.4,0.4,0,0,1-.1.4H28.9l-0.5-1.8H29V35.7h0.1a0.3,0.3,0,0,0,.2-0.3h0.1a0.2,0.2,0,0,0,.1-0.2h0l-0.6.3h0L28,34.9h0.2V34.5H27.9V33.7H27.8v0.2h0l-0.4.2H26.8l-0.3.3h1.3v0.3H27.4v0.4h0.2l-0.9,1.2h0.1l-0.9.4h1.3L26.9,38H26.4a0.5,0.5,0,0,1-.1-0.4H26l-0.5-.6V36.1H25v0.4h0.5v0.3l-0.5.6H24.6L25,38h0.2ZM30,37v0.5h0.1V37l0.4,0.5H29.7L30,37h0Zm-2.1-1.8v0.5H27.9V35.2h0ZM28,38V36.5h0.2L28.4,38H28Zm0.8,0H28.5l-0.3-1.6h0.1L28.8,38h0Zm0.1-2.7-0.7.3L28,35l0.9,0.3h0Zm-1-.4h0ZM27.8,38H27.3l0.3-1.6h0.2V38h0Zm-0.2-2.2h0Zm0.2-.6v0.6H27.7V35.2h0Zm-0.9,1,0.8-1.1-0.2.8-0.6.3h0Zm0.5,0.5h0.1L27.2,38H27l0.4-1.4h0Zm-1.9.4v0.5h0.1V37l0.4,0.5H25.1l0.4-.5h0Z" transform="translate(-0.5 -0.5)"/><path id="Fill-8" class="cls-1" d="M42.6,43.7l-0.5-.2v0.5l0.5,0.2V43.7" transform="translate(-0.5 -0.5)"/><path id="Fill-9" class="cls-1" d="M12.8,43.7v0.5l0.5-.2V43.5l-0.5.2" transform="translate(-0.5 -0.5)"/><path id="Fill-10" class="cls-1" d="M23.9,42.9l-0.5.2v0.5l0.5-.2V42.9" transform="translate(-0.5 -0.5)"/><path id="Fill-11" class="cls-1" d="M19.6,40.8H18.3c0,0.1,0,.2,0,0.6v0.5a5.4,5.4,0,0,1,0,.6h1.3V42.8a0.1,0.1,0,0,0-.1-0.1H19.5V43H19.1c-0.3,0-.3-0.1-0.3-0.2V42.1h0.7V41.9H18.8V41.1h0.8V41H19.6" transform="translate(-0.5 -0.5)"/><path id="Fill-12" class="cls-1" d="M23.6,42.1a0,0,0,0,0,0,0H23a0,0,0,0,1,0,0H22.9l-0.2.3-0.6.8V41.7h0a0.2,0.2,0,0,0-.1-0.2H21.8l-1,1.2c0-.3,0-1.1,0-1.2h0V41.3H21a0.1,0.1,0,0,0,0,0H20.3a0.4,0.4,0,0,1,0,.2v2a0.2,0.2,0,0,0,.1.2h0.2l1-1.2v1.5a0.2,0.2,0,0,0,.1.2H22l1.2-1.5h0l0.2-.2h0.2" transform="translate(-0.5 -0.5)"/><path id="Fill-13" class="cls-1" d="M26.5,42.8H26.4l-1-.2H24.7l-0.2.4a0.1,0.1,0,0,0,0,.1h0.1l0.2-.2h1l-1,.9-0.8.7h0L25,44.9,25.8,45h0.2l0.2-.4a0.2,0.2,0,0,0,0-.1H25.4l-0.7-.2,0.2-.2,1.6-1.4h0" transform="translate(-0.5 -0.5)"/><path id="Fill-14" class="cls-1" d="M28.2,44.7H27.6c-0.3,0-.3-0.1-0.3-0.2V44H28V43.8H27.3V43.1h0.8V42.9H26.8c0,0.1,0,.2,0,0.6v0.5c0,0.3,0,.5,0,0.6h1.4V44.8a0.1,0.1,0,0,0-.1-0.1" transform="translate(-0.5 -0.5)"/><path id="Fill-15" class="cls-1" d="M32.4,43.8H32.4a0.3,0.3,0,0,1,0,.2l-0.3.2H31.7a1.5,1.5,0,0,1-.2-0.6l-0.2-.5-0.2-.6c0-.1,0-0.1,0-0.2H30.6l0.2,0.6L31,43.8l0.2,0.6c0,0.1,0,.1,0,0.1h0.7l0.6-.2c0.2,0,.2-0.1.2-0.2V43.8H32.4" transform="translate(-0.5 -0.5)"/><path id="Fill-16" class="cls-1" d="M35.1,43.3H34.9l-0.3-.2-0.9-1-0.5-.5H33.1a0.2,0.2,0,0,0-.1.2v2.1a0.3,0.3,0,0,1-.1.3h0.5a0.4,0.4,0,0,1,0-.2V43.2l0.6-.2,0.4,0.5h0.1l0.6-.2h0.2a0.1,0.1,0,0,0,0,0H35.1m-1.9-.3V42.3l0.4,0.5-0.5.2" transform="translate(-0.5 -0.5)"/><path id="Fill-17" class="cls-1" d="M37.4,41c0-.2,0-0.2.1-0.2H36.9s0.1,0,.1.2l0.2,1.2H37l-0.5-.4L35.4,41H35.2a0.2,0.2,0,0,0,0,.1l0.2,1.8c0,0.2,0,.3,0,0.3h0.5a0.4,0.4,0,0,1-.1-0.3l-0.2-1.1,0.8,0.6,0.5,0.3L37.4,43h0.2a0.1,0.1,0,0,0,.1-0.2L37.4,41" transform="translate(-0.5 -0.5)"/><path id="Fill-18" class="cls-1" d="M39.2,41H38.3a0.1,0.1,0,0,1,.1.2v1.8h1.3l0.7-.2a1.2,1.2,0,0,0,.5-0.8,1.1,1.1,0,0,0-.1-0.8,1.8,1.8,0,0,0-1.2-.6m0.7,1.4a0.9,0.9,0,0,1-.4.7H38.8l-0.3-.2a0.5,0.5,0,0,1,0-.2V41.1H39a1.2,1.2,0,0,1,.8.5,1,1,0,0,1,.1.8" transform="translate(-0.5 -0.5)"/><path id="Fill-19" class="cls-1" d="M30.9,44.7H30.7a0.4,0.4,0,0,1-.3-0.3l-0.7-1.1-0.4-.6H29.3v0.2l-0.5,2a0.3,0.3,0,0,1-.2.3h0.5V44.3h0.7l0.3,0.6h0.8m-1.7-.6,0.2-.7L29.6,44H29.1" transform="translate(-0.5 -0.5)"/><path id="Fill-20" class="cls-1" d="M12.5,8.3h0a0.8,0.8,0,0,1,.6-0.1h0a0.9,0.9,0,0,0-.7.1,0.1,0.1,0,0,0,0,.1h0.1" transform="translate(-0.5 -0.5)"/><path id="Fill-21" class="cls-1" d="M13.1,8.4h0l-0.5.2h0.4a0.4,0.4,0,0,0,.2-0.3h0" transform="translate(-0.5 -0.5)"/><path id="Fill-22" class="cls-1" d="M2.1,17.6L2.5,18V17.5h0l0.4-.2H2.4V16.7L2,17.1H1.6l0.3,0.3-0.2.4,0.4-.2" transform="translate(-0.5 -0.5)"/><path id="Fill-23" class="cls-1" d="M3.2,18.9H2.7V18.4l-0.2.4H1.9l0.3,0.3L2,19.5l0.4-.2,0.4,0.4V19.2h0l0.4-.2" transform="translate(-0.5 -0.5)"/><path id="Fill-24" class="cls-1" d="M4.2,18.3L4,18.8H3.6L3.9,19l-0.2.4,0.4-.2,0.4,0.4V19.1h0l0.4-.2H4.3V18.3" transform="translate(-0.5 -0.5)"/><path id="Fill-25" class="cls-1" d="M3.9,16.9h0l0.4-.2H3.8V16.1l-0.2.4H3.1l0.3,0.3-0.2.4L3.6,17,4,17.4V16.9" transform="translate(-0.5 -0.5)"/><path id="Fill-26" class="cls-1" d="M46.7,9.6L47.2,9a0.1,0.1,0,0,0,0-.1H47.1a2.4,2.4,0,0,1-.9.9h0.1l0.5-.3" transform="translate(-0.5 -0.5)"/><path id="Fill-27" class="cls-1" d="M45.2,9.2h0a0.3,0.3,0,0,0,.1-0.3,0.1,0.1,0,0,1,0-.1h0.1a0.2,0.2,0,0,1,0,.2,0.1,0.1,0,0,0,0,.1h0.1a0.3,0.3,0,0,0,.1-0.3,0.3,0.3,0,0,0-.2-0.2H45.3a0.3,0.3,0,0,0-.1.3,0.2,0.2,0,0,1-.1.2,0.1,0.1,0,0,0,0,.1h0" transform="translate(-0.5 -0.5)"/><path id="Fill-28" class="cls-1" d="M43.6,9.4H43.5a0.1,0.1,0,0,0,0,.1,0.7,0.7,0,0,1-.2.9,0.1,0.1,0,0,0,0,.1h0.1a0.8,0.8,0,0,0,.2-1.1" transform="translate(-0.5 -0.5)"/><path id="Fill-29" class="cls-1" d="M43.4,8.8H43.2a0.1,0.1,0,0,0,0,.1h0.2m0.1-.2h0" transform="translate(-0.5 -0.5)"/><path id="Fill-30" class="cls-1" d="M45.5,20.9H45.3v0.2a1.2,1.2,0,0,1,0,.8,0.1,0.1,0,0,0,0,.1h0.1a0.7,0.7,0,0,0,.1-0.5,0.7,0.7,0,0,1,.1.6h0.1a0.9,0.9,0,0,0-.1-0.8,1.5,1.5,0,0,1-.2-0.5" transform="translate(-0.5 -0.5)"/><path id="Fill-31" class="cls-1" d="M45.9,23.3H46a1.7,1.7,0,0,0,.2-0.7,1.5,1.5,0,0,1,0,.7h0.1a2.6,2.6,0,0,0-.2-1.2H46a2.1,2.1,0,0,1-.2,1.1,0.1,0.1,0,0,0,0,.1" transform="translate(-0.5 -0.5)"/><path id="Fill-32" class="cls-1" d="M46,18.9a1.3,1.3,0,0,0,0,.4h0.1a1.7,1.7,0,0,1,0-.3h0a0.9,0.9,0,0,0,.3.7h0a3.5,3.5,0,0,1-.3-1.2H46.1a3.6,3.6,0,0,1-.1.5" transform="translate(-0.5 -0.5)"/><path id="Fill-33" class="cls-1" d="M47.9,20.4H48a3.4,3.4,0,0,0,.3-0.9,0.7,0.7,0,0,1,.1.3V20a3.1,3.1,0,0,0,0,.4h0.1a3.2,3.2,0,0,1,0-.4V19.7a0.9,0.9,0,0,0-.1-0.3V19.1H48.2a3,3,0,0,1-.3,1.2h0" transform="translate(-0.5 -0.5)"/><path id="Fill-34" class="cls-1" d="M50,27.6h0.1a2.1,2.1,0,0,0,.1-0.8,1.6,1.6,0,0,1,.1.6h0.1a1.7,1.7,0,0,0-.2-0.9H50.1a2.9,2.9,0,0,1-.1,1,0.1,0.1,0,0,0,0,.1" transform="translate(-0.5 -0.5)"/><path id="Fill-35" class="cls-1" d="M48,17.8h0.1a2.9,2.9,0,0,1,.1-0.6V16.7a2.4,2.4,0,0,1,.1.7h0.1a4,4,0,0,0-.2-1.2H48.1a2,2,0,0,1-.1.8,3.1,3.1,0,0,0-.1.7" transform="translate(-0.5 -0.5)"/><path id="Fill-36" class="cls-1" d="M49.7,18.3H49.6a1.1,1.1,0,0,1,0,.8h0.1v0.1H50a3.7,3.7,0,0,0-.2-0.9V18.3" transform="translate(-0.5 -0.5)"/><path id="Fill-37" class="cls-1" d="M45.2,23.9h0a0.1,0.1,0,0,0,0,.1,0.8,0.8,0,0,1,.1.6,0.9,0.9,0,0,0,0,.2h0.1a0.9,0.9,0,0,1,0-.2,1.4,1.4,0,0,0,0-.4,1.8,1.8,0,0,1,.1.6h0.1a1.1,1.1,0,0,0-.4-0.9H45.2" transform="translate(-0.5 -0.5)"/><path id="Fill-38" class="cls-1" d="M48.4,20.9H48.3a0.2,0.2,0,0,0,0,.1,1.4,1.4,0,0,1-.1,1,0.1,0.1,0,0,0,0,.1h0.1a1.3,1.3,0,0,0,.1-1,1.8,1.8,0,0,1,.2.8h0.1a1.5,1.5,0,0,0-.4-1.1" transform="translate(-0.5 -0.5)"/><path id="Fill-39" class="cls-1" d="M44.5,26.5h0.1a1.5,1.5,0,0,0,.1-0.8h0a3.8,3.8,0,0,1,.1,1H45a2.9,2.9,0,0,0-.2-1.4H44.6c0,0.1,0,.3,0,0.4a1.5,1.5,0,0,1-.1.7h0" transform="translate(-0.5 -0.5)"/><path id="Fill-40" class="cls-1" d="M47.6,23.4h0.1a1.7,1.7,0,0,0,0-.8,1.1,1.1,0,0,1,.1-0.6,2,2,0,0,0,.1.8v0.5h0.1V22.7a1.7,1.7,0,0,1,0-.9H47.8a1,1,0,0,0-.2,1,1.6,1.6,0,0,1,0,.7h0" transform="translate(-0.5 -0.5)"/><path id="Fill-41" class="cls-1" d="M49.4,15H49.3a0.1,0.1,0,0,0,0,.1,1,1,0,0,1,0,.7h0a0.9,0.9,0,0,0,0,.2,0.4,0.4,0,0,1,0,.3,0.1,0.1,0,0,0,0,.1h0.1a0.5,0.5,0,0,0,.1-0.4,0.7,0.7,0,0,1,0-.2h0a1.8,1.8,0,0,0,0-.5,3.1,3.1,0,0,1,.2,1.1h0.1a1.9,1.9,0,0,0-.4-1.4" transform="translate(-0.5 -0.5)"/><path id="Fill-42" class="cls-1" d="M48.1,25.4a2.4,2.4,0,0,1,.1.6h0.1a2.5,2.5,0,0,0-.1-0.6,1.5,1.5,0,0,1-.1-0.6H47.9a1.6,1.6,0,0,1-.1.6,1.5,1.5,0,0,0-.1.5h0.1a1.3,1.3,0,0,1,.1-0.4v0" transform="translate(-0.5 -0.5)"/><path id="Fill-43" class="cls-1" d="M48.9,26H48.8a1.3,1.3,0,0,1,.1,1.1v0.2h0.1V27.3a1.5,1.5,0,0,0,.1-0.9v0.3a3.6,3.6,0,0,1-.1,1.1h0.1a3.6,3.6,0,0,0,.1-1.1,1.1,1.1,0,0,0-.3-0.6H48.9" transform="translate(-0.5 -0.5)"/><path id="Fill-44" class="cls-1" d="M49.4,23.2H49.4a3.6,3.6,0,0,1,0-.6,4.1,4.1,0,0,0,0-.4H49.3c0,0.2,0,.3,0,0.4a3.4,3.4,0,0,0,0,1,13.5,13.5,0,0,1,.2,2.8c0,0.1,0,.2,0,0.4s0,0.6,0,.8H49.3l0.2,0.4c0,0.6-.1,1.1-0.2,1.7v1.1h0.1V28.8h0.1a1.1,1.1,0,0,0,0-.7h0v0.3a1,1,0,0,1,0,.4,1.5,1.5,0,0,0,0,.4h0.1a1.3,1.3,0,0,1,0-.3,1.2,1.2,0,0,0,0-.5,1.5,1.5,0,0,0-.2-0.5c0-.3,0-0.6,0-1V26.4a16.7,16.7,0,0,0-.1-1.8h0.1a6.4,6.4,0,0,0-.1-1.1,3.4,3.4,0,0,1,.2.9h0.1a1.7,1.7,0,0,0-.4-1.1" transform="translate(-0.5 -0.5)"/><path id="Fill-45" class="cls-1" d="M48.8,32.2H49a1.6,1.6,0,0,0-.2-1H48.6a0.1,0.1,0,0,0,0,.1h0a1.4,1.4,0,0,1-.1.9h0.1V31.6a3.7,3.7,0,0,1,0,.4h0" transform="translate(-0.5 -0.5)"/><path id="Fill-46" class="cls-1" d="M50.6,31.6h0.1a0.5,0.5,0,0,0,0-.4V30.9H50.5a1.3,1.3,0,0,1-.3.8,0.1,0.1,0,0,0,0,.1h0.1a1.3,1.3,0,0,0,.3-0.6h0a0.4,0.4,0,0,1,0,.3,0.1,0.1,0,0,0,0,.1" transform="translate(-0.5 -0.5)"/><path id="Fill-47" class="cls-1" d="M47.8,28.5h0.1a1.5,1.5,0,0,0-.1-0.8h0V27.4H47.7v0.2a1.3,1.3,0,0,1-.1.6h0.2a0.5,0.5,0,0,1,0,.3h0" transform="translate(-0.5 -0.5)"/><path id="Fill-48" class="cls-1" d="M47.3,30.8h0.1a0.7,0.7,0,0,1,.1-0.3V30.2a2.2,2.2,0,0,1,0,.4,1.3,1.3,0,0,0,0,.4h0.1a1.2,1.2,0,0,1,0-.3,0.9,0.9,0,0,0-.2-0.8H47.4a0.1,0.1,0,0,0,0,.1,0.5,0.5,0,0,1,0,.4,0.8,0.8,0,0,0-.1.4" transform="translate(-0.5 -0.5)"/><path id="Fill-49" class="cls-1" d="M50.5,28.5H50.4a1.1,1.1,0,0,0,0,.3,0.4,0.4,0,0,1-.1.4,0.1,0.1,0,0,0,0,.1h0.1l0.2-.2a0.5,0.5,0,0,1-.1.3,0.1,0.1,0,0,0,0,.1h0.1a1.4,1.4,0,0,0,0-1h0" transform="translate(-0.5 -0.5)"/><path id="Fill-50" class="cls-1" d="M44.2,28.9h0.1V28.3h0a4.8,4.8,0,0,1,.1.8h0.1a5.1,5.1,0,0,0-.1-0.8,5.1,5.1,0,0,1-.1-0.5,1.9,1.9,0,0,0,0-.2H44.4a1.8,1.8,0,0,0,0,.2,7.8,7.8,0,0,1-.2,1h0" transform="translate(-0.5 -0.5)"/><path id="Fill-51" class="cls-1" d="M46,30.7H45.8a3,3,0,0,1-.1.7,1.4,1.4,0,0,0-.1.4h0.1a1.2,1.2,0,0,1,0-.4V31.1a4.9,4.9,0,0,1,.1.8h0.1s0-.2,0-0.5h0a31.9,31.9,0,0,0,.3-5.4H46.3a30.2,30.2,0,0,1-.2,5V30.7" transform="translate(-0.5 -0.5)"/><path id="Fill-52" class="cls-1" d="M44.2,31.4h0.1a1.9,1.9,0,0,1,0-1h0a3.5,3.5,0,0,0,.1.9h0.1a3.6,3.6,0,0,1-.1-0.8,2.2,2.2,0,0,0-.1-0.5H44.3v0.2a2.2,2.2,0,0,0,0,1.2" transform="translate(-0.5 -0.5)"/><path id="Fill-53" class="cls-1" d="M44.9,30h0.1a5.5,5.5,0,0,0,.1-0.8,2.6,2.6,0,0,1,0,1.1h0.1a2.9,2.9,0,0,0,0-1.3V28.7H45.1a6.9,6.9,0,0,1-.2,1.2" transform="translate(-0.5 -0.5)"/><path id="Fill-54" class="cls-1" d="M45.5,26.1H45.4a3.5,3.5,0,0,1-.2,1.4h0.1V27.2a1.2,1.2,0,0,0,0,.5h0.1a1.6,1.6,0,0,1,0-.7,1.3,1.3,0,0,0-.1-0.9h0" transform="translate(-0.5 -0.5)"/><path id="Fill-55" class="cls-1" d="M47.2,33.1h0.1a1.4,1.4,0,0,1,0-.9,2.2,2.2,0,0,0,0,.7h0.1a2.6,2.6,0,0,1,0-.9H47.4a1.2,1.2,0,0,0-.2,1.2" transform="translate(-0.5 -0.5)"/><path id="Fill-56" class="cls-1" d="M43.4,35.1h0.1a5.3,5.3,0,0,0,.6-1.3H43.9a5.3,5.3,0,0,1-.6,1.2,0.1,0.1,0,0,0,0,.1h0" transform="translate(-0.5 -0.5)"/><path id="Fill-57" class="cls-1" d="M43.2,33.2h0.1a5,5,0,0,1,.6-1.2,0.1,0.1,0,0,0,0-.1H43.8a4.7,4.7,0,0,0-.6,1.3" transform="translate(-0.5 -0.5)"/><path id="Fill-58" class="cls-1" d="M39.8,22.1h0.1a1.7,1.7,0,0,1,.4-0.7,1.2,1.2,0,0,0,.3-0.5H40.5l-0.2.4a1.8,1.8,0,0,0-.4.8" transform="translate(-0.5 -0.5)"/><path id="Fill-59" class="cls-1" d="M43.9,32.3H44V32.1h0a0.8,0.8,0,0,1,0,.4h0.1a1.7,1.7,0,0,0-.1-0.8H44a0.8,0.8,0,0,1,0,.5,0.9,0.9,0,0,0-.1.3" transform="translate(-0.5 -0.5)"/><path id="Fill-60" class="cls-1" d="M43.3,34.4h0.1a5.1,5.1,0,0,1,.6-1.2,0.1,0.1,0,0,0,0-.1H43.9a5.3,5.3,0,0,0-.6,1.3h0" transform="translate(-0.5 -0.5)"/><path id="Fill-61" class="cls-1" d="M44.8,33.5h0.1a5.4,5.4,0,0,0-.1-1.2H44.6a2.5,2.5,0,0,0-.2,1.5h0.1a0.1,0.1,0,0,0,0-.1,1.9,1.9,0,0,1,.1-1,4.4,4.4,0,0,1,0,.9h0.1" transform="translate(-0.5 -0.5)"/><path id="Fill-62" class="cls-1" d="M45.2,34.4h0.1a6.2,6.2,0,0,0,.2-1.8H45.3a1.9,1.9,0,0,1-.2.6v0.3a1.1,1.1,0,0,0-.1.6,2.5,2.5,0,0,1,0,.3h0.1a2.7,2.7,0,0,0,0-.3,1,1,0,0,1,.1-0.6V33a5,5,0,0,1-.2,1.3h0" transform="translate(-0.5 -0.5)"/><path id="Fill-63" class="cls-1" d="M43.8,23.9h0.1a1.3,1.3,0,0,0-.1-0.7V22.4H43.5v0.3h0a1.2,1.2,0,0,1,0,.8,0.1,0.1,0,0,0,0,.1h0.1a0.6,0.6,0,0,0,.1-0.4,1,1,0,0,1,.1.5h0.1" transform="translate(-0.5 -0.5)"/><path id="Fill-64" class="cls-1" d="M45.8,40.2H45.5a0.3,0.3,0,0,0,0,.2h0.1a0.9,0.9,0,0,1,0-.1h0.2" transform="translate(-0.5 -0.5)"/><path id="Fill-65" class="cls-1" d="M41.8,37.9H41.6v0.2a0.5,0.5,0,0,1-.4.6h0.1a0.6,0.6,0,0,0,.4-0.7V37.9" transform="translate(-0.5 -0.5)"/><path id="Fill-66" class="cls-1" d="M29.2,5.1a1.4,1.4,0,1,1-1.4-1.4,1.4,1.4,0,0,1,1.4,1.4" transform="translate(-0.5 -0.5)"/><path id="Fill-67" class="cls-1" d="M33.6,13.2h0" transform="translate(-0.5 -0.5)"/><path id="Fill-68" class="cls-1" d="M36.8,10a0.5,0.5,0,1,0,0-1l-0.4.2a3.9,3.9,0,0,0-.1-0.7h0.3a0.5,0.5,0,1,0,0-1,0.5,0.5,0,0,0-.5.4l-0.3-.6h0.2a0.5,0.5,0,1,0-.5-0.5h0l-0.5-.5A0.5,0.5,0,1,0,34.5,6a0.5,0.5,0,0,0,.1.3l-0.8-.2a0.5,0.5,0,1,0-.4-0.1H32.7a0.5,0.5,0,0,0,.1-0.4,0.5,0.5,0,1,0-.8.4l-0.7.2a0.5,0.5,0,1,0-.4.2l-0.9.3a0.5,0.5,0,0,0,.2-0.4,0.5,0.5,0,1,0-.6.5L29,7.1V6.3a0.2,0.2,0,0,0-.2-0.2H28.7l0.4-.5H26.7L27,6.1H27a0.2,0.2,0,0,0-.2.2V7.1l-0.7-.2a0.5,0.5,0,1,0-.6-0.5,0.5,0.5,0,0,0,.2.4l-0.9-.3a0.5,0.5,0,1,0-.4-0.2l-0.7-.2a0.5,0.5,0,1,0-.8-0.4A0.5,0.5,0,0,0,23,6H22.3a0.5,0.5,0,1,0-.4.1l-0.8.2A0.5,0.5,0,0,0,21.2,6a0.5,0.5,0,1,0-.5.5L20.2,7h0a0.5,0.5,0,1,0-.5.5h0.2L19.6,8a0.5,0.5,0,1,0-.5.7h0.3a3.9,3.9,0,0,0-.1.7L18.9,9a0.5,0.5,0,1,0,.4.8v0.7H19.3a0.5,0.5,0,1,0,.5.7v0.3H19.5l0.6,1.3h0a0.3,0.3,0,0,0-.2.5l0.3,0.2h0.2l0.7,1.5-0.4,1h0l1.2,0.5h0a1.2,1.2,0,0,0-.1.8,0.9,0.9,0,0,0,.5.5h0.5a16.3,16.3,0,0,1,5-.8h0.2a16.3,16.3,0,0,1,5,.8h0.5a0.9,0.9,0,0,0,.5-0.5,1.1,1.1,0,0,0,0-.6V16.3l1.2-.5h0l-0.4-1,0.7-1.4h0.3a0.3,0.3,0,0,0,.2-0.5l-0.2-.2,0.6-1.3H35.9V11.1a0.5,0.5,0,1,0,.5-0.7H36.2V9.8a0.5,0.5,0,0,0,.4.2h0ZM29,14.3l-1.1.8-1.1-.8,1.1-.8L29,14.3h0Zm-8.3-1.1h0.6L21,12.1l-0.6.5a1.8,1.8,0,0,1,0-1.1l0.2-.5h0l-0.4.2L20,10.6h0V10.1h0a3.7,3.7,0,0,1-.1-0.5h0A2.8,2.8,0,0,1,21,6.9a4.5,4.5,0,0,1,3.5,0,10.7,10.7,0,0,0,2.3.7V8.5h0V8.7h0V9.5H26.6L27,9.9a2.2,2.2,0,0,1,.5,1.2h0a1.2,1.2,0,0,1-.8-0.4l-0.4-.3h0v2.2h0l0.3-.3a1.2,1.2,0,0,1,.8-0.4,2.5,2.5,0,0,1-.4,1.2l-0.3.4a1.2,1.2,0,0,1-.8.2l-1-.3h0a1.3,1.3,0,0,1-.5-0.5h0.1a0.2,0.2,0,0,0,.1-0.3H24.4a1.1,1.1,0,0,1,.1-0.5h0.4a0.4,0.4,0,0,1,0,.3h0a0.6,0.6,0,0,0,.2.4h0V12.3l0.2-.3,0.2-.3h0a1,1,0,0,0,0-.9,0.7,0.7,0,0,0-.4-0.4H24.9a0.7,0.7,0,0,0-.6.4v0.3a2,2,0,0,0,0-.4A1.9,1.9,0,0,0,24,9.9,2,2,0,0,0,23.1,9h0a2,2,0,0,0-.3,1.2,1.9,1.9,0,0,0,.2.7l0.2,0.4-0.3-.2H22.5l-0.5.2a0.7,0.7,0,0,0-.2.5,1,1,0,0,0,.3.8h0l0.3,0.2,0.3,0.2L23,13.1h0a0.7,0.7,0,0,0,0-.4h0a0.4,0.4,0,0,1-.1-0.3,0.2,0.2,0,0,1,.2-0.2h0.1a1.1,1.1,0,0,1,.3.4h0a0.2,0.2,0,0,0-.2.2,0.2,0.2,0,0,0,.2.2h0.1a1.2,1.2,0,0,1-.2.6,1.3,1.3,0,0,1-.8.5H22.2a1.5,1.5,0,0,1-1-.3l-0.5-.6h0ZM25.5,15l-1.6.4-0.3-1.1,1.6-.4L25.5,15h0Zm-4.5.7,0.4-1,1,0.4-0.4,1-1-.4h0Zm1,1.4a16.6,16.6,0,0,1,11.8,0h0a0.8,0.8,0,0,1-.4.4H33a16.3,16.3,0,0,0-10.3,0H22.2a0.8,0.8,0,0,1-.4-0.5,1,1,0,0,1,0-.5l1.8-.5a17.9,17.9,0,0,1,4.2-.6,18,18,0,0,1,4.2.6l1.6,0.5a1,1,0,0,1,.1.5,17.4,17.4,0,0,0-6-1.1A17.1,17.1,0,0,0,22,17H22ZM30.2,15l0.3-1.1L32,14.3l-0.3,1.1L30.2,15h0Zm4.6,0.7-1,.4-0.4-1,1-.4,0.4,1h0ZM36,9.4h0a4.1,4.1,0,0,1-.1.5h0l-0.2.7h0l-0.2.5L35.1,11h0l0.2,0.5a1.8,1.8,0,0,1,0,1.1l-0.6-.5-0.4,1H35l-0.5.6a1.5,1.5,0,0,1-1,.3H33.2a1.3,1.3,0,0,1-.8-0.5,1.2,1.2,0,0,1-.2-0.6h0.1a0.2,0.2,0,0,0,.2-0.2,0.2,0.2,0,0,0-.2-0.2h0a1.1,1.1,0,0,1,.3-0.4h0.1a0.2,0.2,0,0,1,.2.2,0.4,0.4,0,0,1-.1.3h0a0.6,0.6,0,0,0,0,.4h0l0.2-.2,0.3-.2,0.3-.2h0a1,1,0,0,0,.3-0.8,0.7,0.7,0,0,0-.2-0.5L33.2,11H32.8l-0.3.2,0.2-.4a1.9,1.9,0,0,0,.2-0.7A2,2,0,0,0,32.6,9h0a1.9,1.9,0,0,0-.8.9,1.9,1.9,0,0,0-.2.7,1.9,1.9,0,0,0,0,.4V10.8a0.7,0.7,0,0,0-.6-0.4H30.7a0.7,0.7,0,0,0-.4.4,1,1,0,0,0,0,.9h0L30.4,12l0.2,0.3v0.3h0a0.7,0.7,0,0,0,.2-0.4h0a0.4,0.4,0,0,1,0-.3h0.4a1.1,1.1,0,0,1,.1.5H31.1a0.2,0.2,0,0,0,.1.3h0.1a1.4,1.4,0,0,1-.5.5l-0.9.2a1.3,1.3,0,0,1-.8-0.2L28.7,13a2.5,2.5,0,0,1-.4-1.2,0.9,0.9,0,0,1,.7.4l0.4,0.3h0V10.4h0l-0.4.3a0.9,0.9,0,0,1-.7.4,2.2,2.2,0,0,1,.5-1.2l0.5-.4H29V8.9h0V8.3h0V7.6a10.8,10.8,0,0,0,2.3-.7,4.4,4.4,0,0,1,3.5,0A2.8,2.8,0,0,1,36,9.4h0Z" transform="translate(-0.5 -0.5)"/><path id="Fill-69" class="cls-1" d="M44.2,9.1H44.1a0.1,0.1,0,0,0,0,.1,0.7,0.7,0,0,1-.1.9,0.1,0.1,0,0,0,0,.1h0.1a0.8,0.8,0,0,0,.1-1.1" transform="translate(-0.5 -0.5)"/><path id="Fill-70" class="cls-1" d="M43.7,7.7a0.1,0.1,0,0,0,0,.1h0.1a0.7,0.7,0,0,1,.9-0.2h0.1a0.1,0.1,0,0,0,0-.1h0a0.8,0.8,0,0,0-1.1.3" transform="translate(-0.5 -0.5)"/><path id="Fill-71" class="cls-1" d="M40.2,30.2l2.7,0.6,0.3-.8L43,28.8l-2.9-.2v1.6" transform="translate(-0.5 -0.5)"/><path id="Fill-72" class="cls-1" d="M40.2,23.9l1,0.2-1.1,2V23.9" transform="translate(-0.5 -0.5)"/><path id="Fill-73" class="cls-1" d="M41,26.7l1.3,0.2L42,24.6l-1,2.1" transform="translate(-0.5 -0.5)"/><path id="Fill-74" class="cls-1" d="M44.3,36.7l-0.7-.3V36.2l0.5,0.2,0.8-1h1l0.8-1.1,0.9,0.2,0.8-1,1.1,0.2,0.7-1,0.7,0.2V33H50.5l-0.7,1-1.1-.2-0.8,1H46.9l-0.8,1.1h-1l-0.8,1" transform="translate(-0.5 -0.5)"/><path id="Fill-75" class="cls-1" d="M48.5,8.5a1.4,1.4,0,0,1,1.2,1.1,1.3,1.3,0,0,1-.2.7,4.4,4.4,0,0,0-.2.9,1.7,1.7,0,0,1-.4-0.6l-0.2.3V10.6l-0.3.3V10.2l-0.2.2-0.2.3-0.2-.3a0.9,0.9,0,0,1,0-.5c0-.4-0.1,0-0.1,0L46.9,11l0.6-.4v0.5h0.1l0.3-.2,0.2,0.6,0.3-.5v0.5l0.3-.4a1.2,1.2,0,0,0,.6.7,3.9,3.9,0,0,1,.3-1.4,1.4,1.4,0,0,0,0-1.3S49,8.2,48.5,8.5" transform="translate(-0.5 -0.5)"/><path id="Fill-76" class="cls-1" d="M44,8.5h0a0.1,0.1,0,0,0,0-.1,0.6,0.6,0,0,0-.4-0.3H43.1a0.1,0.1,0,0,0,0,.1h0.6L44,8.5H44" transform="translate(-0.5 -0.5)"/><path id="Fill-77" class="cls-1" d="M19.3,32.9h3.6v0.6H19.3V32.9Z" transform="translate(-0.5 -0.5)"/><path id="Fill-78" class="cls-1" d="M40.7,22.9h0A2.6,2.6,0,0,1,41,22V21.7h0a2.2,2.2,0,0,0-.4,1.2" transform="translate(-0.5 -0.5)"/><path id="Fill-79" class="cls-1" d="M52.2,33.9H52.1l0.2-.2h0l-0.2.2H51.8v0.2H51.7v0.2H51.5v0.2H51.4v0.2H51.3v0.2H51.1V35H51v0.3h0l-0.3-.2v0.3H51l-0.3-.2v0.4h0l-0.3-.3v0.4h0.1v0.2H50.2a0,0,0,0,0,0,0h0.1a0,0,0,0,0,0,0h0a0.1,0.1,0,0,0,0,0H49.9a0.2,0.2,0,0,0,0,0H49.6a0.2,0.2,0,0,0,0,0h0.1a0.2,0.2,0,0,0,0-.1H49.4l0.2,0.2v0.2a0.1,0.1,0,0,0,0-.1H49.4a0.1,0.1,0,0,0,0-.1H49.4a0.1,0.1,0,0,0,0-.1H49.1l0.3,0.2-0.2.2a0.1,0.1,0,0,0,0-.1H49a0.1,0.1,0,0,0,0-.1H49a0.1,0.1,0,0,0,0-.1H48.9a0.1,0.1,0,0,0,0-.1H48.8a0.1,0.1,0,0,0,0-.1h0a0.1,0.1,0,0,0,0,0H48.6a0.4,0.4,0,0,0,.3.2l-0.2.2a0.2,0.2,0,0,0,0-.1H48.6a0.2,0.2,0,0,0,0-.2H48.5a0.1,0.1,0,0,0,0-.1H48.5a0.1,0.1,0,0,0,0-.1H48.4a0.1,0.1,0,0,0,0-.1h0a0.1,0.1,0,0,0,0-.1h0a0.1,0.1,0,0,0,0,0h0a0,0,0,0,0,0,0h0a0.1,0.1,0,0,0,0,0H48.1v0.2H48.1l0.3,0.3-0.2.2H48.1V38.5H48a0.3,0.3,0,0,0,.1-0.2H48a0.2,0.2,0,0,0,0-.1H47.9a0.1,0.1,0,0,0,0,0h0a0.1,0.1,0,0,0,0,0h0a0,0,0,0,0,0,0h0a0.1,0.1,0,0,0,0,0H47.5v0.2H47.5v0.2H47.5a0.5,0.5,0,0,0,.3.3l-0.3.3V39.2H47.4a0.4,0.4,0,0,0,.1-0.3H47.3a0.4,0.4,0,0,0,.1-0.3H47.2a0.2,0.2,0,0,0,0-.2H47.2V38.1H47a0.1,0.1,0,0,0,0-.1h0a0.2,0.2,0,0,0,0-.1H46.7v0.2H46.7v0.2H46.7a0.4,0.4,0,0,0,.1.3H46.8l-0.2-.6a3.1,3.1,0,0,1,.2-1.7V36.3h0.2l0.7-.4,1.8-.8a4,4,0,0,0,1.4-.7,2,2,0,0,0,.1-0.5h0l-0.5-.2L50,34.7l-1.2-.4h0l-0.7,1.2-1-.3h0l-0.7,1.2H46.3l-1-.2h0l-0.8,1.1-0.7-.3h0a4.5,4.5,0,0,0,0,.6h0.1v0.2H43.9v0.2H43.9a0.4,0.4,0,0,0,.1.3H43.8a0.6,0.6,0,0,0,.2.4H43.8a0.6,0.6,0,0,0,.2.4H43.8a1.1,1.1,0,0,0,.5.5l-0.8.3a0.9,0.9,0,0,0,.3-0.5H43.5a0.6,0.6,0,0,0,.2-0.4H43.5a0.6,0.6,0,0,0,.2-0.4H43.4a0.4,0.4,0,0,0,.1-0.3H43.4a0.3,0.3,0,0,0,.1-0.2H43.3V39H43.2a0.1,0.1,0,0,0,0-.1H42.9a0.1,0.1,0,0,0,0,.1H42.8v0.2H42.8v0.2H42.8a0.3,0.3,0,0,0,.1.3H42.7a0.6,0.6,0,0,0,.2.4H42.7a0.6,0.6,0,0,0,.2.4H42.7a1.1,1.1,0,0,0,.5.5l-1,.3a0.9,0.9,0,0,0,.4-0.5H42.2a0.6,0.6,0,0,0,.2-0.4H42.2a0.6,0.6,0,0,0,.2-0.4H42.2a0.3,0.3,0,0,0,.1-0.3H42.1V39.6H42.1V39.4h0.1a1.1,1.1,0,0,0,0-.6,5.4,5.4,0,0,1,.3-2.8,7.5,7.5,0,0,0,.4-3.3h0a11,11,0,0,0,.1-1.4h0V30.9h0.1v0.3l-0.2.4a0.1,0.1,0,0,0,0,.1h0.2l-0.2.5H43v0.4H43V32.1h0.1v0.2h0v0.2h0.1V32.4h0v0.2h0v0.2a0.1,0.1,0,0,0,0,.1h0.1a1.6,1.6,0,0,0,.4-0.9l0.2-.4a0.1,0.1,0,0,0,0-.1H43.8a1.2,1.2,0,0,0-.2.5l-0.2.5V32.2l0.3-.6,0.2-.4a0.1,0.1,0,0,0,0-.1H43.8a1.2,1.2,0,0,0-.2.5l-0.2.6V31.6l0.2-.3a2,2,0,0,0,.2-0.6H43.6l-0.2.5h0l0.2-.6V30.2a0.1,0.1,0,0,0,0-.1H43.6l-0.2.4v0.2c0-.1,0-0.2,0-0.4l0.3-.7a0.1,0.1,0,0,0,0-.1H43.6l-0.2.4V29.9h0.1l0.2-.4H43.5l-0.2.4H43.2l0.3-.7V28.9H43.4v0.3l-0.2.5V29.3l0.3-.5V28.6H43.3V29h0l0.3-.6H43.2l-0.3.6h0V28.6a2.5,2.5,0,0,1,.3-0.7,0.1,0.1,0,0,0,0-.1H43.1l-0.3.6H42.8V28.2a2.2,2.2,0,0,1,.3-0.7,0.1,0.1,0,0,0,0-.1H43.1a2.2,2.2,0,0,0-.4.8l-0.2.5V28.5a5.5,5.5,0,0,1,.6-1.4,0.1,0.1,0,0,0,0-.1H43.1a5,5,0,0,0-.5,1V27.5a2.1,2.1,0,0,0,.3-0.7H42.9l-0.3.6h0V27.1l0.3-.6H42.8l-0.2.5H42.5l-0.2.5V27.4h0a3.8,3.8,0,0,1,.6-1.2,0.1,0.1,0,0,0,0-.1H42.8l-0.5.9a5.1,5.1,0,0,1,.4-0.9l0.2-.5H43a4.6,4.6,0,0,0-.2-1.4H42.7a1.9,1.9,0,0,1-.1,1.2h0l-0.3.7V25.2h0a2.7,2.7,0,0,0,.2-0.6H42.4a2.6,2.6,0,0,1-.2.6V24.7h0l1.9-4h0.6V20.3l0.3-.3a0.3,0.3,0,0,0,0-.2l0.2-.2a0.3,0.3,0,0,0-.1-0.3h0a0.3,0.3,0,0,0,.1-0.3l-0.2-.2,1.1-2.3h0l0.3-.6h0l0.2-.3v0.3c0,0.2,0,.4,0,0.6h0.1c0-.1,0-0.3,0-0.6V15.3h0V15.1h0l0.2-.5h0v0.5a1.5,1.5,0,0,1,.1.9,0.1,0.1,0,0,0,0,.1h0.1a1.4,1.4,0,0,0-.1-1c-0.1-.3-0.1-0.5-0.2-0.9h0V13.9h0V13.7h0V13.5a4.2,4.2,0,0,0,.2,1,4.9,4.9,0,0,1,.2,1.2h0.1a5,5,0,0,0-.2-1.2,2.9,2.9,0,0,1-.2-1.2h0.1a2.2,2.2,0,0,1,.5,1.4,4.6,4.6,0,0,0,.2.9h0.1a4.4,4.4,0,0,1-.1-0.8,2.3,2.3,0,0,0-.5-1.5H48a2.6,2.6,0,0,1,.8,1.4L49,14.7h0.1a0.1,0.1,0,0,0,0-.1L48.9,14a2.6,2.6,0,0,0-.9-1.5h0a0.4,0.4,0,0,1,.1-0.3h0.1l0.3,0.3a3.3,3.3,0,0,1,1.1,1.8h0.1a3.2,3.2,0,0,0-1.1-1.8H48.6l-0.2-.2h0a2.9,2.9,0,0,1,1,.4h0.1l0.2,0.2h0L49.8,13h0.1v0h0L50,13.9h0a1.7,1.7,0,0,0,.1.5H49.9v0.3a0.9,0.9,0,0,1,.1.7h0.1a1,1,0,0,0-.1-0.7h0l0.2,0.2a1.5,1.5,0,0,1,.2.7c0,0.2,0,.4,0,0.6h0a1.5,1.5,0,0,0-.3,1h0.1a1.4,1.4,0,0,1,.2-0.8c0,0.3,0,.6.1,0.8h0a1,1,0,0,0,.1.4,6.3,6.3,0,0,1,0,1.7,31.6,31.6,0,0,0-.1,4.9,6.7,6.7,0,0,1,0,.7c0,0.1,0,.2,0,0.4h0a7.6,7.6,0,0,0,.2,1.7v0.4a0.1,0.1,0,0,0,0,0h0a11.8,11.8,0,0,1,.1,2.2c0,0.2,0,.4,0,0.5s0,1.1-.1,1.2h0l-1.9.9-1.3.6-1.5.9a14.2,14.2,0,0,1-2.3,1.2h0l0.3-.6h0a1,1,0,0,0-.4.7l-0.3.6h0.1l0.2-.5a4.1,4.1,0,0,1,0,.5H44l0.8-1.1,1,0.2h0l0.7-1.3,1,0.3h0l0.7-1.2,1.2,0.4h0l0.6-1.1L51,32.5h0V32.4c0-.2,0-0.5,0-0.7h0c0-.1,0-0.5.1-0.8h0a2.8,2.8,0,0,1,.1.5h0.1a2.8,2.8,0,0,0-.1-0.5,2.2,2.2,0,0,1-.1-0.7h0c0-.3,0-0.7,0-1.1h0.1a3.1,3.1,0,0,0-.2-1.1h0V27.2a5.9,5.9,0,0,1-.2-1.1h0a1.7,1.7,0,0,1,.1.5H51a1.9,1.9,0,0,0-.1-0.5l-0.2-.6c0-.2,0-0.3,0-0.5a7,7,0,0,0,0-.7c0-.2,0-0.4,0-0.6a5.3,5.3,0,0,1,.2.9h0.1a3.9,3.9,0,0,0-.3-1.3h0c0-.3,0-0.6,0-1h0.1a0.9,0.9,0,0,1,0-.4,2.3,2.3,0,0,0,0-.4V21.4a0.8,0.8,0,0,0-.1-0.6h0a13.4,13.4,0,0,1,.1-1.3,4.9,4.9,0,0,0,.1-1.2v0.4H51a3.5,3.5,0,0,0-.2-0.7V17.4a11.4,11.4,0,0,1-.1-1.8,1.3,1.3,0,0,0,0-.3v0.3h0.1a1.6,1.6,0,0,0-.4-0.7H50.4a2.3,2.3,0,0,1-.2-0.7,1.9,1.9,0,0,0-.1-0.5h0.2l-0.2-.4-0.4-.5a1.3,1.3,0,0,1,.6.6h0.1a2,2,0,0,0-1.2-.9H49.1a2,2,0,0,1,1.4.8h0.1a2.4,2.4,0,0,0-2-.9H48.2l0.2-.4h0.1a0.1,0.1,0,0,1,0,0h0.1l0.3-.3h0a0.8,0.8,0,0,0,.6.6h0.1a2.7,2.7,0,0,1,.3-1.3,1.3,1.3,0,0,0,.1-1,1,1,0,0,0-.4-0.5,0.5,0.5,0,0,0,.2-0.3V8.3h0V8l0.3-.2h0a0.6,0.6,0,0,0,.1-0.4h0V6.9h0.2V6.7H50.7c0.7-1.2,1-1.8.7-2.6H51.3c-0.9.3-1.1,1-1.6,2.4H49.5V6.4h0a0.5,0.5,0,0,0-.3.4H48.9a0.5,0.5,0,0,0,.1.4,0.4,0.4,0,0,0-.1.3V8h0a0.5,0.5,0,0,0-.1.3,1.2,1.2,0,0,0-1.2,1.1h0a2.7,2.7,0,0,1-.6,1.3h0.1l0.5-.2h0.1a1.7,1.7,0,0,1,0,.3h0l-0.3.6a0.9,0.9,0,0,1-.7-0.4c0-.3,0-0.6.1-1a1.4,1.4,0,0,0,.5-0.6V9.6a2,2,0,0,0,.3-2.2L48,7.2a0.9,0.9,0,0,0,.1-0.9V6.2L49.5,5h0a0.5,0.5,0,0,0,0-.7L49,4.1H48.6L47.3,5.7h0L48,4.3h0a0.5,0.5,0,0,0,0-.4l-0.3-.3H47.2l-0.3.3h0L46.3,6a1.6,1.6,0,0,0-.9-0.1c-0.8.1-2.1,0.5-2.2,1.1a0.3,0.3,0,0,0,0,.2h0L43,7.6l-0.2.3a0.2,0.2,0,0,0,0,.3s0.1,0.1,0,.2H42.7a1.6,1.6,0,0,0-.5.9,0.2,0.2,0,0,0,.2.2h0a0.1,0.1,0,0,0,0,.1h0a0.2,0.2,0,0,0,0,.2h0.2a0.6,0.6,0,0,0-.1.5,0.5,0.5,0,0,0,.4.3h0.8a1.8,1.8,0,0,1,.2.8H43.6l-1.2.5H41.9a1.9,1.9,0,0,0-1,.2,3.1,3.1,0,0,0-1,1,6,6,0,0,1-.8,1.3l-0.8,1.2-0.3.4a1.9,1.9,0,0,0-.5,1.2v0.2H22.6L22,17.9l-0.7-.3H16A5.5,5.5,0,0,1,15,15V14.7a0.1,0.1,0,0,1,0-.1h0a6.7,6.7,0,0,0-1.2-2l-0.8-.4L12,11.6a1.2,1.2,0,0,0,.2-0.7h0.6a0.4,0.4,0,0,0,.4-0.6h0.2a0.5,0.5,0,0,1,0-.2h0l0.3-.2A0.5,0.5,0,0,0,13.5,9h0a0.4,0.4,0,0,1,0-.5,1.3,1.3,0,0,0,.1-0.9V7.5a0.6,0.6,0,0,0,.3-0.6A0.6,0.6,0,0,0,13,6.5,1.5,1.5,0,0,0,12,6.3a1.9,1.9,0,0,0-1.6-.2,1.6,1.6,0,0,0-.8,1.1,2.9,2.9,0,0,0-.4,2.6,0.8,0.8,0,0,0-.4.8,0.5,0.5,0,0,0,.4.4,0.9,0.9,0,0,0,.8-0.3L9.8,11h0a5.6,5.6,0,0,1-1.7.7L4.6,4.5A0.4,0.4,0,0,0,4.7,4H3.9a0.7,0.7,0,0,0-.3.4,0.3,0.3,0,0,0,0,.2H4l-0.3.5C2.8,6.7.9,9.4,0.9,11.1a3.7,3.7,0,0,0,1,2l0.3,0.5a10.3,10.3,0,0,1-.4,1.9,8.7,8.7,0,0,0-.5,3.3,6.5,6.5,0,0,0,1.9,2.7,4.7,4.7,0,0,1,1,1.2c0.3,1,.5,1.4.7,1.4H5a0.7,0.7,0,0,0,.6-0.8,1,1,0,0,1,.2-0.5h0V22.6a3.4,3.4,0,0,1-.8-1.1,8.9,8.9,0,0,1,.5-2.5V18.6l1.2-.2L8,17.9a3.4,3.4,0,0,0,.8,1.4,16,16,0,0,1-.6,1.5,18.9,18.9,0,0,0-.9,2.6,19.4,19.4,0,0,0-.1,3.2,13.2,13.2,0,0,1-.2,3,7.6,7.6,0,0,0-.3,1.9c0,0.2,0,.4,0,0.5s0.1,4.2.2,5.1h0a0.1,0.1,0,0,0,0,.1H6.8a0.1,0.1,0,0,0,0,.1H6.7a0.1,0.1,0,0,0,0,.1H6.6a0.1,0.1,0,0,0,0,.1l-0.2-.2,0.3-.2H6.4a0.1,0.1,0,0,0,0,.1H6.3a0.1,0.1,0,0,0,0,.1H6.2a0.1,0.1,0,0,0,0,.1V37.4l0.2-.2H6a0.1,0.1,0,0,0,0,.1H5.5a0.1,0.1,0,0,0,0,0H5.5a0,0,0,0,0,0,0H5.1V35.9H5.2V35.5l-0.3.3H5V35.3l-0.3.2H4.8V35.1l-0.3.2h0V35H4.5V34.8H4.4V34.6H4.3V34.3H4.1V34.1H4V33.8H3.8V33.7H3.7l-0.2-.2h0l0.2,0.2H3.8v0.2H4.3v0.2H4.4l-0.2.2H4.5l-0.2.2H4.7l-0.3.2H4.9l-0.4.2H5.6V37.1H6.1l0.2-.2L6.5,38h0a0.3,0.3,0,0,0,.2-0.2l0.2,0.2H6.6a0.1,0.1,0,0,0,0,.1H6.9a0.1,0.1,0,0,0,0,.1H7.3l0.2-.2H7.6a0.6,0.6,0,0,0,.2-0.4l0.4,0.3h-1a0.1,0.1,0,0,0,0,.1H6.9a0.1,0.1,0,0,0,0,.1H7.6l0.2-.2H7.9l0.2-.2H8.3a1.1,1.1,0,0,0,.2-0.5H8.6l-0.2.3h0a0.2,0.2,0,0,0,0,.1H7.3a0.1,0.1,0,0,0,0,.1H7a0.1,0.1,0,0,0,0,0H6.8a0.1,0.1,0,0,0,0,.1H8V41.4H8.2a0.2,0.2,0,0,0,.2-0.2H8.5A0.4,0.4,0,0,0,8.7,41H9.4a0.5,0.5,0,0,0-.4.1H8.1a0.1,0.1,0,0,0,0,.1H7.9a0.1,0.1,0,0,0,0,0H9V42H9.2a0.3,0.3,0,0,0,.2-0.2H9.4a0.4,0.4,0,0,0,.2-0.4v0.2H9.9V41.4l0.2,0.2h0.1a1.2,1.2,0,0,0,.1-0.6L11,41.1H10.9c-0.4,0-.4.1-0.4,0.1l0.2,0.2a0.5,0.5,0,0,0-.5.2l0.2,0.2a0.5,0.5,0,0,0-.4.2H9.2a0.1,0.1,0,0,0,0,.1H9a0.2,0.2,0,0,0,0,0H8.9a0.1,0.1,0,0,0,0,0h1.2V42.7h0.2V42.5h0.2a0.7,0.7,0,0,0,.1-0.4l0.2,0.2H11a0.8,0.8,0,0,0,.1-0.4L11.3,42h0.1a1.2,1.2,0,0,0,0-.7l0.8,0.3a0.7,0.7,0,0,0-.6.2l0.2,0.2a0.5,0.5,0,0,0-.5.2l0.2,0.2a0.5,0.5,0,0,0-.4.3h0.1l-0.3.2h0.2V43.5h0.2a0.4,0.4,0,0,0,0-.2h0.2a0.5,0.5,0,0,0,0-.3h0.2a0.7,0.7,0,0,0,.1-0.4H12l-0.8,1.2-0.9,1.4a0.9,0.9,0,0,0,0,1,1.9,1.9,0,0,0,1.6.9l0.6-.2a2.6,2.6,0,0,0,.8-1.1l0.4,0.3a4.8,4.8,0,0,0,2.4,1,1.1,1.1,0,0,0,1-.6,1.3,1.3,0,0,0,0-.7c0-.2,0-0.3,0-0.5h0.2a0.5,0.5,0,0,0,0-.4h0.3a0.7,0.7,0,0,0,0-.4h0.3a1,1,0,0,0,0-.7L18,44.2h0.1a0.8,0.8,0,0,0,0-.4h0.3c0,0.1.1,0.2,0.3,0.2a0.7,0.7,0,0,0-.6.4l0.2,0.2a0.5,0.5,0,0,0-.4.3l0.2,0.2a0.4,0.4,0,0,0-.3.2H18l-0.3.2h0.1l-0.2.2h0a0.1,0.1,0,0,0,0-.1h0.1a0.1,0.1,0,0,0,0-.1h0.1a0.2,0.2,0,0,0,0-.2H18a0.2,0.2,0,0,0,0-.2h0.2a0.3,0.3,0,0,0,0-.2h0.2a0.4,0.4,0,0,0,0-.3h0.2a0.5,0.5,0,0,0,0-.4h0.3a0.7,0.7,0,0,0,0-.5h0.3a1,1,0,0,0,0-.7l0.3,0.2h0.1a1.1,1.1,0,0,0,0-.6h0L19.9,44v0.2c0,0.1.1,0.2,0.3,0.2a0.8,0.8,0,0,0-.6.4l0.2,0.2a0.5,0.5,0,0,0-.4.2v0.2l-0.4.2v0.2l-0.3.2H19l-0.2.2h0.1a0.2,0.2,0,0,0,0-.1H19a0.2,0.2,0,0,0,0-.1h0.4a0.3,0.3,0,0,0,0-.2h0.2a0.4,0.4,0,0,0,0-.3h0.2a0.5,0.5,0,0,0,0-.4h0.3a0.7,0.7,0,0,0,0-.4l0.2,0.2h0.1a1.1,1.1,0,0,0,.1-0.7L20.8,45H21a1.1,1.1,0,0,0,.1-0.7l0.3,0.3h0.1V44.3h0.3a0.7,0.7,0,0,0-.5.4h0.3a0.7,0.7,0,0,0-.5.4h0.2a0.5,0.5,0,0,0-.4.2v0.2l-0.3.2h0.1l-0.2.2H20.4a0.1,0.1,0,0,0,0-.1h0.1a0.1,0.1,0,0,0,0-.1h0.1a0.2,0.2,0,0,0,0-.1H21a0.3,0.3,0,0,0,0-.2h0.2a0.4,0.4,0,0,0,0-.2h0.2a0.5,0.5,0,0,0,0-.3h0.3a0.6,0.6,0,0,0,0-.4h0.3a1,1,0,0,0,.1-0.6l0.2,0.2h0.1a1,1,0,0,0,0-.6l0.3,0.2H23a0.6,0.6,0,0,0-.5.3l0.2,0.2a0.6,0.6,0,0,0-.5.3h0.1l-0.3.2v0.2l-0.3.2h0.4a0.3,0.3,0,0,0,0-.2h0.2a0.4,0.4,0,0,0,0-.3h0.2a0.5,0.5,0,0,0,.1-0.3H23a0.9,0.9,0,0,0,.1-0.5l0.2,0.2h0.1a0.9,0.9,0,0,0,.1-0.5l0.2,0.2h0.3a0.5,0.5,0,0,0-.5.2L23.6,46a0.5,0.5,0,0,0-.5.2h0.1l-0.3.2h0.2V47.2h0.2a0.4,0.4,0,0,0,0-.2h0.2a0.5,0.5,0,0,0,.1-0.3h0.2a0.8,0.8,0,0,0,.1-0.4l0.2,0.2h0.1a0.8,0.8,0,0,0,.1-0.4l0.2,0.2h0.2a0.5,0.5,0,0,0-.4.2v0.2a0.5,0.5,0,0,0-.4.2H23.3a0.1,0.1,0,0,0,0,.1H23.1a0,0,0,0,0,0,0h1.2V47.5h0.2a0.4,0.4,0,0,0,.1-0.2h0.2a0.8,0.8,0,0,0,.1-0.4v0.2h0.1a0.7,0.7,0,0,0,.1-0.4l0.2,0.2h0.1a0.3,0.3,0,0,0-.4.1v0.2a0.4,0.4,0,0,0-.4.1H24.1a0.1,0.1,0,0,0,0,.1H23.9a0.1,0.1,0,0,0,0,0H23.8a0.1,0.1,0,0,0,0,0h1.1V48h0.1a0.2,0.2,0,0,0,.2-0.2h0.1a0.4,0.4,0,0,0,.2-0.4h0.2V47.5h0.1a0.3,0.3,0,0,0-.3.2h0.1l-0.3.2H25a0.1,0.1,0,0,0,0,0H24.8a0,0,0,0,0,0,0h1.1V48.4h0.2V48.2h0.2V47.9h0.2a0.7,0.7,0,0,0,.1-0.4,1.2,1.2,0,0,1,.1.5H27a1.3,1.3,0,0,0,.2-0.5h0L27,47.3a0.7,0.7,0,0,0,.6-0.2H27.4l0.3-.2H27.6l0.3-.2h0.1l0.3,0.2H28L28.3,47H28.2a0.7,0.7,0,0,0,.6.2l-0.2.4h0a1.2,1.2,0,0,0,.2.5h0.1a1.2,1.2,0,0,1,.1-0.5,0.7,0.7,0,0,0,.1.4h0.2v0.3h0.2v0.3h0.2v0.2h1.1a0.1,0.1,0,0,0,0,0H30.7a0,0,0,0,0,0,0H30.1l-0.3-.2h0.1a0.3,0.3,0,0,0-.3-0.2h0.1v0.1h0.2a0.4,0.4,0,0,0,.2.4h0.1a0.2,0.2,0,0,0,.2.2h0.1v0.2h1.1a0.1,0.1,0,0,0,0,0H31.9a0.1,0.1,0,0,0,0,0H31.7a0.1,0.1,0,0,0,0-.1H31.6a0.1,0.1,0,0,0,0,0H30.9a0.4,0.4,0,0,0-.4-0.1V47a0.3,0.3,0,0,0-.4-0.1h0.1l0.2-.2a0.8,0.8,0,0,0,.1.4h0.1V46.9a0.7,0.7,0,0,0,.1.4h0.2v0.2h0.2v0.2h1a0.1,0.1,0,0,0,0,0H32.4a0.1,0.1,0,0,0,0-.1H31.6a0.4,0.4,0,0,0-.4-0.2V46.4a0.5,0.5,0,0,0-.4-0.2h0.2l0.2-.2a0.8,0.8,0,0,0,.1.4h0.1l0.2-.2a0.8,0.8,0,0,0,.1.4H32a0.5,0.5,0,0,0,.1.3h0.2a0.4,0.4,0,0,0,0,.2h0.2v0.2h0.2l-0.3-.2h0.1a0.5,0.5,0,0,0-.5-0.2l0.2-.2a0.5,0.5,0,0,0-.5-0.2H32l0.2-.2a0.9,0.9,0,0,0,.1.5h0.1l0.2-.2a0.8,0.8,0,0,0,.1.5H33a0.6,0.6,0,0,0,.1.3h0.2a0.4,0.4,0,0,0,0,.3h0.2a0.3,0.3,0,0,0,0,.2H34l-0.3-.2V46l-0.3-.2h0.1a0.6,0.6,0,0,0-.5-0.3l0.2-.2a0.6,0.6,0,0,0-.5-0.3h0.3l0.3-.2a1,1,0,0,0,0,.6h0.1l0.2-.2a0.9,0.9,0,0,0,.1.6h0.3a0.6,0.6,0,0,0,0,.4h0.3a0.4,0.4,0,0,0,0,.3h0.2a0.4,0.4,0,0,0,0,.2h0.2a0.3,0.3,0,0,0,0,.2h0.3a0.2,0.2,0,0,0,0,.1h0.1a0.1,0.1,0,0,0,0,.1h0.1a0.1,0.1,0,0,0,0,.1H35.2L35,46.2h0.1l-0.3-.2V45.7a0.5,0.5,0,0,0-.4-0.2h0.2a0.7,0.7,0,0,0-.5-0.4h0.3a0.7,0.7,0,0,0-.6-0.4c0.3-.1.3-0.1,0.3-0.2h0a0.5,0.5,0,0,0,0,.3h0.1l0.3-.3a1.1,1.1,0,0,0,.1.7h0.1l0.3-.2a1.1,1.1,0,0,0,.1.7h0.1l0.2-.2a0.7,0.7,0,0,0,.1.4h0.3a0.5,0.5,0,0,0,0,.4h0.2a0.4,0.4,0,0,0,0,.3h0.2a0.3,0.3,0,0,0,0,.2h0.4a0.2,0.2,0,0,0,0,.1h0.1a0.2,0.2,0,0,0,0,.1h0.1L36.7,46h0.1l-0.3-.2V45.6l-0.4-.2V45.2a0.5,0.5,0,0,0-.4-0.2l0.2-.2a0.8,0.8,0,0,0-.6-0.4c0.2,0,.3-0.1.3-0.2V44l0.3-.2a1.1,1.1,0,0,0,0,.7h0.1l0.3-.2a1,1,0,0,0,0,.7h0.3a0.7,0.7,0,0,0,0,.5h0.3a0.5,0.5,0,0,0,0,.4h0.2a0.4,0.4,0,0,0,0,.3h0.2a0.3,0.3,0,0,0,0,.2h0.2a0.3,0.3,0,0,0,0,.2h0.2a0.2,0.2,0,0,0,0,.2H38a0.1,0.1,0,0,0,0,.1h0.1a0.2,0.2,0,0,0,0,.1h0.3a1.1,1.1,0,0,0,1,.5,4.8,4.8,0,0,0,2.4-1h0.4a2.5,2.5,0,0,0,.7,1.1l0.6,0.2a1.9,1.9,0,0,0,1.6-.9,0.9,0.9,0,0,0,0-1l-0.9-1.4-0.9-1.3a0.8,0.8,0,0,0-.6-0.3h0.1a0.7,0.7,0,0,0-.6-0.2l1-.3a1.3,1.3,0,0,0-.1.7h0.1l0.2-.2a0.8,0.8,0,0,0,.1.4h0.3a0.7,0.7,0,0,0,.1.4h0.2a0.5,0.5,0,0,0,0,.3h0.2a0.4,0.4,0,0,0,0,.2h0.2v0.2h0.2l-0.3-.2h0.1a0.5,0.5,0,0,0-.4-0.3l0.2-.2a0.5,0.5,0,0,0-.5-0.2l0.2-.2a0.7,0.7,0,0,0-.6-0.2l0.8-.3a1.2,1.2,0,0,0,0,.7h0.1l0.2-.2a0.8,0.8,0,0,0,.1.4h0.1l0.2-.2a0.7,0.7,0,0,0,.1.4h0.2a0.4,0.4,0,0,0,.1.3h0.2v0.2h1.2a0.1,0.1,0,0,0,0,0H46.7a0.1,0.1,0,0,0,0,0H45.8a0.5,0.5,0,0,0-.4-0.2l0.2-.2a0.5,0.5,0,0,0-.5-0.2l0.2-.2s0-.1-0.4-0.1H44.8l0.6-.3a1.2,1.2,0,0,0,.1.6h0.1l0.2-.2v0.3h0.1V41.6a0.4,0.4,0,0,0,.2.4h0.1a0.2,0.2,0,0,0,.2.2h0.1v0.2H48a0.1,0.1,0,0,0,0-.1H47.9a0.1,0.1,0,0,0,0,0H47.8a0,0,0,0,0,0,0H47.6a0.1,0.1,0,0,0,0-.1H46.8a0.4,0.4,0,0,0-.4-0.1h0V41.1a0.4,0.4,0,0,0-.4-0.1h0.3v0.3H47a0.4,0.4,0,0,0,.2.3h0.1a0.3,0.3,0,0,0,.2.2h0.1v0.2h1.2a0.1,0.1,0,0,0,0-.1H48.7a0.1,0.1,0,0,0,0,0H48.4a0.1,0.1,0,0,0,0-.1H47.7a0.3,0.3,0,0,0-.3-0.1h0a0.3,0.3,0,0,0-.3-0.1h0a0.7,0.7,0,0,0,0-.4h0.1a1.1,1.1,0,0,0,.2.5h0.2l0.2,0.2h0.1l0.2,0.2h0.7a0.1,0.1,0,0,0,0-.1H48.6a0.1,0.1,0,0,0,0-.1h-1l0.4-.3a0.6,0.6,0,0,0,.2.4h0.1l0.2,0.2h0.5a0.1,0.1,0,0,0,0-.1H48.4a0.1,0.1,0,0,0,0-.1H48.2l0.3-.2V39h0.5a0.1,0.1,0,0,0,0-.1H48.8l0.3-.3a0.3,0.3,0,0,0,.2.2h0l0.2-.2L49.6,38H50v0.2h1.1l-0.4-.2h0.5L51,35.6h0.4l-0.2-.2h0.3l-0.2-.2h0.3V34.9h0.6V33.9h0.2Zm-9-3.7c0,0.1,0,.1,0,0.2h0V30.3h0.1Zm-0.2.6H43V30.8h0.1Zm0-.5h0Zm0-.4h0V29.7h0v0.3h0Zm0-.8v0.2h0V29.2h0Zm7.7-7.7V21.1a1.1,1.1,0,0,1,0,.3h0ZM4.4,34.8h0ZM4.5,35h0Zm38.3-5.4h0c0-.1,0-0.2,0-0.3h0v0.2h0Zm0-.5h0Zm0-.7h0v0.2H42.7V28.5h0Zm-0.2,1V28.9h0.1c0,0.1,0,.1,0,0.2h0v0.2h0c0,0.6,0,1.2,0,1.2h0.1s0-.3,0-0.6h0a0.1,0.1,0,0,0,0,.1h0a11.4,11.4,0,0,1-.1,2.1h0V32H42.6v0.4H42.5a17.3,17.3,0,0,0,.1-2.9h0Zm0.1,3a7.3,7.3,0,0,1-.3,3.3,5.4,5.4,0,0,0-.3,2.8,1.1,1.1,0,0,1,0,.5,0.9,0.9,0,0,1-.6.3l-0.6.2-0.3.4a1,1,0,0,1-.7.5H39.5l0.2-.2a0.1,0.1,0,0,0,0-.1H39.5l-0.2.2v0.2H39.1l0.2-.3a0.1,0.1,0,0,0,0-.1H39.2l-0.2.2h0l0.3-.2a0.1,0.1,0,0,0,0-.1h0a0.1,0.1,0,0,0,0-.1h0.2a4.4,4.4,0,0,1,.9-1l0.3-.4a6.5,6.5,0,0,0,0-3.1,17.9,17.9,0,0,1-.2-3.1h2.2Zm-1.6,8.8H41a0.6,0.6,0,0,0,.2-0.4H40.9a0.7,0.7,0,0,0,.2-0.5H40.9A0.4,0.4,0,0,0,41,40h0l0.5-.2h0v0.2H41.5a0.4,0.4,0,0,0,.1.3H41.5a0.6,0.6,0,0,0,.2.4H41.4a0.6,0.6,0,0,0,.2.4H41.4a1.1,1.1,0,0,0,.5.6H41.3a0.5,0.5,0,0,0,0-.1V41.4H41.1Zm0.2,0.8h0.6v0.3H41.5l-0.2-.2V42.1h0Zm-1-1.3H40.1v0.2h0Zm-0.9,0h0.3l-0.3.2h0Zm-0.1-.2h0Zm0.8-11.7c0,0.1,0,.2,0,0.3s0,0.8,0,1.1a8.9,8.9,0,0,1-.1,1.5h0.1a18.7,18.7,0,0,0,.1-2.7V28.7h0V28.3h0c0,1.5,0,3.1-.1,3.7h0.1a18,18,0,0,0,.2,3.1,6.6,6.6,0,0,1,0,3l-0.3.3-0.8.8H39.4V39H38.8v0.2H38.8v0.2H38.7a0.3,0.3,0,0,0,.2.3H38.7a0.5,0.5,0,0,0,.2.4H37.8a0.5,0.5,0,0,0,.2-0.4H37.7a0.4,0.4,0,0,0,.2-0.4H37.7a0.3,0.3,0,0,0,.1-0.3H37.7a0.3,0.3,0,0,0,.1-0.2H37.6V38.6H37.6V38.3H37.5a0.2,0.2,0,0,0,0-.1H37.2a0.2,0.2,0,0,0,0,.1H37.2v0.2H37.1v0.2H37.1V39H37a0.4,0.4,0,0,0,.1.3H37a0.4,0.4,0,0,0,.2.3H36.9a0.5,0.5,0,0,0,.2.4h-1a0.3,0.3,0,0,0,0-.2H35.9a0.4,0.4,0,0,0,.2-0.4H35.9a0.4,0.4,0,0,0,.1-0.3H35.8a0.3,0.3,0,0,0,.1-0.2H35.8a0.2,0.2,0,0,0,0-.2H35.7V38.6H35.6a0.2,0.2,0,0,0,0-.1H35.3v0.2H35.3v0.2H35.2v0.2H35.2a0.3,0.3,0,0,0,.1.3H35.2a0.4,0.4,0,0,0,.2.3H35.2a0.4,0.4,0,0,0,.1.3l-0.8.2a0.2,0.2,0,0,0,0-.2H34.2a0.4,0.4,0,0,0,.1-0.4H34.1a0.4,0.4,0,0,0,.1-0.3H34.1a0.3,0.3,0,0,0,0-.2H34a0.2,0.2,0,0,0,0-.2H33.9a0.2,0.2,0,0,0,0-.2H33.9A11.3,11.3,0,0,0,37,35.1ZM33.6,41l-0.8.3a0.4,0.4,0,0,0,.1-0.3H32.7a0.3,0.3,0,0,0,.1-0.2H32.6a0.2,0.2,0,0,0,0-.2H32.5a0.2,0.2,0,0,0,0-.1H32.4l1.1-.7H33.5v0.2H33.4v0.2H33.5l0.2,0.3H33.5a0.4,0.4,0,0,0,.2.3H33.5a0.3,0.3,0,0,0,.1.3h0Zm-0.7-5.6a0.6,0.6,0,0,1-.7-0.1,0.6,0.6,0,0,1-.1-0.7l1.4-1.3h0.1l0.6,0.6-1.4,1.4h0Zm-0.9-4.7,1-1,0.8,0.8-0.4.4v0.2H33.4l3.2,3.1a0.6,0.6,0,0,1-.1.6,0.6,0.6,0,0,1-.6.1l-3.3-3.3h0l-0.4.4-0.4-.4a1,1,0,0,0,.3-1h0ZM36.4,32l-0.9.8-0.7-.7,0.8-.8H35.5V30.6H35.5l0.5-.5h0.8l0.9,0.9-0.2.6H37.5l0.2,0.2-0.5.5-0.3-.3H36.4ZM40.5,28h0l0.2-.4c0,0.4,0,.9,0,1.4s0,2.6-.1,3H40.6V31.6H40.5v0.3H40.5c0.1-.7.1-2.4,0.1-3.9h0Zm0.7-1.6h0c0,0.2,0,.4,0,0.4h0.1s0-.4,0-0.7h0c0,0.5,0,1.1,0,1.7s0,3.6-.1,4.4H41.3V31.7H41.2v0.3h0c0.1-.6.1-2.4,0.1-4.1s0-1.1,0-1.5h0Zm0.5-1.1h0v0.2h0Zm1.1-.5v0.4H42.8V24.8h0Zm-0.6,1.8a4.8,4.8,0,0,1,.6-1.3h0v0.2H42.8l-0.2.5-0.3.7h0Zm0,0.5h0Zm-0.1-1.3H42.1v0h0Zm0-.6H42.1V25.1h0.1Zm-0.1,1.8V26.3h0v0.3h0c0,0.7,0,1.5,0,2.2a26.5,26.5,0,0,1-.1,3.4H42V31.9H41.9v0.3H41.8a45.6,45.6,0,0,0,.1-5.2c0-.5,0-1,0-1.4h0v0.2h0v1.1h0.1Zm-0.2-2h0v0.2h0Zm-4.5,9.2a13.6,13.6,0,0,0,.9-4.1l1.9-3.8h0L41.3,24h0L43,20.6h0.8L37.4,34.2h0ZM40.7,25h0Zm0.1-.3h0Zm0.5-1.1h0l0.4-.8h0l-0.4.8h0Zm0.5-1.1c0-.2.1-0.5,0.1-0.7h0a0.3,0.3,0,0,1,0,.3,0.1,0.1,0,0,0,0,0l-0.2.4h0ZM48.2,12a0.6,0.6,0,0,0-.3.4,0.3,0.3,0,0,1-.2.2H47.7L48,12h0.1Zm-1-1.2H47V10.2h0V9.7a1.1,1.1,0,0,1,1.1-1.1h0.5l0.2,0.2h0l0.3,0.3h0V9.5a1.1,1.1,0,0,1-.1.9,3.2,3.2,0,0,0-.4,1.3l-0.3-.2-0.2-.4H48.8l-0.2.2a0.6,0.6,0,0,1,0-.1H48.4l-0.2.4h0V10.8H47.7l-0.2-.5-0.3.2h0Zm0.4,0.5h0A0.4,0.4,0,0,0,48,11h0v0.4l-3.4,7.3H44.4l-0.4-.2H44l3.6-7.3h0Zm-3,3.6H45a2.2,2.2,0,0,1,.1.5,1.1,1.1,0,0,0,.1.5h0v0.2h0l-0.3.5h0v0.3a5.6,5.6,0,0,0-.1-1,2.6,2.6,0,0,1-.1-0.8h0Zm0.9-.2h0a0.3,0.3,0,0,1,.1-0.2,0.4,0.4,0,0,1,0,.2,0.8,0.8,0,0,0,0,.3h0V15h0v0.6a1.3,1.3,0,0,1-.1-0.4,2.6,2.6,0,0,0-.1-0.5h0.3Zm0.2-.4h0.2l-0.2.4a1,1,0,0,1,0-.2,0.5,0.5,0,0,0,0-.3h0ZM46,14h0Zm2.3-8.7h0.3a0.4,0.4,0,0,0,.1-0.3h0.6a0.4,0.4,0,0,1,.1.3V4.9H47.7l0.6-.6h0ZM47.6,6h0ZM47.1,5h0.1a0.4,0.4,0,0,0-.1-0.4H47.1l0.2-.2h0.3L47.8,4a0.4,0.4,0,0,1,0,.3H47.5l-0.2.2H47.1V5.6H46.8L47.1,5h0Zm0.3,1.1,0.3,0.3H48a0.7,0.7,0,0,1-.1.7l-0.4.2H47V7.3a1,1,0,0,1-.8.7H46.1a1.4,1.4,0,0,1-1.2.1h0.4a2.3,2.3,0,0,0,1-.3,0.1,0.1,0,0,0,0-.1H46.3s-1.1.7-1.6,0h0a1.3,1.3,0,0,0,.8.2h0.2a1.3,1.3,0,0,1-1-.3h0a2,2,0,0,0,1.1.3h0A1.9,1.9,0,0,0,47,7.1h0a0.4,0.4,0,0,0,0-.2H46.8l-0.3-.3H46.5a0.9,0.9,0,0,1,.9,0h0ZM46.7,8.5a1.5,1.5,0,0,1-.9.8h0V9.1h0a1.5,1.5,0,0,0,.8-0.5h0Zm-0.8.4h0a1.4,1.4,0,0,0,.8-0.5,1.3,1.3,0,0,1-.8.6h0Zm0.7-.7a1.4,1.4,0,0,1-.7.5H45.6l0.6-.2h0l0.5-.2V8.2h0Zm0.2-.1h0L47,7.9l-0.2.4H46.8a0.1,0.1,0,0,0,0-.1h0Zm-1.4.3H45a1.3,1.3,0,0,0,0-.2h0.3Zm1.4-1.7H46.7a1.6,1.6,0,0,1-1.5.1H44.8a2.8,2.8,0,0,1,1.9-.2h0.3a0.3,0.3,0,0,1,0,.2h0a1.7,1.7,0,0,1-1.2.4h0A1.6,1.6,0,0,1,44.5,7a0.6,0.6,0,0,1,.7,0,1.7,1.7,0,0,0,1.6-.2,0.1,0.1,0,0,0,0-.1h0Zm-0.5-.5h0.3a3.4,3.4,0,0,0-1.6.1l0.3-.2a1.3,1.3,0,0,1,.8-0.1h0.2Zm-3,.8c0.1-.6,1.2-0.9,2.1-1h0.8a1.4,1.4,0,0,0-.9.1,2.7,2.7,0,0,0-.9.8h0a0.6,0.6,0,0,1-.6,0H43.6a0.1,0.1,0,0,0,0,.1H43.4a0.1,0.1,0,0,1,0-.1h0Zm-5.1,9.8,0.3-.5,0.8-1.1a6.2,6.2,0,0,0,.8-1.3,2.9,2.9,0,0,1,.9-0.9,1.7,1.7,0,0,1,.9-0.2h0.6l1.1-.5h0.4a2.5,2.5,0,0,0-.2-0.9l0.8-.3H44.6l-0.9.3H42.9l-0.3-.2a0.4,0.4,0,0,1,.1-0.4h0l0.5-.3H43.2a0.8,0.8,0,0,0-.5-0.2H43a0.3,0.3,0,0,0,.2-0.4,0.3,0.3,0,0,0-.4-0.2h0.3a0.2,0.2,0,0,1-.1.2H42.4a1.6,1.6,0,0,1,.4-0.8h0.1c0.1-.2.1-0.3,0-0.4s-0.1-.1,0-0.2l0.2-.3,0.3-.4h0.3a0.8,0.8,0,0,0,.7,0h0.1a1.6,1.6,0,0,1,.2.8h0l0.2,0.2h0a0.6,0.6,0,0,1,0,.2h0a0.3,0.3,0,0,0,.4-0.1h0.4a0.7,0.7,0,0,1-.1.6l-0.3.4H45.1a0.4,0.4,0,0,1,0-.2H45a0.5,0.5,0,0,0,0,.4h0.1c-0.1,0-.1.1,0,0.4a4.9,4.9,0,0,1,0,1.6H44.9a0.5,0.5,0,0,0-.3.6h0.1l0.4-.2a0.9,0.9,0,0,0,.4-0.5,6,6,0,0,0,0-2.1H45.3l0.4-.4h0a1.5,1.5,0,0,0,1.1-.9l0.3-.4a1.4,1.4,0,0,1-.4.9H46.6a1.9,1.9,0,0,1-.8.5h0a1.9,1.9,0,0,0,.9-0.5h0.1a1.8,1.8,0,0,0,.5-1.5,1.4,1.4,0,0,1-.1,1.1,0.1,0.1,0,0,0,0,.1h0.1a1.4,1.4,0,0,0,.1-1.2,1.8,1.8,0,0,1-.3,1.8V9.7a1.4,1.4,0,0,1-.4.5H46.4c0,0.4,0,.7-0.1,1h0a3.7,3.7,0,0,1-.3,1h0.1a3.7,3.7,0,0,0,.2-0.9l0.6,0.3-0.9,1.9H46.1a0.3,0.3,0,0,0-.3.2H45.7a0.4,0.4,0,0,0-.3.4H45.2a0.3,0.3,0,0,0-.4.1H44.6a0.2,0.2,0,0,0-.2.1,0.3,0.3,0,0,1-.3.1H42.8a0.3,0.3,0,0,0-.4.1h0a5.3,5.3,0,0,0,.1.9,2.3,2.3,0,0,1,0,1.4,0.1,0.1,0,0,0,0,.1h0.1a2,2,0,0,0,0-1.5,3.4,3.4,0,0,1-.1-0.9h0.3a6.8,6.8,0,0,0,.1,1.3,4,4,0,0,1,.1.9,0.1,0.1,0,0,0,0,.1h0.1a2.5,2.5,0,0,0-.1-1,5.2,5.2,0,0,1-.1-1.3,0.1,0.1,0,0,0,0,0h0.3a12,12,0,0,1,.2,2.3h0.1a12.6,12.6,0,0,0-.2-2.4h0.3a4.8,4.8,0,0,1,.2,1.4,4.1,4.1,0,0,0,.1.7h0.1a4.3,4.3,0,0,1-.1-0.6,5,5,0,0,0-.2-1.5h0.5a3.8,3.8,0,0,0,.1.7,4.5,4.5,0,0,1,.1,1.2h0l-0.7,1.5H43.6l-0.5.2h0V18.2H42.9v0.7a2.6,2.6,0,0,1-1.5-.6,3.4,3.4,0,0,0,.3-1.3,2.5,2.5,0,0,1,.2-1h0.2v0.9a4,4,0,0,1-.1,1.4H42a4.1,4.1,0,0,0,.1-1.5,2,2,0,0,1,.1-1h0.2a1,1,0,0,0-.8.2H41.5a1.2,1.2,0,0,1,.4-0.7,0.1,0.1,0,0,0,0-.1H41.8a2,2,0,0,0-.4.6H41.3l-0.2.2a1.1,1.1,0,0,0-.3.6H40.8a1.4,1.4,0,0,1-.5.5l-0.3.3h0a0.3,0.3,0,0,1-.2-0.3H39.7a0.5,0.5,0,0,0,.5.5,1.6,1.6,0,0,1,.7.4,2.8,2.8,0,0,0,1.9,1l0.3-.2h0l0.5-.2h0.1L44.3,19h0.7a0.1,0.1,0,0,1-.1.2H44.8l-0.3.2a0.1,0.1,0,0,0,0,.1h0.4v0.2l-0.2.2h0a0.2,0.2,0,0,1,0,.1H44.4a2.8,2.8,0,0,1-1.4,0H42.9l-0.6-.2-1.7-.4a6.2,6.2,0,0,1-2.3-1,1.4,1.4,0,0,1-.6-0.9,1.8,1.8,0,0,1,.5-1.1h0Zm4.8,2H42.9V18.6h0v0.2h0Zm-2.1-.8H40.8l0.2-.7a3.9,3.9,0,0,1,.4-1.2h0.2v1a3.5,3.5,0,0,1-.2,1.2H40.9Zm-0.2-.2H40.7a2.1,2.1,0,0,1,.2-0.9V16.6a1.1,1.1,0,0,1,.2-0.5,6.4,6.4,0,0,0-.3,1l-0.2.6h0ZM40.6,17a2.6,2.6,0,0,0-.1.6H40.1l0.2-.2,0.3-.2h0Zm-4.1,3.9a0.4,0.4,0,0,1,.4.4c0.2,0.1.2,0.1,0.2,0.4a0.4,0.4,0,0,1,.3.4,0.4,0.4,0,0,1,.2.4,0.3,0.3,0,0,1,.1.3,0.3,0.3,0,0,1,.1.4,0.8,0.8,0,0,1,0,.7,0.4,0.4,0,0,1,0,.5,0.5,0.5,0,0,1,0,.6c-0.1,0-.1.3-0.2,0s-0.1,0,0,.1a5.5,5.5,0,0,1-.2.7c0,0.4.1,0.9,0.1,1.1s0.1,0.3-.1.5l-0.3.2H36.3a2.6,2.6,0,0,1,.1-0.6V26.7a2.8,2.8,0,0,1,.1-0.4,1.3,1.3,0,0,0-.2-0.8H36.4a1,1,0,0,1-.1-0.4l-0.2-.3c-0.1-.1,0-0.2.1-0.3h0.1c-0.1-.1-0.2-0.1-0.1-0.3h0a0.2,0.2,0,0,1-.1-0.3h0.2l-0.3-2.3h0.3a0.4,0.4,0,0,1,.4.3h0Zm-1.4-2a0.9,0.9,0,0,1,.9.9,0.5,0.5,0,0,1-.6.5V19.8a0.4,0.4,0,0,0-.4-0.4H34.9a0.4,0.4,0,0,0-.1.3v0.5a0.5,0.5,0,0,1-.6-0.5,0.8,0.8,0,0,1,.8-0.9h0Zm-3.1,5c0.3-.1.3,0.1,0.4-0.1a0.5,0.5,0,0,1,.1-0.3c0.1-.1-0.2-0.1,0-0.4s0-.4,0-0.4a0.3,0.3,0,0,1,.1-0.4,0.3,0.3,0,0,1,.2-0.4h0a0.3,0.3,0,0,1,.1-0.4,0.4,0.4,0,0,1,.3-0.4,0.3,0.3,0,0,1,.3-0.3,0.3,0.3,0,0,1,.3-0.2,0.4,0.4,0,0,1,.4-0.1c0.1-.1,0-0.3.2-0.1H34.5L34.3,23h0.2s0.1,0.1.1,0h0c0.2,0.4-.2.2-0.1,0.4s-0.1.2-.1,0.3-0.1.1,0,.3a3.1,3.1,0,0,0,.1.5,2.4,2.4,0,0,1-.1.9c0,0.5,0,1.1,0,1.3s-0.1.1,0,.3-0.1.4-.4,0.4H34a0.6,0.6,0,0,1-.2-0.7c0-.3.1-0.6,0.1-0.8a3.6,3.6,0,0,0-.1-1.1V24.7H33.7s-0.1,0,0,0h0V25H33.4c0,0.4-.1.4-0.4,0.4s-0.2-1-.6-1.2-1.1-.2-0.4-0.5h0Zm-0.6,4.7h6.8V19a6.6,6.6,0,0,0,2.1,1,1.6,1.6,0,0,1-.2.5,0.8,0.8,0,0,0-.2.6h0l-0.2.2a1.8,1.8,0,0,0-.4.6h0.1a1.6,1.6,0,0,1,.4-0.6l0.4-.6H40.2V20.5a1.7,1.7,0,0,0,.2-0.6h0l0.9,0.2v0.9h0.1V20.6h0a2,2,0,0,1,0,.5h0.1a2.7,2.7,0,0,0,0-.7h0l0.6,0.2,0.6,0.2-0.7,1.3H42.2a0.4,0.4,0,0,1-.1-0.3H41.9v0.3a6.3,6.3,0,0,0-.1,1H41.7l-0.2.4h0l-0.3.6V24h0.1v0.3H40.9v0.3c0-.4,0-0.7.1-1h0.2V23.6a3.9,3.9,0,0,1,.5-1.2,0.1,0.1,0,0,0,0-.1H41.4a4.3,4.3,0,0,0-.5,1v0.1h0V23.1s0-.3,0-0.3a1.9,1.9,0,0,1,.3-0.7V21.9H41.1v0.2a2,2,0,0,0-.3,1.1h0.1v0.2h0c0,0.2,0,.5-0.1.9H40.6a9.1,9.1,0,0,0,0,.9h0a14.8,14.8,0,0,1,.2-2.3H40.5a10.2,10.2,0,0,0-.1,1.1H40.3a13.7,13.7,0,0,0,0,1.7h0a27.1,27.1,0,0,1,.1-3h0a2.6,2.6,0,0,1,.3-1l0.2-.4H40.8v0.2a2.8,2.8,0,0,0-.3.9h0a23.2,23.2,0,0,0-.2,3.6l-1.7,3.5V29.1H31.5V28.6h0Zm0,11.9h0l0.5-.2h0v0.2H32l0.2,0.2H32.1a0.4,0.4,0,0,0,.2.3H32.1a0,0,0,0,0,0,0l-0.6.2a0.2,0.2,0,0,0,0-.1H31.4a0.2,0.2,0,0,0,0-.2H31.3a0.2,0.2,0,0,0,0-.1H31.1a0.1,0.1,0,0,0,0-.1H31a0.1,0.1,0,0,0,0-.1H31l0.5-.2h0Zm-6.7.1-0.5-.2V29.1H17.4V28.6h6.8V18.3h7.1V40.4l-0.4.2H30.7a10.3,10.3,0,0,1-2.8.6H27.8a10.2,10.2,0,0,1-2.8-.6H24.8ZM29.9,42a0.1,0.1,0,0,0,0-.1H29.6a0.3,0.3,0,0,0,0,.1H26.1a0.5,0.5,0,0,0,0-.1H25.9a0.1,0.1,0,0,0,0,.1H25.8a0.1,0.1,0,0,0,0,.1H25.7a0.1,0.1,0,0,0,0,.1H25.7a0.2,0.2,0,0,0,0,.1L24.7,42l0.2-.2H24.8V41.6H25a10.8,10.8,0,0,0,2.8.6h0.1a10.6,10.6,0,0,0,2.8-.6h0.1v0.2H30.9V42l-0.9.2H30a0.1,0.1,0,0,0,0-.1H29.9Zm-5.2-1.1H24.6a0.1,0.1,0,0,0,0,.1H24.4a0.2,0.2,0,0,0,0,.1H24.3a0.2,0.2,0,0,0,0,.2H24.2a0.3,0.3,0,0,0,0,.2l-0.7-.2H23.4a0.4,0.4,0,0,0,.2-0.3H23.5l0.2-.2H23.6V40.6H23.6l1.1,0.5H24.7a0.1,0.1,0,0,0,0,.1h0Zm-1.2-9.5h0Zm-0.3,9H23.1a0.2,0.2,0,0,0,0,.2H23a0.3,0.3,0,0,0,.1.2H22.8a0.4,0.4,0,0,0,.1.3H22.7L22,41.1a0.4,0.4,0,0,0,.2-0.3H22a0.4,0.4,0,0,0,.2-0.3H22.1l0.2-.3H22.2V39.6h0l1,0.6H23.2a0.2,0.2,0,0,0,0,.1h0ZM22.9,32h0a1.1,1.1,0,0,1-.9.4v0.7a0.3,0.3,0,0,1,.2.2,0.5,0.5,0,0,1,0,.5,0.4,0.4,0,0,1-.1.2l0.4,0.7a1.6,1.6,0,0,1-1.4.4,2.2,2.2,0,0,1-1.4-.4L20,34a1,1,0,0,1-.1-0.3,0.7,0.7,0,0,1,.1-0.5c0.1-.1,0-0.2.2-0.2V32.3a1.6,1.6,0,0,1-.9-0.4h0a2.6,2.6,0,0,1-.5-0.9,0.3,0.3,0,0,1,0-.2c0-.1.1-0.4,0.3-0.4s0.2-.4.5-0.3,0.2-.3.5-0.2,0.3-.3.5-0.2a1,1,0,0,1,.6,0c0.3,0.2.4-.1,0.6,0.1a4.3,4.3,0,0,1,.6.2h0a2.1,2.1,0,0,1,.5.3,2,2,0,0,1,.4.4h0a2.6,2.6,0,0,1-.5.9h0Zm-1.1,7.5H21.6a0.3,0.3,0,0,0,0,.2H21.5a0.4,0.4,0,0,0,.1.3H21.4a0.4,0.4,0,0,0,.1.4H21.3a0.3,0.3,0,0,0,0,.3H21l-0.6-.2a0.5,0.5,0,0,0,.2-0.4H20.3a0.4,0.4,0,0,0,.2-0.3H20.4a0.3,0.3,0,0,0,.1-0.3H20.4V39.2H20.4V38.9H20.4V38.6H20.1a0.2,0.2,0,0,0,0,.1H19.9v0.2H19.9V39H19.8a0.3,0.3,0,0,0,.1.2H19.7a0.4,0.4,0,0,0,.1.3H19.6a0.4,0.4,0,0,0,.2.4H19.5a0.3,0.3,0,0,0,.1.3h-1a0.5,0.5,0,0,0,.2-0.4H18.5a0.4,0.4,0,0,0,.2-0.3H18.5a0.3,0.3,0,0,0,.1-0.3H18.5V38.8H18.5V38.6H18.5V38.3H18.1v0.2H18v0.2H18a0.3,0.3,0,0,0,.1.2H17.9a0.4,0.4,0,0,0,.1.3H17.8a0.4,0.4,0,0,0,.2.4H17.8a0.5,0.5,0,0,0,.2.4H16.9a0.5,0.5,0,0,0,.2-0.4H16.8a0.4,0.4,0,0,0,.2-0.3H16.8V39.3H16.8V39H16.6a0.1,0.1,0,0,0,0-.1H16.2v0.2H16.2v0.2H16L15.7,39h0a0.1,0.1,0,0,0,0-.1h0a0.3,0.3,0,0,0-.1-0.3h0a0.6,0.6,0,0,0-.2-0.4,10.7,10.7,0,0,1-.4-3,11.6,11.6,0,0,0-.3-1.7,25.6,25.6,0,0,1-.5-2.9,27.4,27.4,0,0,1,0-3.2c0-.5,0-1,0-1.3l3.7,7.5a11.7,11.7,0,0,0,2.9,4.8l1,0.9h0v0.2H21.7a0.2,0.2,0,0,0,0,.2h0Zm-5.5.8,0.3,0.3H16.3l-0.2-.2H16a0.4,0.4,0,0,0,.2.3H16.1a0.2,0.2,0,0,0,0,.2h0.2l-0.4-.2H15.8l-0.3-.3H15.3a1.5,1.5,0,0,0-.9-0.7l-0.3-.2h0V39.2l0.5-.3h1l0.3,0.5,0.4,0.3,0.3,0.2H16.4l0.2,0.2h0l-0.3-.3h0Zm-1.7.8a1.2,1.2,0,0,0-.5.6H13.9a1.1,1.1,0,0,0,.5-0.6H14.1a0.6,0.6,0,0,0,.2-0.4H14.1a0.6,0.6,0,0,0,.2-0.4H14.1a0.4,0.4,0,0,0,.1-0.3h0.5a0.4,0.4,0,0,0,.2.3H14.6a0.7,0.7,0,0,0,.2.5H14.5a0.4,0.4,0,0,0,.1.3h0Zm-0.4,1.4H14V42h0.3v0.6h0Zm3.2-11.5a14.4,14.4,0,0,0,.3,1.6l-3.5-7.1h0L10.1,17h0.4l6.9,14.2h0Zm-6-12.5a4.6,4.6,0,0,1,.1-0.9V17.1a10.9,10.9,0,0,1-.1,1.8l-0.2-.3h0Zm0.7,0.7h0.5v0.3a8.7,8.7,0,0,1,.9,2,15.4,15.4,0,0,1,.3,2.2l-2.2-4.5h0.4Zm1.6,2.3a8.8,8.8,0,0,0-.9-2l-0.2-.3a18.2,18.2,0,0,1,.8-2.7h0.1C14.8,19,15.1,19,15.1,19h0.7l1.5-.2V30.7L14.1,24h0a16.9,16.9,0,0,0-.3-2.5h0Zm8,0.5-1-.7h0l-1,.7,0.4-1.3h0l-0.9-.8h1.1l0.4-1,0.4,1h1.2l-0.9.8L21.8,22h0ZM22,27.9L20.8,27h0l-1.2.9L20,26.4h0l-1-.9h1.3l0.4-1.1,0.4,1.1h1.3l-1,.9h0L22,27.9h0Zm-2.5-5.5h1.2l-0.9.8,0.4,1.3-1-.7h0l-1,.7,0.4-1.3h0l-0.9-.8h1.1l0.4-1,0.4,1h0Zm3.4,0H24l-0.9.8h0l0.4,1.3-1-.7h0l-1,.7,0.4-1.3h0l-0.9-.8h1.1l0.4-1,0.4,1h0Zm-8-7.6v0.3s0.6,2.5,1.1,2.5h5.5L21.9,18l0.2,0.2h0.4a1.9,1.9,0,0,1,0,.2H22.3l-0.8-.4H20.9l0.4,0.3H20.9l-0.6-.2H19.9a1,1,0,0,1-.7-0.2H19.2l-0.7.2-0.6.2H17.4l-1.6.2H15.2s-0.3-.2-1.3-2.3V16.4l0.7-1.1,0.4-.6h0Zm-1.3,1.8-0.4,1.2a10.4,10.4,0,0,0-.4,1.4H11.7a9.5,9.5,0,0,0,.1-2.1,10.9,10.9,0,0,1,0-1.3V15.4a8.9,8.9,0,0,0,.1-3.6l0.8,0.4,0.7,0.4a6.5,6.5,0,0,1,1.2,1.9l-0.5.7-0.4.6Zm0.1-9.6a0.4,0.4,0,0,1-.2.4l-0.2-.2a0.8,0.8,0,0,0-.1-0.5,0.4,0.4,0,0,1,.5.3h0Zm-4.4,4a0.4,0.4,0,0,1-.3-0.3,0.7,0.7,0,0,1,.3-0.6,0.3,0.3,0,0,1,0,.2h0a0.5,0.5,0,0,0,.1-0.5c-0.1-.6-0.5-1.5.3-2a0.1,0.1,0,0,0,0-.1H9.5a0.9,0.9,0,0,0-.2.5,1.6,1.6,0,0,1,.4-0.6h0a1.5,1.5,0,0,1,.7-1,1.8,1.8,0,0,1,1.5.2h0a1.4,1.4,0,0,1,1,.1,0.6,0.6,0,0,1,.2.5H12.9a0.5,0.5,0,0,0-.2-0.5,0.7,0.7,0,0,0-.7,0l-0.3.3a0.8,0.8,0,0,1-.8.3h0A1,1,0,0,0,11.8,7l0.3-.2h0.6V6.9H12.2l-0.5.3-0.4.2h0l0.5-.3L12.3,7c0.4-.1.4,0,0.5,0.1H11.9a1.6,1.6,0,0,1-1.1.3H11a2.1,2.1,0,0,0,1-.3h0.3a1.4,1.4,0,0,1-1.1.5,1.4,1.4,0,0,0-1.3.7H10a1.2,1.2,0,0,1,1.2-.6l-0.3.2H10.4l-0.3.2a0.1,0.1,0,0,0,0,.1h0.1l0.3-.2h0.4a0.6,0.6,0,0,0,.4-0.3h0.1a0.8,0.8,0,0,1-.7.5l-0.6.3a1.3,1.3,0,0,0-.4.7H9.8a1.2,1.2,0,0,1,.4-0.6l0.6-.3a0.9,0.9,0,0,0,.8-0.7h0.1a0.9,0.9,0,0,1-.5.7H10.8l-0.5.3a0.1,0.1,0,0,0,0,.1h0.1l0.4-.2h0.4A1,1,0,0,0,11.7,8,1.3,1.3,0,0,1,11,9l-0.5.2a1.3,1.3,0,0,0-.9.7H9.8l0.4-.4h0v0.5h0a0.9,0.9,0,0,0,0,.2,1.2,1.2,0,0,1-.5.6H9.2a0.1,0.1,0,0,0,0,.1,1.2,1.2,0,0,0,.1-0.2h0a1.3,1.3,0,0,0,.7-0.7h0v0.2a1,1,0,0,1-.9.5h0Zm1.7-1.5h0a0.2,0.2,0,0,1,0,.2h0Zm-1.2,2a2.2,2.2,0,0,0,.6-1.6V9.4h0.2l0.3,0.2h0.1A0.3,0.3,0,0,0,11,9.1h0.1a1.4,1.4,0,0,0,.7-1.3l0.5-.4h0.9a0.6,0.6,0,0,1,.2.4,1.5,1.5,0,0,1,0,.8,0.5,0.5,0,0,0,0,.6h0a0.4,0.4,0,0,1,.1.3H12.9a0.1,0.1,0,0,0,0,.1H12.7a0.1,0.1,0,0,0,0,.1L13,10.3H13a0.4,0.4,0,0,1-.1.4,1,1,0,0,1-.7-0.1h0c-0.3-.2-0.2,0-0.2,0H11.8a0.1,0.1,0,0,0,0,.1s-0.1-.2.2,0a1,1,0,0,1-.2.7H11.7a0.8,0.8,0,0,0-.2.8h0.1a0.6,0.6,0,0,1,.1-0.7h0c0.4,0.8.1,2.6-.1,3.7v0.3h0V15.5a4.7,4.7,0,0,0-.8-1.8L9.5,12.1V11.8a0.5,0.5,0,0,1,.2-0.3h0Zm-0.2,0a0.6,0.6,0,0,0-.2.4,0.5,0.5,0,0,0,.2.4l1.4,1.6a4.6,4.6,0,0,1,.8,1.7,5.7,5.7,0,0,1-.1,2.2v0.7L10.7,17h0.2a0.6,0.6,0,0,0,.2-0.5V16.2a0.4,0.4,0,0,0-.1-0.3,0.3,0.3,0,0,0,0-.3H10.7a0.3,0.3,0,0,0-.1-0.2H9.8L8.2,11.9l1.2-.5h0Zm0.2,3.8-0.3.2L4.1,4.7l0.2-.2H4.5L9.7,15.2h0Zm-1.1,1-0.3.2-0.5.2h0V16.3a2.5,2.5,0,0,0-.1-0.6h0a4.8,4.8,0,0,0-.7-1.6,0.7,0.7,0,0,0-.4-0.4h0a0.4,0.4,0,0,0-.3.2h0a0.5,0.5,0,0,1,.3-0.4l0.3-.3a3.9,3.9,0,0,1,.8-1.1l1.6,3.3-0.5.6H8.6Zm-0.9.4H6.9a1.8,1.8,0,0,0,.5-0.7h0l0.2,0.7h0ZM6.1,14.2l-0.4.7-0.3.4-0.2.3h0l-0.5-.5a18.6,18.6,0,0,1,2.3-4.3l0.6,1.3a4.1,4.1,0,0,0-.9,1.1l-0.2.3a0.6,0.6,0,0,0-.3.7h0ZM4,4.7H3.7a0.2,0.2,0,0,1,0-.1L4,4.1H4.5a0.3,0.3,0,0,1-.1.3H4.2L4,4.7H4ZM2.4,7.6V7.4h0l0.6-1h0l0.2-.3h0l0.2-.3L3.2,8h0l0.3-.5,0.2-.3L3.9,5.3H4.1L4.6,6V6.1L3.6,7.7,3,8.8,2.3,7.7H2.4Zm-1,4.6-0.3-.5V11.2a1.4,1.4,0,0,1,0-.4h0l1.1-.8h0l0.3-.6h0l-1.3.9h0V9.9h0a9.4,9.4,0,0,1,.6-1.4H2V8.1L2.8,9.2a24.3,24.3,0,0,0-1.3,3.1H1.4Zm0.8,1.1L2,13H1.9V12.7A26.6,26.6,0,0,1,3,9.6l0.6,0.9H3.7L4,10.2H3.9L3.3,9.2,3.8,8.1l1-1.5V6.7H5L5.3,7.5H5.4V7.8H5.3l-1.5.6h0V8.8l-0.2.3H3.6l1.2-.6H5.2l0.3-.4,1.3,2.7h0a18.7,18.7,0,0,0-2.3,4.4h0l-0.2.7a0.6,0.6,0,0,0,0,.6H4.5a1.3,1.3,0,0,0,.3-0.5h0a0.9,0.9,0,0,1-.3.4H4.3a0.5,0.5,0,0,1,.1-0.4l0.2-.6,0.5,0.5-0.2.3a0.8,0.8,0,0,1-.6.5,1.8,1.8,0,0,1-.7-1l-1-1.6h0a6.1,6.1,0,0,1,.2-1.2V12.2h0V10.5l-0.3.7v2.5l-0.3-.5h0Zm2.6,8.9V21.8a3.5,3.5,0,0,0,.7.9H5.7a1.2,1.2,0,0,0-.2.5c-0.1.4-.2,0.7-0.5,0.7a2.3,2.3,0,0,1-.6-1.3,4.5,4.5,0,0,0-1.1-1.3,6.5,6.5,0,0,1-1.9-2.7,8.6,8.6,0,0,1,.5-3.3,12.6,12.6,0,0,0,.4-1.7H2.4a17.4,17.4,0,0,1,1,1.7c0.4,0.7.6,1.1,0.9,1.1h0A0.9,0.9,0,0,0,5,16V15.8h0l-0.4.8a2.3,2.3,0,0,0-.4.7,1.5,1.5,0,0,0,.1,1l0.7,0.2H5.4V19a9.2,9.2,0,0,0-.5,2.4h0a1.9,1.9,0,0,1,0,.6H4.8Zm1.8-3.8-1.2.2H4.6a1.4,1.4,0,0,1,0-.9,2.3,2.3,0,0,1,.3-0.7,4.3,4.3,0,0,0,.4-0.8l0.2-.5L5.8,15l0.5-.7h0V14l0.2-.2a4.8,4.8,0,0,1,.9,1.8H7.4a1.6,1.6,0,0,1-.7.7H7.6l0.7-.3a2.8,2.8,0,0,0,1-.9,0.8,0.8,0,0,1,.8-0.3h0.4a0.2,0.2,0,0,1,0,.2h0.3a0.3,0.3,0,0,1,0,.2h0v0.2H10.7s0.2,0.3-.1,0H11a0.5,0.5,0,0,1-.2.4h0s-0.1,0,0-.1H9.2a6.2,6.2,0,0,1-2.5,1.2h0Zm2.5,0.8H8.9a3.2,3.2,0,0,1-.8-1.3H8.4l0.8-.6H10l1,2H9.1ZM9.5,19h0ZM6.9,38.3H7v0.2h0ZM8,39.2H8.2v0.2L8,39.2H8Zm0.3-.1h0Zm1.3,1.8h0Zm0.2-.3h0Zm0.3-.2h0Zm0-.4a0.4,0.4,0,0,1-.3.4,0.6,0.6,0,0,0-.3.3l-0.2.2h0a0.2,0.2,0,0,0,.1-0.2H9.3l0.2-.2H9.4l-0.2.2H9.1l-0.2.2H8.9a0.8,0.8,0,0,1,.3-0.3,0.1,0.1,0,0,0,0-.1H9a0.9,0.9,0,0,0-.3.4h0V40.3H8.9a0.1,0.1,0,0,0,0-.1H8.7l-0.2.2h0L8.8,40a0.1,0.1,0,0,0,0-.1H8.7a1.5,1.5,0,0,0,.4-0.6h1l0.6,0.2a2.1,2.1,0,0,0-.6.9h0Zm-1,.7h0ZM8.9,39.5l-0.2.2H8.6l0.3-.2h0Zm-0.1-.2h0Zm2.1,0.8a0.6,0.6,0,0,0,.2.4H10.8a0.8,0.8,0,0,0,.3.5l-0.7-.3a0.9,0.9,0,0,0,.5-0.5H10.7a0.6,0.6,0,0,0,.2-0.4H10.7l0.2-.3,0.2,0.2h0a0.6,0.6,0,0,0,.2.4H10.9ZM10.8,39H9.6L9.1,39H8.9V38.9H8.7c-0.6.2-1.3,0.4-1.6-.1a0.6,0.6,0,0,1,0-.4,3.1,3.1,0,0,0,0-1.1c-0.1-.6-0.2-3.8-0.2-5.2s0-.3,0-0.6a7.4,7.4,0,0,1,.2-1.9,13,13,0,0,0,.2-3.1,20,20,0,0,1,.1-3.2,19.4,19.4,0,0,1,.9-2.5A15,15,0,0,0,9,19.3h2l3.1,6.4a13.3,13.3,0,0,1,0,1.7,26.6,26.6,0,0,0,0,3.2,26.1,26.1,0,0,0,.5,2.9,11.3,11.3,0,0,1,.3,1.7,12.8,12.8,0,0,0,.5,3.4h0v0.3h-1l-0.4.2h-3a0.3,0.3,0,0,0,.1.2H11.1a0.2,0.2,0,0,0,0,.2L11,39.3H10.8a0.1,0.1,0,0,0,0-.1h0Zm2.8,0.6H13.5v0.2H13.4a0.3,0.3,0,0,0,.1.3H13.4a0.6,0.6,0,0,0,.2.4H13.3a0.6,0.6,0,0,0,.2.4H13.2a0.8,0.8,0,0,0,.4.5l-1-.3a1.1,1.1,0,0,0,.5-0.5H12.8a0.6,0.6,0,0,0,.2-0.4H12.8A0.6,0.6,0,0,0,13,40H12.8a0.4,0.4,0,0,0,.1-0.3H12.8V39.3h0.6v0.2h0ZM13,42.3H12.6a1.5,1.5,0,0,0-.1-0.7l1,0.3a0.7,0.7,0,0,0-.6.2H13Zm-1.6-1.1a1.1,1.1,0,0,0,.5-0.5H11.7a0.6,0.6,0,0,0,.2-0.4H11.7a0.6,0.6,0,0,0,.2-0.4H11.7a0.4,0.4,0,0,0,.1-0.3H11.7V39h0.4a0.3,0.3,0,0,0,.1.2H12.2a0.3,0.3,0,0,0,.1.3H12.1a0.6,0.6,0,0,0,.2.4H12a0.6,0.6,0,0,0,.2.4H11.9a0.9,0.9,0,0,0,.3.5l-0.8-.3h0Zm0.9,1.3H12.3a1.4,1.4,0,0,0,0-.2h0.1Zm4.9,1.4h0Zm2.8,0.2h0Zm3.7,1.4a1.2,1.2,0,0,0,0-.2h0ZM25,45.9H24.7a1.8,1.8,0,0,0,0-.5l0.6,0.5H25Zm0.2-.4h0Zm0.4,1.1H25.5a1.5,1.5,0,0,0,0-.5l0.5,0.5H25.7Zm0-.7,0.6-.2h0.1a0.8,0.8,0,0,0,0,.3H26.1a0.8,0.8,0,0,0,.1.5l-0.5-.5h0Zm0.7,1.5H26.2a1.4,1.4,0,0,0,.1-0.5l0.4,0.5H26.3Zm0.6-.6H26.7a0.5,0.5,0,0,0,0,.3l-0.4-.4,0.6-.2a0.6,0.6,0,0,0,0,.3h0Zm0.6-1a0.2,0.2,0,0,0,0,.2H27.4a0.3,0.3,0,0,0,0,.2H27.2a0.5,0.5,0,0,0,0,.3H26.9l0.3-.3h0.4Zm1.1,0.6H28.5a0.5,0.5,0,0,0,0-.3H28.3a0.3,0.3,0,0,0,0-.2H28.2a0.2,0.2,0,0,0,0-.2h0.4l0.3,0.3H28.7ZM29,47a0.6,0.6,0,0,0,0-.3H28.8a0.5,0.5,0,0,0,0-.3l0.6,0.2L29,47h0Zm0.4,0.3H29.1l0.4-.5a1.4,1.4,0,0,0,.1.5H29.4Zm0.2-1a0.8,0.8,0,0,0,.1-0.5H29.4a0.8,0.8,0,0,0,0-.3h0L30,45.9l-0.5.5h0Zm0.5,0.2H29.6l0.5-.5a1.8,1.8,0,0,0,0,.5H30.1Zm0.2-.9V45.5h0.2l-0.3.2h0ZM31,46H30.4l0.6-.5a1.7,1.7,0,0,0,0,.5h0Zm0.9-.6H31.3l0.7-.2a1.4,1.4,0,0,0,0,.3h0Zm1-.6h0Zm2.5-.8h0Zm2.8,2.6h0Zm0-.5c0,0.2,0,.3,0,0.4H38.1l-0.2-.2H38l-0.3-.2h0.1a0.4,0.4,0,0,0-.3-0.2l0.2-.2a0.5,0.5,0,0,0-.4-0.3l0.2-.2a0.7,0.7,0,0,0-.6-0.4h0.2V43.9h0.3a0.8,0.8,0,0,0,0,.4h0.1l0.3-.2a1,1,0,0,0,0,.7h0.3a0.6,0.6,0,0,0,0,.4h0.1c0,0.3,0,.6,0,0.9h0Zm0,0.7h0Zm4.1-4.3a0.9,0.9,0,0,1,.8.3L44.1,44,45,45.4a0.8,0.8,0,0,1,0,.8,1.8,1.8,0,0,1-1.5.9L43,46.9a2.4,2.4,0,0,1-.7-1l1-.6,0.3,0.6H43.1a0.7,0.7,0,0,0-.3.5H43a0.6,0.6,0,0,1,.2-0.4,0.8,0.8,0,0,1,.5-0.1h0.1l-0.4-.8a1.1,1.1,0,0,1,1.4.2h0.1a0.1,0.1,0,0,0,0-.1c-0.7-.8-1.7-0.3-2.6.4H41.7a4.6,4.6,0,0,1-2.3,1,1,1,0,0,1-.9-0.5,1.4,1.4,0,0,1,0-.6,7.7,7.7,0,0,0-.1-2.2c1.4,0.2,2.1.7,2.3,1.2a0.4,0.4,0,0,1-.1.4,0.1,0.1,0,0,0,0,.1h0.1a0.5,0.5,0,0,0,.1-0.6c-0.2-.5-1-1-2.5-1.2H37.2a10,10,0,0,0-2.7.4l-1.9.7a11.3,11.3,0,0,1-4.5,1H27.8a11.9,11.9,0,0,1-4.9-1L21,44a10.1,10.1,0,0,0-2.7-.4H17.2c-1.5.2-2.3,0.8-2.5,1.3a0.5,0.5,0,0,0,.1.6h0.1a0.1,0.1,0,0,0,0-.1,0.4,0.4,0,0,1-.1-0.4c0.2-.4,1-1,2.3-1.2A7.7,7.7,0,0,0,17,46a1.3,1.3,0,0,1,0,.6,1,1,0,0,1-.9.5,4.6,4.6,0,0,1-2.3-1l-0.4-.3H13.2c-0.9-.6-1.9-1.2-2.6-0.4a0.1,0.1,0,0,0,0,.1h0.1a1.2,1.2,0,0,1,1.4-.2l-0.5.9h0.1a0.8,0.8,0,0,1,.5.1,0.6,0.6,0,0,1,.2.4h0.1a0.7,0.7,0,0,0-.3-0.5H11.8l0.3-.6h0l1,0.6a2.5,2.5,0,0,1-.7,1.1l-0.6.2a1.8,1.8,0,0,1-1.5-.9,0.8,0.8,0,0,1,0-.8L11.4,44l0.9-1.3a0.9,0.9,0,0,1,.8-0.3,1.4,1.4,0,0,1,1.2.5,10.6,10.6,0,0,1,.1,2.1,0.8,0.8,0,0,0,.2.7,1.5,1.5,0,0,0,1.2.3,1.3,1.3,0,0,1,1,.2,0.4,0.4,0,0,1,0,.4h0.1a0.5,0.5,0,0,0-.1-0.5,1.4,1.4,0,0,0-1.1-.2,1.4,1.4,0,0,1-1.1-.3,0.7,0.7,0,0,1-.2-0.6,10.8,10.8,0,0,0-.1-2.1h0c-0.1-.5-0.1-1-0.1-1h0a2.1,2.1,0,0,1,1.3-1h0.2a0.7,0.7,0,0,0,.5.3h0.4s0.1,0,.1.2l0.3,1.2H16.9l-0.6-.4-1.2-.7H14.9v0.2l0.3,1.6a0.4,0.4,0,0,1,0,.3h0.5V43.2l-0.3-1.1,0.8,0.5,0.5,0.3,0.6,0.4h0.2c0.1,0,.1-0.1.1-0.2l-0.4-1.9c0-.2,0-0.2,0-0.2H16.6a0.4,0.4,0,0,0,0-.2h0.1a0.3,0.3,0,0,0,.1-0.2h1.1a11,11,0,0,1,3,.5l1.9,0.6a12.1,12.1,0,0,0,4.7,1h0.3a11.4,11.4,0,0,0,4.8-1l1.9-.7a11,11,0,0,1,3-.5H39a0.3,0.3,0,0,0,.1.3h0.3a0.6,0.6,0,0,0,.4-0.3,2.1,2.1,0,0,1,1.3,1h0c0,0.1,0,.6-0.1,1h0A10.6,10.6,0,0,0,41,45a0.7,0.7,0,0,1-.2.6,1.4,1.4,0,0,1-1.1.3,1.4,1.4,0,0,0-1.1.2,0.5,0.5,0,0,0-.1.5h0.1a0.4,0.4,0,0,1,0-.4,1.3,1.3,0,0,1,1-.2,1.5,1.5,0,0,0,1.2-.3,0.8,0.8,0,0,0,.2-0.7,10.6,10.6,0,0,1,.1-2.1,1.4,1.4,0,0,1,1.2-.5h0Zm2.8-4.8h0ZM44.6,41a0.8,0.8,0,0,0,.3-0.5H44.6a0.6,0.6,0,0,0,.2-0.4H44.5a0.6,0.6,0,0,0,.2-0.4H44.5a0.4,0.4,0,0,0,.1-0.3H44.4a0.3,0.3,0,0,0,.1-0.2H44.4V38.7H44.2a0.1,0.1,0,0,0,0-.1h0l1-.5a1.5,1.5,0,0,0,0,.3H45a0.1,0.1,0,0,0,0,.1H44.9v0.2H44.9v0.2H44.9a0.3,0.3,0,0,0,.1.3H44.9a0.5,0.5,0,0,0,.2.4H44.8a0.6,0.6,0,0,0,.2.4H44.8a0.9,0.9,0,0,0,.5.5l-0.7.3h0Zm2.4-.8H46.7a0.1,0.1,0,0,0,0,.1h0.1v0.2H46.7a0.5,0.5,0,0,0-.1-0.4H46.4a0.1,0.1,0,0,0,0,.1h0a0.4,0.4,0,0,1,.1.4H46.3a0.9,0.9,0,0,0-.1-0.6H46.1a0.7,0.7,0,0,1,.1.6H46a1,1,0,0,0,0-.6H45.9a0.9,0.9,0,0,1,0,.5H45.6a1.1,1.1,0,0,1-.1-1.1,1.6,1.6,0,0,0-.1-0.7,1.4,1.4,0,0,1,0-.8,1.1,1.1,0,0,0,0-.6,1.7,1.7,0,0,1,0-.3l1.3-.8h0a3.1,3.1,0,0,0-.2,1.8l0.3,0.8h0.1v0.2a0.8,0.8,0,0,1,.1.6h0Zm0.1-.5h0ZM51.2,35h0Zm0.1-.2h0Z" transform="translate(-0.5 -0.5)"/><path id="Fill-80" class="cls-1" d="M4,4.8L9.2,15.5l0.6-.4L4.5,4.4H4.1V4.8" transform="translate(-0.5 -0.5)"/><path id="Fill-81" class="cls-1" d="M17.5,31.1l-7-14.3s-0.1-.1-0.4.2l7.8,16.2-0.4-2.1" transform="translate(-0.5 -0.5)"/><path id="Fill-82" class="cls-1" d="M38.2,30.3L43,20.6H44L37.3,34.6l0.9-4.3" transform="translate(-0.5 -0.5)"/><path id="Fill-83" class="cls-1" d="M33.6,17.9H33.5a15.7,15.7,0,0,0-11.2,0H22a0.2,0.2,0,0,1,.1-0.3,16.3,16.3,0,0,1,5.7-1,16.5,16.5,0,0,1,5.8,1.1,0.2,0.2,0,0,1,.1.3H33.6" transform="translate(-0.5 -0.5)"/><path id="Fill-84" class="cls-1" d="M12.8,19.5H11.7V19l1.2,0.2v0.2h0ZM9,19.4l-0.2-.2a3.8,3.8,0,0,1,1.8-.2H11v0.3H10.6a4.3,4.3,0,0,0-1.6.2H9Zm-3.8-.7a0.9,0.9,0,0,1-.8-0.2,1.6,1.6,0,0,1-.1-1.1,2.5,2.5,0,0,1,.4-0.8L5,15.8l0.3-.5,0.3-.4L6,14.2a0.6,0.6,0,0,1,.3-0.8l0.2-.2a4,4,0,0,1,1-1.2l0.2,0.2a3.7,3.7,0,0,0-.9,1.1l-0.3.3h0a0.8,0.8,0,0,1,.4.4,5.1,5.1,0,0,1,.7,1.6,2.5,2.5,0,0,1,.1.6v0.2l0.4-.2a2.5,2.5,0,0,0,.9-0.8,1,1,0,0,1,1-.3h0.6v0.2l0.3,0.2a0.4,0.4,0,0,1,0,.3,0.4,0.4,0,0,1,.1.3h0a0.7,0.7,0,0,1-.2.6H10.7l-0.2-.2H9.3a6.4,6.4,0,0,1-2.6,1.3l-1.2.2H5.2Zm1.1-4.4h0L5.8,15l-0.3.4-0.2.5a4.2,4.2,0,0,1-.4.8,2.1,2.1,0,0,0-.3.7,1.3,1.3,0,0,0,0,.9H5.4l1.2-.2A6.1,6.1,0,0,0,9.1,17h1.6a0.2,0.2,0,0,1,.1.2h0a0.5,0.5,0,0,0,.1-0.3H10.5l0.3-.2h0.1V16H10.5V15.5a0.2,0.2,0,0,0,0-.1H10.1a0.7,0.7,0,0,0-.7.2,2.8,2.8,0,0,1-1,.9l-0.8.3H6.2l0.4-.2a1.5,1.5,0,0,0,.6-0.7H7.4A5.4,5.4,0,0,0,6.5,14H6.4v0.2h0Zm0.8,2.3H7.5V16.1l-0.3.4h0Zm1-4.6V11.7A6.6,6.6,0,0,0,9.7,11l0.2-.7h0.3l-0.2.7a3.9,3.9,0,0,1-1.8.9h0Z" transform="translate(-0.5 -0.5)"/><path id="Fill-85" class="cls-1" d="M11.1,39.7a0.4,0.4,0,0,1-.4-0.3,0.6,0.6,0,0,0-.7-0.3c-0.7-.1-0.7-0.1-0.8.1L9,39.4H8.8l-0.2-.3c-0.6.2-1.5,0.4-1.8-.2a0.8,0.8,0,0,1,0-.6,2.9,2.9,0,0,0,0-1c-0.1-.6-0.2-3.9-0.2-5.2s0-.3,0-0.5a7.6,7.6,0,0,1,.3-2,13.4,13.4,0,0,0,.2-3,20,20,0,0,1,.1-3.2,18.8,18.8,0,0,1,.9-2.6l0.6-1.5A3.5,3.5,0,0,1,7.9,18H8.2A3.3,3.3,0,0,0,9,19.2H9A12.8,12.8,0,0,1,8.4,21a18.7,18.7,0,0,0-.9,2.5,19.8,19.8,0,0,0-.1,3.1,13.1,13.1,0,0,1-.2,3.1A7.4,7.4,0,0,0,7,31.6c0,0.2,0,.4,0,0.6s0.1,4.5.2,5.2a3.2,3.2,0,0,1,0,1.1,0.5,0.5,0,0,0,0,.4c0.2,0.4.8,0.3,1.5,0H8.7l0.2,0.2H9.1a1,1,0,0,1,1-.1h0.5a0.8,0.8,0,0,1,.4.4h0.3a0.3,0.3,0,0,0,0-.1,0.3,0.3,0,0,1,.1-0.4,1.3,1.3,0,0,1,1,.1h1.8l0.4-.2h0.8a0.4,0.4,0,0,0-.1-0.3H15.2a10.8,10.8,0,0,1-.4-3.1,11.3,11.3,0,0,0-.3-1.7,25.8,25.8,0,0,1-.5-2.9,27.4,27.4,0,0,1,0-3.2,12.6,12.6,0,0,0,0-1.7h0.3a11.9,11.9,0,0,1,0,1.7,27.2,27.2,0,0,0,0,3.2,25.5,25.5,0,0,0,.5,2.9,11.5,11.5,0,0,1,.3,1.7,10.6,10.6,0,0,0,.4,3,0.7,0.7,0,0,1,.2.4h0a0.4,0.4,0,0,1,.2.3H15.5a1.7,1.7,0,0,0-.9,0H14.3l-0.5.2H12.2a1,1,0,0,0-.7-0.1h0a0.4,0.4,0,0,1,0,.4H11.1" transform="translate(-0.5 -0.5)"/><path id="Fill-86" class="cls-1" d="M14.8,14.7H14.7a6.4,6.4,0,0,0-1.2-1.9l-0.7-.4a3.5,3.5,0,0,1-1.1-.6,0.1,0.1,0,0,1,0-.2h0.2l1,0.5,0.8,0.4A6.8,6.8,0,0,1,15,14.5a0.1,0.1,0,0,1-.1.2h0" transform="translate(-0.5 -0.5)"/><path id="Fill-87" class="cls-1" d="M15.8,19.2H15.1c-0.1,0-.3-0.1-1.5-2.4V16.5h0l0.8-1.1,0.5-.7H15V15a6.2,6.2,0,0,0,.9,2.4h5l0.6,0.2L22,17.9l0.4,0.2a0.5,0.5,0,0,1,.1.6H22.3l-0.7-.3v0.2a0.3,0.3,0,0,1-.1.3H20a1.4,1.4,0,0,1-.9-0.4h0l-0.7.2a9.1,9.1,0,0,1-2.7.5m-2-2.8v0.2a8.1,8.1,0,0,0,1.3,2.3h0.6a8.9,8.9,0,0,0,2.6-.5,1.3,1.3,0,0,1,.9-0.1h0a1.1,1.1,0,0,0,.9.3,1.3,1.3,0,0,1,.8.2h0.4l-0.5-.3a0.4,0.4,0,0,1-.3-0.3,0.2,0.2,0,0,1,.3-0.2h0.7l0.8,0.4h0s0.1-.1-0.1-0.3H21.9l-0.5-.3H16c-0.6,0-1.1-2.3-1.2-2.6V14.9l-0.3.5-0.7,1" transform="translate(-0.5 -0.5)"/><path id="Fill-88" class="cls-1" d="M40.5,32a15.8,15.8,0,0,0,2.3.6c0.5,2.2-1.1,4.5-.6,6.2a1.1,1.1,0,0,1,0,.5,2.6,2.6,0,0,1-1.2.5c-0.3.2-.5,0.8-1,0.9a2,2,0,0,1-.6.4H39.1a0.2,0.2,0,0,1,0-.3,0.1,0.1,0,0,1-.1-0.2s-0.2-.2,0-0.3a0.3,0.3,0,0,1,.1-0.3c0.1-.1-0.1-0.1.3-0.3a10,10,0,0,1,1.2-1.4c0.5-1-.4-4-0.2-6.2m-0.2-.4v0.4a17.7,17.7,0,0,0,.2,3.2,6.6,6.6,0,0,1,0,2.9l-0.3.3a4.8,4.8,0,0,0-.9,1,0.6,0.6,0,0,0-.4.3,0.6,0.6,0,0,0-.2.4v0.2a0.4,0.4,0,0,0,.1.3,0.4,0.4,0,0,0,.1.2,0.5,0.5,0,0,0,.2.5h0.4A0.8,0.8,0,0,0,40,41h0.1a1.3,1.3,0,0,0,.9-0.7l0.2-.3h0.5a1.2,1.2,0,0,0,.8-0.4,1.2,1.2,0,0,0,0-.8,5.2,5.2,0,0,1,.3-2.6,7.5,7.5,0,0,0,.3-3.5V32.3H42.8a15.7,15.7,0,0,1-2.2-.5l-0.4-.2" transform="translate(-0.5 -0.5)"/><path id="Fill-89" class="cls-1" d="M44.1,20.8H42.9l-0.6-.2-1.7-.4A6.3,6.3,0,0,1,38.2,19a1.6,1.6,0,0,1-.6-1,1.9,1.9,0,0,1,.5-1.3l0.3-.4,0.8-1.2a6,6,0,0,0,.8-1.3,3.1,3.1,0,0,1,1-1,1.9,1.9,0,0,1,1-.2h0.5l1.2-.5h0.5a0.1,0.1,0,0,1-.1.2l-0.4.2-1.1.5H41.9a1.7,1.7,0,0,0-.9.2,2.8,2.8,0,0,0-.9.9,6.4,6.4,0,0,1-.8,1.3l-0.8,1.1-0.3.5a1.8,1.8,0,0,0-.4,1.1,1.4,1.4,0,0,0,.5.8,6.1,6.1,0,0,0,2.2,1l1.7,0.4,0.6,0.2H43a3,3,0,0,0,1.4,0h0.4a0.2,0.2,0,0,1-.1-0.2H44.2l-0.5-.2H43.6a0.1,0.1,0,0,1,0-.1l-0.4.2-0.4.2a2.9,2.9,0,0,1-2-1,1.5,1.5,0,0,0-.7-0.4,0.6,0.6,0,0,1-.6-0.6h0.3c0,0.2.1,0.2,0.4,0.3a1.7,1.7,0,0,1,.8.4,2.6,2.6,0,0,0,1.8.9H43a1.1,1.1,0,0,1,.7-0.3,0.4,0.4,0,0,1,.4.1,0.2,0.2,0,0,1,0,.1l0.4,0.2h0.4a0.4,0.4,0,0,1,.4.3,0.3,0.3,0,0,1-.1.4,0.4,0.4,0,0,1,.1.3l-0.2.2a0.4,0.4,0,0,1,0,.2l-0.3.3v0.2H44.1" transform="translate(-0.5 -0.5)"/><path id="Fill-90" class="cls-1" d="M44.2,13h0a1.1,1.1,0,0,1-.3-1,2.3,2.3,0,0,0-.2-0.8H42.9a0.6,0.6,0,0,1-.4-0.4,0.6,0.6,0,0,1,0-.4H42.4a0.3,0.3,0,0,1,0-.3h0a0.2,0.2,0,0,1,0-.2,0.3,0.3,0,0,1-.2-0.3,1.7,1.7,0,0,1,.5-0.9h0.1a0.3,0.3,0,0,1,0-.4L43,7.6l0.2-.3A0.3,0.3,0,0,1,43.1,7c0.1-.7,1.4-1.1,2.2-1.2a1,1,0,0,1,1.1.3,0.1,0.1,0,0,1-.1.2H46.2a1,1,0,0,0-.8-0.1c-0.9.1-1.9,0.5-2,.9h0a0.2,0.2,0,0,1,0,.3l-0.3.4L43,8h0a0.3,0.3,0,0,1,0,.4H42.9a1.6,1.6,0,0,0-.4.7h0a0.2,0.2,0,0,1,.3.2V9.8h0a0.4,0.4,0,0,1,0,.3h0.2a0.2,0.2,0,0,1,0,.2,0.4,0.4,0,0,0-.1.3L42.9,11h0.9a1.6,1.6,0,0,1,.3,1,2.4,2.4,0,0,0,.2.7,0.1,0.1,0,0,1,.1.2H44.2" transform="translate(-0.5 -0.5)"/><path id="Fill-91" class="cls-1" d="M50.9,31.8h0V31.6c0-.2.1-1,0.1-1.2s0-.3,0-0.5a9.9,9.9,0,0,0-.2-2.6,9.3,9.3,0,0,1-.2-2.2,6.6,6.6,0,0,0,0-.7,31.9,31.9,0,0,1,.1-4.9,7.1,7.1,0,0,0,0-2,11.6,11.6,0,0,1-.1-1.8,1.6,1.6,0,0,0-.2-0.8,2.3,2.3,0,0,1-.2-0.7,1.5,1.5,0,0,0-.4-1l-0.3-.4V12.4l-0.8-.3a0.4,0.4,0,0,0-.2.3,0.5,0.5,0,0,1-.3.4H47.5l0.2-.2V12.4a0.6,0.6,0,0,1,.2-0.4h0V11.9H49l0.3,0.2,0.3,0.2a1.4,1.4,0,0,1,.5,1.1h0a2,2,0,0,1,.1.5,2.1,2.1,0,0,0,.2.7,1.8,1.8,0,0,1,.2.9,11.3,11.3,0,0,0,.1,1.8,7.5,7.5,0,0,1,0,2.1,31.7,31.7,0,0,0-.1,4.8,6.8,6.8,0,0,1,0,.7,8.8,8.8,0,0,0,.2,2.2,10.1,10.1,0,0,1,.2,2.7c0,0.2,0,.4,0,0.5s0,1.1-.1,1.3H50.9ZM42.8,19.1h0V18.2h0.3v0.7H42.8Zm-1.2-3h0l-0.3-.2a1.2,1.2,0,0,1,.4-0.9h0.2a0.1,0.1,0,0,1,0,.2,1.5,1.5,0,0,0-.3.6,1.1,1.1,0,0,1,.8-0.2h0a0.4,0.4,0,0,1,.4-0.1H44a0.2,0.2,0,0,0,.3-0.1,0.2,0.2,0,0,1,.3-0.1h0.1a0.3,0.3,0,0,1,.4-0.1h0.1a0.4,0.4,0,0,1,.4-0.5h0a0.3,0.3,0,0,1,.4-0.3h0.1v0.2a0.2,0.2,0,0,1-.3.2H46l-0.2.2a0.2,0.2,0,0,0-.2.2v0.2H45a0.3,0.3,0,0,1-.4.1h0a0.5,0.5,0,0,1-.5.3h0a0.7,0.7,0,0,1-.5.2H43a0.3,0.3,0,0,1-.4.1H42.3a0.8,0.8,0,0,0-.6.2h0ZM47.2,12h0a1.1,1.1,0,0,1-.9-0.5,0.1,0.1,0,0,1,.1-0.2h0.2a0.8,0.8,0,0,0,.7.3v0.2H47.2Z" transform="translate(-0.5 -0.5)"/><path id="Fill-92" class="cls-1" d="M46.8,36.4a3.7,3.7,0,0,0-.3,2c0.2,0.6.3,1.2,0.4,1.3s0.2,0.7,0,.7a0.2,0.2,0,0,1-.2.2h0l-0.2.2H45.9l-0.3.2H45.5a1.2,1.2,0,0,1-.2-1.2c0.1-.6-0.3-0.9-0.1-1.6a3.3,3.3,0,0,0,0-.9h0l1.5-.9m0.5-.6-0.6.4-1.2.7H45.2l-0.2.5a1.8,1.8,0,0,0,0,.5,0.8,0.8,0,0,1,0,.4,1.7,1.7,0,0,0,0,1,1.3,1.3,0,0,1,.1.6c-0.1.6-.1,1.3,0.3,1.5h1l0.3-.2a0.5,0.5,0,0,0,.4-0.3h0.1a1.1,1.1,0,0,0-.1-0.9V39.1l-0.3-.8a3,3,0,0,1,.2-1.6V36.5l0.2-.7" transform="translate(-0.5 -0.5)"/><path id="Fill-93" class="cls-1" d="M11.3,18.7H11.2a5.1,5.1,0,0,1,.1-0.9,5.7,5.7,0,0,0,.1-2.1,4.6,4.6,0,0,0-.8-1.7,15.1,15.1,0,0,0-1.4-1.6,0.5,0.5,0,0,1-.2-0.4,0.7,0.7,0,0,1,.3-0.5A2,2,0,0,0,10,9.8V9.5h0.3V9.8a2.3,2.3,0,0,1-.7,1.7l-0.2.3v0.2l1.4,1.6a4.8,4.8,0,0,1,.8,1.8,5.9,5.9,0,0,1-.1,2.2,4.8,4.8,0,0,0-.1.9H11.3" transform="translate(-0.5 -0.5)"/><path id="Fill-94" class="cls-1" d="M9.6,19.1H9.5a2.1,2.1,0,0,1-.7-1.1,0.1,0.1,0,0,1,.1-0.2H9a1.8,1.8,0,0,0,.6.9,0.1,0.1,0,0,1,0,.2H9.6m0.6,0H10a1.9,1.9,0,0,1-.5-0.9H9.8a1.7,1.7,0,0,0,.4.7h0.1a0.1,0.1,0,0,1-.1.2H10.2m2.7-2.2H12.8a0.1,0.1,0,0,1,0-.2l0.3-.3,0.3-.2a1.1,1.1,0,0,0,.1-0.9V14.8a3.3,3.3,0,0,1-.1-1.3h0.2v0.2a3,3,0,0,0,.1,1.2v0.5a1.3,1.3,0,0,1-.2,1.1l-0.4.3-0.2.2H12.9m-4.3-.6H8.5a1.4,1.4,0,0,1-.3-1.6H8.4a0.1,0.1,0,0,1,.1.2A1.1,1.1,0,0,0,8.7,16a0.1,0.1,0,0,1,0,.2H8.6" transform="translate(-0.5 -0.5)"/><path id="Fill-95" class="cls-1" d="M11.6,19.1h0a0.1,0.1,0,0,1-.1-0.2,9.6,9.6,0,0,0,.1-2,12,12,0,0,1,0-1.3V15.3c0.2-1.1.5-2.8,0.1-3.6a0.1,0.1,0,0,1,.1-0.2H12c0.4,0.9.2,2.6,0,3.8v0.3a11.5,11.5,0,0,0,0,1.3,9.3,9.3,0,0,1-.1,2.1H11.6" transform="translate(-0.5 -0.5)"/><path id="Fill-96" class="cls-1" d="M10.7,39.3H10.6a0.6,0.6,0,0,1-.1-0.5H10.1a0.7,0.7,0,0,0-.7-0.2H9.2a0.1,0.1,0,0,1,.1-0.2,1,1,0,0,1,1,.2h0.2V38.3a12,12,0,0,0-.3-3.4,0.1,0.1,0,0,1,.1-0.2h0.2a12.2,12.2,0,0,1,.3,3.5,2.6,2.6,0,0,0,0,.8,0.1,0.1,0,0,1,0,.2H10.7Zm-2-.3H8.6a3.3,3.3,0,0,1,.2-1.2,6.8,6.8,0,0,0,.4-2.1c0-6.5.3-11.3,1.3-16.3h0.2a0.1,0.1,0,0,1,.1.2c-1.1,4.9-1.3,9.7-1.3,16.2a5.8,5.8,0,0,1-.1,1H9.6a1.3,1.3,0,0,1,.6.7l0.3,0.4a0.1,0.1,0,0,1,.1.2H10.3a1.1,1.1,0,0,1-.4-0.6,1.6,1.6,0,0,0-.4-0.6H9.3L9,37.8a3,3,0,0,0-.2,1H8.7Zm6.8-.3H15.4l-0.8-.2a0.8,0.8,0,0,1-.6-0.3A0.1,0.1,0,0,1,14,38h0.6a2,2,0,0,1,.9.3,0.1,0.1,0,0,1,0,.2H15.5ZM13,35.1H12.9a3.7,3.7,0,0,1-.6-1.2,2.1,2.1,0,0,0-.5-0.9,0.1,0.1,0,0,1,0-.2h0.2a2.3,2.3,0,0,1,.6,1,3.4,3.4,0,0,0,.6,1.1,0.1,0.1,0,0,1,0,.2H13Zm-0.1-2.4h0c-0.1,0-2.5-.5-2.4-10h0.3c-0.1,9.2,2.2,9.7,2.2,9.7v0.2H12.9ZM8.3,31.2H8.1c-0.3-1.7.3-4.5,0.8-7a19.2,19.2,0,0,0,.7-4.7V19.2H9.9a18.9,18.9,0,0,1-.7,4.8c-0.5,2.5-1.1,5.2-.8,6.9v0.2h0Z" transform="translate(-0.5 -0.5)"/><path id="Fill-97" class="cls-1" d="M15.3,38.3h0a2.3,2.3,0,0,1-1.4-.7H13.8c-2-1.8-2.9-2.7-3.3-7h0.3c0.4,4.2,1.2,5.1,3.2,6.8H14a2,2,0,0,0,1.2.6v0.2H15.3" transform="translate(-0.5 -0.5)"/><path id="Fill-98" class="cls-1" d="M14,24.3a12.9,12.9,0,0,0-.4-2.5,8.2,8.2,0,0,0-1.1-2c-0.2-.3.1-0.4,0.1-0.4a10.8,10.8,0,0,1,.5-1.7c0.4-1.3.5-1.3,0.5-1.3v0.3h0.1a20,20,0,0,0-.9,2.8v0.3a9.1,9.1,0,0,1,.9,2.1,22.7,22.7,0,0,1,.4,3L14,24.3" transform="translate(-0.5 -0.5)"/><path id="Fill-99" class="cls-1" d="M4.9,24.3H4.8a1.2,1.2,0,0,1-.5-0.9,2.8,2.8,0,0,0-.6-1.3L2.2,20.6a3.6,3.6,0,0,1-.8-3.9c0.2-.8.6-2.6,0.7-3.1H2l-0.6-.8C0.4,11.2.8,10.2,1.4,9l0.2-.4A19,19,0,0,1,4,4.9V4.8l3.1,6H7.1c-1,.7-2.1,3.7-2.3,4.2l0.6,0.6-0.2.8h0a1.1,1.1,0,0,1-1,.2A1,1,0,0,1,3.6,16a16.8,16.8,0,0,0-1.3-2.1c-0.1.7-.4,2.1-0.6,2.8a3.4,3.4,0,0,0,.8,3.7l1.5,1.5a3.1,3.1,0,0,1,.7,1.4,1,1,0,0,0,.3.7H5.2l0.4-1a4,4,0,0,1-.9-1.4h0a8.9,8.9,0,0,1,.7-3H5.6A8.7,8.7,0,0,0,5,21.5a4.2,4.2,0,0,0,.9,1.3h0L5.5,24.1h0l-0.5.2M2.4,13.6a18,18,0,0,1,1.5,2.4h0a0.7,0.7,0,0,0,.4.5,0.8,0.8,0,0,0,.7-0.2l0.2-.5-0.6-.6h0c0.1-.1,1.3-3.5,2.4-4.4L4.1,5.3A18,18,0,0,0,1.8,8.7l-0.2.4c-0.5,1.2-.9,2,0.1,3.4l0.7,1h0" transform="translate(-0.5 -0.5)"/><path id="Fill-100" class="cls-1" d="M49.3,31.2h0V29.9a23,23,0,0,0,.2-3V26.5a13.4,13.4,0,0,0-.2-2.8,3.5,3.5,0,0,1-.1-1.1,3.3,3.3,0,0,0,0-.4h0.3a3.5,3.5,0,0,1,0,.5,3.4,3.4,0,0,0,0,1,13.8,13.8,0,0,1,.2,2.8v0.4a23.1,23.1,0,0,1-.2,3.1v1.1H49.3" transform="translate(-0.5 -0.5)"/><path id="Fill-101" class="cls-1" d="M46.1,30.9h0V30.7a32.2,32.2,0,0,0,.3-5.5V25.1h0.1a32.5,32.5,0,0,1-.3,5.5H46.1" transform="translate(-0.5 -0.5)"/><path id="Fill-102" class="cls-1" d="M39.4,47.3a1.2,1.2,0,0,1-1.1-.6,1.3,1.3,0,0,1-.1-0.7,7.6,7.6,0,0,0-.1-2.1,9.3,9.3,0,0,0-3.6.3l-1.9.7a11.4,11.4,0,0,1-4.6,1H27.5a12.1,12.1,0,0,1-4.7-1l-1.9-.6a9.3,9.3,0,0,0-3.6-.3,7.5,7.5,0,0,0-.1,2.1,1.3,1.3,0,0,1-.1.7,1.2,1.2,0,0,1-1.1.6,4.8,4.8,0,0,1-2.4-1.1L13.3,46a2.6,2.6,0,0,1-.7,1.1l-0.7.2a2,2,0,0,1-1.7-1,1,1,0,0,1,0-1l0.9-1.4L12,42.6a1.1,1.1,0,0,1,.9-0.4,2.1,2.1,0,0,1,1.1.3,2.9,2.9,0,0,1,0-.7c0.2-.7,1.6-1.5,3.9-1.5a11.2,11.2,0,0,1,3.1.5l1.9,0.6a11.8,11.8,0,0,0,4.9,1H28a11.2,11.2,0,0,0,4.5-1l1.9-.7a11.3,11.3,0,0,1,3.1-.5c2.3,0,3.7.9,3.9,1.5a2.8,2.8,0,0,1,0,.7,2.1,2.1,0,0,1,1.1-.3,1.1,1.1,0,0,1,.9.4l0.9,1.3,0.9,1.4a1,1,0,0,1,0,1,2,2,0,0,1-1.7,1l-0.7-.2a2.6,2.6,0,0,1-.7-1H41.8a4.8,4.8,0,0,1-2.4,1.1m-2.2-3.8h1.2a7.7,7.7,0,0,1,.2,2.3,1.5,1.5,0,0,0,0,.5,0.9,0.9,0,0,0,.9.5,4.5,4.5,0,0,0,2.2-1l0.3-.2h0.4v0.2a2.5,2.5,0,0,0,.7,1h0.5a1.7,1.7,0,0,0,1.4-.8,0.7,0.7,0,0,0,0-.8L43.9,44l-0.9-1.3a0.8,0.8,0,0,0-.7-0.2,1.3,1.3,0,0,0-1.1.5H41c0.1-.4.1-0.9,0.1-1h0c-0.1-.5-1.4-1.3-3.6-1.3a10.9,10.9,0,0,0-3,.5l-1.9.7a11.4,11.4,0,0,1-4.8,1H27.5a12.1,12.1,0,0,1-4.7-1L20.9,41a10.9,10.9,0,0,0-3-.5c-2.2,0-3.5.9-3.6,1.3h0c0,0.1.1,0.6,0.1,1H14.1a1.4,1.4,0,0,0-1.1-.5,0.8,0.8,0,0,0-.7.3L11.4,44l-0.9,1.4a0.7,0.7,0,0,0,0,.8,1.8,1.8,0,0,0,1.4.8h0.5a2.5,2.5,0,0,0,.7-1V45.6h0.2L13.7,46A4.6,4.6,0,0,0,16,47a0.9,0.9,0,0,0,.9-0.5,1.5,1.5,0,0,0,0-.5,7.7,7.7,0,0,1,.2-2.3h0.1a9.4,9.4,0,0,1,3.8.3l1.9,0.6a11.8,11.8,0,0,0,4.9,1H28a11.2,11.2,0,0,0,4.5-1l1.9-.7a10,10,0,0,1,2.8-.4" transform="translate(-0.5 -0.5)"/><path id="Fill-103" class="cls-1" d="M42.8,46.7h0V46.6A0.8,0.8,0,0,1,43,46l0.4-.2-0.2-.4-1,.6H42a0.1,0.1,0,0,1,0-.2c0.5-.4,2.2-1.5,3-0.5a0.1,0.1,0,0,1,0,.2H44.9a1.2,1.2,0,0,0-1.4-.1l0.5,0.9H43.6a0.7,0.7,0,0,0-.5.1,0.5,0.5,0,0,0-.2.4H42.8m-4.2-.1H38.5a0.6,0.6,0,0,1,.1-0.5,1.4,1.4,0,0,1,1.1-.3,1.3,1.3,0,0,0,1-.3,0.6,0.6,0,0,0,.2-0.5,10.8,10.8,0,0,1,.1-2.2h0.2v0.2a10.8,10.8,0,0,0-.1,2.1,0.9,0.9,0,0,1-.2.7,1.6,1.6,0,0,1-1.2.4,1.4,1.4,0,0,0-.9.2,0.3,0.3,0,0,0,0,.3,0.1,0.1,0,0,1-.1.2h0m1.9-1.1H40.5a0.1,0.1,0,0,1,0-.2,0.3,0.3,0,0,0,.1-0.4c-0.2-.4-1-0.9-2.3-1.1V43.7h0.2c1.3,0.2,2.3.7,2.6,1.3a0.6,0.6,0,0,1-.1.6H40.6" transform="translate(-0.5 -0.5)"/><path id="Fill-104" class="cls-1" d="M12.5,46.7H12.3a0.5,0.5,0,0,0-.2-0.4,0.7,0.7,0,0,0-.5-0.1H11.4l0.5-1a1.2,1.2,0,0,0-1.4.1H10.3a0.1,0.1,0,0,1,0-.2c0.8-.9,2.3.1,3,0.6a0.1,0.1,0,0,1,0,.2H13.1l-1-.6-0.3.5L12.3,46a0.8,0.8,0,0,1,.3.6v0.2h0Zm2.3-1.2H14.6a0.6,0.6,0,0,1-.1-0.6c0.2-.6,1.3-1.1,2.6-1.3h0.2v0.2c-1.4.2-2.2,0.7-2.4,1.1a0.3,0.3,0,0,0,.1.4,0.1,0.1,0,0,1,0,.2H14.7Z" transform="translate(-0.5 -0.5)"/><path id="Fill-105" class="cls-1" d="M16.7,46.7h0a0.1,0.1,0,0,1-.1-0.2,0.3,0.3,0,0,0,0-.3,1.4,1.4,0,0,0-.9-0.2,1.6,1.6,0,0,1-1.2-.4,0.9,0.9,0,0,1-.2-0.7,10.7,10.7,0,0,0-.1-2.1V42.7h0.2a10.8,10.8,0,0,1,.1,2.2,0.6,0.6,0,0,0,.2.5,1.4,1.4,0,0,0,1,.3,1.4,1.4,0,0,1,1.1.3,0.6,0.6,0,0,1,.1.5H16.7" transform="translate(-0.5 -0.5)"/><path id="Fill-106" class="cls-1" d="M33.6,17.9l-0.2-.2a0.2,0.2,0,0,1,.2-0.3l0.2-.2a0.9,0.9,0,0,0,0-.7,0.2,0.2,0,0,1,.1-0.3h0.3a1.3,1.3,0,0,1,0,1,0.8,0.8,0,0,1-.5.4H33.6" transform="translate(-0.5 -0.5)"/><path id="Fill-107" class="cls-1" d="M22.2,17.9H22.2a0.8,0.8,0,0,1-.5-0.4,1.3,1.3,0,0,1,0-1H22a0.2,0.2,0,0,1,.1.3,0.9,0.9,0,0,0,0,.7l0.2,0.2a0.2,0.2,0,0,1,.1.3l-0.2.2" transform="translate(-0.5 -0.5)"/><path id="Fill-108" class="cls-1" d="M46.5,10.5H46.4a0.1,0.1,0,0,1,.1-0.2,1.2,1.2,0,0,0,.4-0.5V9.5a1.8,1.8,0,0,0,.2-2.1V7.2h0.2l0.4-.2A0.7,0.7,0,0,0,48,6.4a0.9,0.9,0,0,0-.8-0.5V5.8h0.2a1.2,1.2,0,0,1,1,.7,1,1,0,0,1-.2.9l-0.5.3a2,2,0,0,1-.4,2.1V9.8a1.4,1.4,0,0,1-.6.7H46.5" transform="translate(-0.5 -0.5)"/><path id="Fill-109" class="cls-1" d="M46.2,12.6H46.1a0.1,0.1,0,0,1-.1-0.2,5.9,5.9,0,0,0,.3-2.1h0.3a6.2,6.2,0,0,1-.3,2.2H46.2" transform="translate(-0.5 -0.5)"/><path id="Fill-110" class="cls-1" d="M43.9,18.7l3.6-7.6,0.4-.2,0.3,0.4L44.7,19l-0.8-.3" transform="translate(-0.5 -0.5)"/><path id="Fill-111" class="cls-1" d="M13.3,7.8l-0.2-.5a0.2,0.2,0,0,0,.1-0.2,0.4,0.4,0,0,0-.4-0.2V6.4a0.8,0.8,0,0,1,1,.6,0.8,0.8,0,0,1-.5.8" transform="translate(-0.5 -0.5)"/><path id="Fill-112" class="cls-1" d="M11.5,12.8l-0.2-.2a1,1,0,0,1,.2-1,1,1,0,0,0,.2-0.7V10.2l0.5,0.5h0.5a0.3,0.3,0,0,0,0-.2h0V10.3a0.3,0.3,0,0,1,.1-0.3V9.5h0.2a0.7,0.7,0,0,1,0-.9A1.5,1.5,0,0,0,13,7.5H12.8V7.3a0.4,0.4,0,0,0-.1-0.4,1.1,1.1,0,0,0-.8-0.1H11.7a1.6,1.6,0,0,0-1.3-.2,1.3,1.3,0,0,0-.6.9H9.7c-0.8.8-.4,2.3-0.3,2.3v0.2H9.2a0.6,0.6,0,0,0-.3.5H9a0.9,0.9,0,0,0,.6-0.5,0.3,0.3,0,0,1,.4.3,1.2,1.2,0,0,1-1.2.7,0.6,0.6,0,0,1-.5-0.6,1.1,1.1,0,0,1,.4-0.9,3,3,0,0,1,.5-2.6,1.7,1.7,0,0,1,.9-1.2,2,2,0,0,1,1.7.2,1.5,1.5,0,0,1,1.2.2,0.9,0.9,0,0,1,.3.7,1,1,0,0,1,.2.6,1.5,1.5,0,0,1-.2,1.1V9a0.7,0.7,0,0,1,.2.6l-0.3.3h0.1v0.2h0v0.2h0a0.6,0.6,0,0,1-.3.7H12.2a1.8,1.8,0,0,1-.3.6,0.5,0.5,0,0,0-.1.5,0.3,0.3,0,0,1-.1.3H11.5" transform="translate(-0.5 -0.5)"/><path id="Fill-113" class="cls-1" d="M18.5,34.8L9.6,17.3a0.3,0.3,0,0,1,.1-0.4,0.3,0.3,0,0,1,.4.1L18.4,34h0L10.1,17a0.3,0.3,0,0,1,.5-0.2l8.5,17.4-0.6.6h0ZM4.2,16.7H3.9a0.7,0.7,0,0,1,0-.8,19.4,19.4,0,0,1,2.6-5.1L3.6,4.9h0A0.6,0.6,0,0,1,4,4.3a0.6,0.6,0,0,1,.5,0H4.6L9.8,15.3a0.3,0.3,0,0,1-.5.2L4.2,4.8h0L9.4,15.6a0.3,0.3,0,1,1-.5.2L6.7,11.3A18.9,18.9,0,0,0,4.4,16H4.5a0.2,0.2,0,0,1-.1.3H4.2Z" transform="translate(-0.5 -0.5)"/><path id="Fill-114" class="cls-1" d="M4.8,24.6H4.7c-0.3,0-.6-0.4-0.9-1.6a5.3,5.3,0,0,0-1-1.2A6.7,6.7,0,0,1,.9,19a8.9,8.9,0,0,1,.5-3.5,10.3,10.3,0,0,0,.4-1.8H2.4a10.8,10.8,0,0,1-.4,1.9,8.5,8.5,0,0,0-.5,3.2,6.4,6.4,0,0,0,1.9,2.6,4.3,4.3,0,0,1,1.1,1.4,3.1,3.1,0,0,0,.4,1.2c0.1,0,.2-0.1.3-0.5V23.1a3.9,3.9,0,0,1-.9-1.2h0a9.1,9.1,0,0,1,.5-2.6l0.2-.5H5.6l-0.2.5a8.9,8.9,0,0,0-.5,2.4,3.3,3.3,0,0,0,.7,1,0.5,0.5,0,0,1,.2.3H5.8a1.1,1.1,0,0,0-.1.4,0.9,0.9,0,0,1-.8.9m0-8.6-0.6-.6L4.6,15l0.6,0.6L4.8,16" transform="translate(-0.5 -0.5)"/><path id="Fill-115" class="cls-1" d="M4.1,17c-0.4,0-.6-0.4-1-1.2a16.8,16.8,0,0,0-1-1.7l-0.6-.8a3.8,3.8,0,0,1-1-2.1c0-1.7,1.8-4.4,2.8-5.9l0.3-.5a0.3,0.3,0,1,1,.4.3l-0.3.5C2.9,7,1,9.6,1,11.2A3.6,3.6,0,0,0,2,13l0.6,0.8a16.6,16.6,0,0,1,1,1.7,3.2,3.2,0,0,0,.6.9A0.7,0.7,0,0,0,4.6,16a0.8,0.8,0,0,1,.3-0.4,0.3,0.3,0,0,1,.2.5v0.2a1.1,1.1,0,0,1-.9.7h0" transform="translate(-0.5 -0.5)"/><path id="Fill-116" class="cls-1" d="M12.5,19.7h-1V19l1.2,0.2-0.3.5h0Zm-3.5,0-0.3-.4a3.7,3.7,0,0,1,1.9-.3h0.4v0.5H10.5a4.7,4.7,0,0,0-1.6.1h0ZM5,19a1,1,0,0,1-.9-0.3A1.7,1.7,0,0,1,4,17.5a2.6,2.6,0,0,1,.4-0.8l0.4-.8,0.3-.6,0.3-.4,0.4-.6a0.8,0.8,0,0,1,.4-0.8l0.2-.2a4.2,4.2,0,0,1,1-1.2l0.3,0.4a3.7,3.7,0,0,0-.9,1.1l-0.2.2,0.3,0.4a5.5,5.5,0,0,1,.7,1.7,2.7,2.7,0,0,1,.1.6H8.1A2.5,2.5,0,0,0,9,15.5a1.1,1.1,0,0,1,1.1-.4h0.2a0.6,0.6,0,0,1,.5.2v0.2l0.3,0.2a0.4,0.4,0,0,1,0,.4,0.5,0.5,0,0,1,.1.4h0a0.8,0.8,0,0,1-.3.7H10.5l-0.2-.2h0l-0.3.2H9.2a6.4,6.4,0,0,1-2.6,1.3L5.3,19H5Zm-0.5-.6H5.3l1.2-.2A6.1,6.1,0,0,0,8.9,17H10l0.6-.3H10.2V15.6H10a0.6,0.6,0,0,0-.6.2,3,3,0,0,1-1.1.9l-0.8.3H5.6l0.8-.4A1.4,1.4,0,0,0,7,15.9H7.1a6.3,6.3,0,0,0-.7-1.5v0.2h0l-0.5.8-0.3.4-0.2.5a4.5,4.5,0,0,1-.4.9l-0.3.6a1.3,1.3,0,0,0,0,.7h0Zm3.5-6.2-0.2-.5a3.9,3.9,0,0,0,1.4-.7l0.5,0.2c0,0.1-.2.4-1.7,0.9h0Z" transform="translate(-0.5 -0.5)"/><path id="Fill-117" class="cls-1" d="M11,40.1a0.5,0.5,0,0,1-.5-0.3,0.5,0.5,0,0,0-.6-0.3H9.2L9,39.7H8.7l-0.2-.2c-0.6.2-1.5,0.4-1.9-.3a0.9,0.9,0,0,1-.1-0.7,2.9,2.9,0,0,0,0-1c-0.1-.6-0.2-3.9-0.2-5.3s0-.3,0-0.6a7.6,7.6,0,0,1,.3-2,13.4,13.4,0,0,0,.1-3A20.1,20.1,0,0,1,7,23.6,18.8,18.8,0,0,1,7.9,21l0.5-1.4a3.7,3.7,0,0,1-.8-1.4L8.2,18A3.1,3.1,0,0,0,9,19.3H9a11.6,11.6,0,0,1-.6,1.6,19.4,19.4,0,0,0-.9,2.5,19.9,19.9,0,0,0-.1,3.1A13.1,13.1,0,0,1,7.2,30,7.2,7.2,0,0,0,7,31.8c0,0.2,0,.4,0,0.6s0.1,4.5.2,5.2a3.3,3.3,0,0,1,0,1.1,0.4,0.4,0,0,0,0,.3c0.2,0.3.7,0.2,1.4,0H8.9v0.3A1.2,1.2,0,0,1,10,39h0a1,1,0,0,1,1,.5h0.1a0.4,0.4,0,0,1,.2-0.5,1.4,1.4,0,0,1,1.1.1H14l0.4-.2h0.7V38.6H15a10.9,10.9,0,0,1-.4-3.1,11.4,11.4,0,0,0-.3-1.7,26.2,26.2,0,0,1-.5-3,27.7,27.7,0,0,1,0-3.3,12.6,12.6,0,0,0,0-1.7h0.5a12.5,12.5,0,0,1,0,1.8,27.2,27.2,0,0,0,0,3.2,25.4,25.4,0,0,0,.5,2.9,11.5,11.5,0,0,1,.3,1.8,10.4,10.4,0,0,0,.3,2.9,0.8,0.8,0,0,1,.2.5,0.5,0.5,0,0,1,.2.3,0.3,0.3,0,0,1,0,.3,0.3,0.3,0,0,1-.4.1,1.6,1.6,0,0,0-.8,0H14.3l-0.6.2H12.7a0.8,0.8,0,0,1-.6,0H11.6a0.5,0.5,0,0,1-.1.4,0.6,0.6,0,0,1-.5.2h0" transform="translate(-0.5 -0.5)"/><path id="Fill-118" class="cls-1" d="M14.7,15l-0.2-.2a6.5,6.5,0,0,0-1.2-1.9l-0.7-.4a3.7,3.7,0,0,1-1.1-.6,0.3,0.3,0,0,1,0-.4,0.3,0.3,0,0,1,.4,0L12.8,12l0.9,0.5A6.8,6.8,0,0,1,15,14.6a0.3,0.3,0,0,1-.2.3H14.7" transform="translate(-0.5 -0.5)"/><path id="Fill-119" class="cls-1" d="M15.7,19.5H15c-0.2,0-.4-0.1-1.6-2.5H13.2V16.4L14,15.3l0.5-.7L15,14.8v0.3a8,8,0,0,0,.8,2.3h5l0.6,0.2L21.9,18l0.4,0.3h0.1a0.4,0.4,0,0,1,.2.3,0.3,0.3,0,0,1-.1.3,0.8,0.8,0,0,1-1,0v0.2a0.6,0.6,0,0,1-.7,0L20.3,19H19.9a1.3,1.3,0,0,1-.8-0.3l-0.6.2a9.3,9.3,0,0,1-2.8.5m-0.6-.6h0.6a8.8,8.8,0,0,0,2.6-.5,1.2,1.2,0,0,1,1-.1,0.9,0.9,0,0,0,.8.2h0.2a0.3,0.3,0,0,1,0-.2,0.3,0.3,0,0,1,.3-0.3H18a8.7,8.7,0,0,0-2.1,0c-0.6,0-1-1.6-1.3-2.6l-0.2.2-0.6,1h0.1a11.2,11.2,0,0,0,1.2,2.2" transform="translate(-0.5 -0.5)"/><path id="Fill-120" class="cls-1" d="M39.4,41.6H39a0.5,0.5,0,0,1-.2-0.4,0.3,0.3,0,0,1-.1-0.2,0.4,0.4,0,0,1-.1-0.3h0a0.6,0.6,0,0,1,.2-0.4,0.6,0.6,0,0,1,.4-0.3,4.9,4.9,0,0,1,.9-1l0.3-.3a6.6,6.6,0,0,0,0-2.9,17.5,17.5,0,0,1-.2-3.2V31.8h0.3a15.7,15.7,0,0,0,2.3.5H43v0.2a7.5,7.5,0,0,1-.3,3.5,5.2,5.2,0,0,0-.3,2.7,1.2,1.2,0,0,1,0,.8,1.2,1.2,0,0,1-.8.4H41.2l-0.2.3a1.3,1.3,0,0,1-.9.7h0a0.8,0.8,0,0,1-.6.3M39.3,41a0.3,0.3,0,0,0,.3-0.2l0.4-.2a0.8,0.8,0,0,0,.5-0.4l0.4-.4,0.6-.2,0.5-.2V39a5.6,5.6,0,0,1,.3-3,7.5,7.5,0,0,0,.4-3.1l-1.8-.4a20,20,0,0,0,.2,2.8,6.5,6.5,0,0,1,0,3.2l-0.4.4a4.3,4.3,0,0,0-.9,1h0.1l-0.5.4v0.4H39.3" transform="translate(-0.5 -0.5)"/><path id="Fill-121" class="cls-1" d="M44.1,21H42.9l-0.7-.2-1.7-.4a6.5,6.5,0,0,1-2.4-1.1,1.8,1.8,0,0,1-.7-1.1,2,2,0,0,1,.5-1.4l0.3-.4L39,15.1a6,6,0,0,0,.8-1.3,3.2,3.2,0,0,1,1-1,2,2,0,0,1,1.1-.2h0.4l1.2-.5h0.4a0.3,0.3,0,0,1,.2.5l-0.4.2-1.1.5H41.1a2.7,2.7,0,0,0-.8.8,6.4,6.4,0,0,1-.8,1.4l-0.8,1.1-0.3.5a1.7,1.7,0,0,0-.4,1,1.2,1.2,0,0,0,.5.8,5.9,5.9,0,0,0,2.2,1l1.8,0.4L43,20.4h1.4V20.3h0.3l-0.2-.2h0.3a0.4,0.4,0,0,1-.1-0.3H43.6V19l-0.2.2a0.6,0.6,0,0,1-.4.2,3.1,3.1,0,0,1-2.1-1L40.1,18a0.7,0.7,0,0,1-.7-0.7,0.3,0.3,0,0,1,.3-0.2,0.3,0.3,0,0,1,.2.3l0.3,0.2a1.9,1.9,0,0,1,.8.5,2.5,2.5,0,0,0,1.7.9h0.1a1.2,1.2,0,0,1,.7-0.3,0.5,0.5,0,0,1,.5.2h0.6a0.5,0.5,0,0,1,.5.4,0.5,0.5,0,0,1-.1.4,0.4,0.4,0,0,1,0,.3l-0.2.3a0.5,0.5,0,0,1,0,.2l-0.3.3-0.2.3H44.1" transform="translate(-0.5 -0.5)"/><path id="Fill-122" class="cls-1" d="M46.5,10.8l-0.2-.2a0.3,0.3,0,0,1,.1-0.4,1,1,0,0,0,.4-0.5L47,9.6a1.7,1.7,0,0,0,.2-1.9L47,7.2h0.8a0.6,0.6,0,0,0,.1-0.5,0.8,0.8,0,0,0-.7-0.4,0.3,0.3,0,0,1,.1-0.5,1.3,1.3,0,0,1,1.1.8,1.1,1.1,0,0,1-.2,1.1l-0.4.3a2.1,2.1,0,0,1-.4,2.1H47.3a1.5,1.5,0,0,1-.6.7H46.5" transform="translate(-0.5 -0.5)"/><path id="Fill-123" class="cls-1" d="M44.3,13.3H44.2a1.1,1.1,0,0,1-.4-1.1,4.3,4.3,0,0,0-.1-0.7H42.9a0.7,0.7,0,0,1-.5-0.4,0.7,0.7,0,0,1,0-.5H42.3a0.4,0.4,0,0,1,0-.3h0a0.3,0.3,0,0,1,0-.2,0.4,0.4,0,0,1-.2-0.3,1.8,1.8,0,0,1,.5-1h0.1a0.4,0.4,0,0,1,0-.5l0.2-.3,0.2-.3a0.5,0.5,0,0,1,0-.3c0.1-.8,1.5-1.2,2.4-1.3a1,1,0,0,1,1.2.4,0.3,0.3,0,0,1-.5.2,3.5,3.5,0,0,0-1.8.3,1.1,1.1,0,0,0-.7.6,0.3,0.3,0,0,1,0,.4l-0.3.4-0.2.2a0.4,0.4,0,0,1-.1.5H43l-0.4.6a0.3,0.3,0,0,1,.3.3V9.9a0.3,0.3,0,0,1,0,.3h0v0.2h0a0.2,0.2,0,0,0-.1.2h1.1a1.6,1.6,0,0,1,.3,1.1,3.6,3.6,0,0,0,.1.7,0.3,0.3,0,0,1,.1.3l-0.3.2" transform="translate(-0.5 -0.5)"/><path id="Fill-124" class="cls-1" d="M43.8,11.4a0.3,0.3,0,1,1,0-.5l0.8-.2a0.3,0.3,0,1,1,.2.5,2.6,2.6,0,0,1-1,.3" transform="translate(-0.5 -0.5)"/><path id="Fill-125" class="cls-1" d="M44.8,13.1H44.5a0.6,0.6,0,0,1,.3-0.8h0.1a4.7,4.7,0,0,0,0-1.5c0-.3-0.1-0.5.1-0.6V9.8a0.3,0.3,0,1,1,.5,0h0.2a5.4,5.4,0,0,1,0,2.2,1.1,1.1,0,0,1-.5.6l-0.5.2m1.4-.2H46.1a0.3,0.3,0,0,1-.1-0.3,5.9,5.9,0,0,0,.3-2.1,0.3,0.3,0,0,1,.5,0,6.3,6.3,0,0,1-.4,2.3l-0.2.2" transform="translate(-0.5 -0.5)"/><path id="Fill-126" class="cls-1" d="M40,17.9H39.9a0.3,0.3,0,0,1-.1-0.4l0.3-.3,0.5-.4a0.3,0.3,0,1,1,.5.2,1.6,1.6,0,0,1-.7.7l-0.2.2H40" transform="translate(-0.5 -0.5)"/><path id="Fill-127" class="cls-1" d="M49.4,9.3H49.2L49.1,9H48.5a0.5,0.5,0,0,1,.1-0.6h0V7.9a0.8,0.8,0,0,1,.2-0.4l0.4,0.3h0.3l0.3,0.2h0.4a0.8,0.8,0,0,1-.2.4V8.8a0.6,0.6,0,0,1-.4.4H49.4ZM50,7.5l-0.5-.2,0.2-.5H49.1V6.4l0.2-.3h1.1V6.1l0.3,0.4H51V7.5l-0.3-.2L50.3,7,50,7.5h0Z" transform="translate(-0.5 -0.5)"/><path id="Fill-128" class="cls-1" d="M49.9,12.2H49.5a0.9,0.9,0,0,1-.6-0.4H48.6l-0.2.4-0.5-.2a0.9,0.9,0,0,0,0-.2H47.2V11.3H46.9l-0.2-.5a2.5,2.5,0,0,0,.5-1.2h0a1.4,1.4,0,0,1,1.4-1.3h0.8V8.9h0.1a1.1,1.1,0,0,1,.6.7,1.5,1.5,0,0,1-.1,1.2,2.6,2.6,0,0,0-.3,1.1v0.4h0Zm-1.6-1.3h0a2.3,2.3,0,0,1,.4-0.7,2.2,2.2,0,0,0,.4-0.7l-0.4.3-0.4.3a1.4,1.4,0,0,0,0,.7h0Zm0.5-2.1H48.7a0.9,0.9,0,0,0-.9,1h0.1a1.5,1.5,0,0,1,.6-0.6c0.4-.2.4-0.4,0.3-0.5h0Z" transform="translate(-0.5 -0.5)"/><path id="Fill-129" class="cls-1" d="M51,32.1h0a0.3,0.3,0,0,1-.2-0.3c0-.2.1-1,0.1-1.2s0-.3,0-0.5a9.8,9.8,0,0,0-.2-2.6,9.3,9.3,0,0,1-.2-2.3,6.8,6.8,0,0,0,0-.7,31.8,31.8,0,0,1,.1-5,7.3,7.3,0,0,0,0-2,11.7,11.7,0,0,1-.1-1.8,1.5,1.5,0,0,0-.2-0.8,2.5,2.5,0,0,1-.3-0.8,1.4,1.4,0,0,0-.4-0.9l-0.3-.5V12.7l-0.7-.3v0.2a0.6,0.6,0,0,1-.3.5H47.9a0.3,0.3,0,0,1-.3.2,0.3,0.3,0,0,1-.3-0.3,0.3,0.3,0,0,1,.2-0.2l0.3-.2h0.1V12.2a0.3,0.3,0,0,1-.1-0.2,0.3,0.3,0,0,1,.3-0.2h0.3a0.6,0.6,0,0,1,.5.1H49l0.4,0.2,0.4,0.2a1.5,1.5,0,0,1,.6,1.2h0v0.4a2.1,2.1,0,0,0,.2.6,2,2,0,0,1,.2,1,11.2,11.2,0,0,0,.1,1.8,7.6,7.6,0,0,1,0,2.1,31.9,31.9,0,0,0-.1,4.8,7.4,7.4,0,0,1,0,.7,8.8,8.8,0,0,0,.2,2.1,10.2,10.2,0,0,1,.2,2.8c0,0.2,0,.4,0,0.4s-0.1,1.2-.1,1.3a0.3,0.3,0,0,1-.3.2h0Zm-7.1-7.7h0l-0.2-.2H43.4a0.3,0.3,0,0,1,0-.4,1.5,1.5,0,0,0,0-.6h0a1.6,1.6,0,0,1,0-.3h0a0.3,0.3,0,1,1,.5,0v0.6a1.5,1.5,0,0,1,.1.9,0.3,0.3,0,0,1-.3.2h0Zm-1-5.1h0a0.3,0.3,0,0,1-.2-0.3V18.4a0.3,0.3,0,0,1,.3-0.2,0.3,0.3,0,0,1,.3.2v0.6a0.3,0.3,0,0,1-.2.3H42.8Zm-1.2-3H41.6a0.4,0.4,0,0,1-.4-0.2,1.2,1.2,0,0,1,.4-1,0.3,0.3,0,0,1,.4,0,0.3,0.3,0,0,1,0,.4l-0.2.2h0.5a0.5,0.5,0,0,1,.5-0.2h0a0.4,0.4,0,0,1,.3-0.1h1.1a0.4,0.4,0,0,1,.5-0.2,0.5,0.5,0,0,1,.5-0.1,0.5,0.5,0,0,1,.5-0.5,0.4,0.4,0,0,1,.4-0.3h0.2a0.3,0.3,0,0,1,.2.3,0.3,0.3,0,0,1-.4.3,0.4,0.4,0,0,1-.3.3H45.7a0.4,0.4,0,0,1-.2.3H45.1a0.5,0.5,0,0,1-.5.2,0.6,0.6,0,0,1-.5.2,0.8,0.8,0,0,1-.6.2H42.7a0.4,0.4,0,0,1-.4.1l-0.5.2H41.7Zm5.5-4.1h0a1.2,1.2,0,0,1-1-.6,0.3,0.3,0,1,1,.5-0.2l0.6,0.3a0.3,0.3,0,0,1,0,.5h0Z" transform="translate(-0.5 -0.5)"/><path id="Fill-130" class="cls-1" d="M40.1,32.6l-0.2-8.5a11.4,11.4,0,0,1,.4-4.2L40.8,20a11.2,11.2,0,0,0-.3,4l0.2,8.6H40.1" transform="translate(-0.5 -0.5)"/><path id="Fill-131" class="cls-1" d="M43.6,38.2V35.5l-0.8-2.7h0.5l0.8,2.8v2l6.6-3.3c0-.5,0-2.1,0-2.6h0.5c0,0.2,0,2.4,0,2.9H51.1c-0.2.1-6,3.1-7.1,3.6H43.6" transform="translate(-0.5 -0.5)"/><path id="Fill-132" class="cls-1" d="M23.7,18.2h8.4v0.5H23.7V18.2Z" transform="translate(-0.5 -0.5)"/><path id="Fill-133" class="cls-1" d="M27.8,41.4a10.6,10.6,0,0,1-4.1-1.3l0.3-.4a10.3,10.3,0,0,0,3.9,1.2,12.3,12.3,0,0,0,3.9-1.1L32,40.3a12.5,12.5,0,0,1-4.1,1.1" transform="translate(-0.5 -0.5)"/><path id="Fill-134" class="cls-1" d="M69,37.6h3.5v0.8H69V37.6Z" transform="translate(-0.5 -0.5)"/></g></g></svg>