<svg xmlns="http://www.w3.org/2000/svg" width="200" height="62" viewBox="0 0 200 62">
    <path fill="#FFF" fill-rule="evenodd" d="M11.058 46.844C4.612 52.054 1.414 59.194.41 62H0l.009-7.463c0-1.03 2.06-3.178 2.06-3.178C21.866 29.24 59.804 26.087 69.183 7.703c-.202-.662-.532-1.366-1.465-1.41-.845.958.116 2.048.58 2.426l-.809 1.175c-.12-.473-.851-1.59-1.678-1.511-.623.79.049 2.608.648 2.829-.105.149-.763.979-.941 1.104-.122-1.344-1.371-1.872-1.774-2.037-1.345 1.247-.252 3.143.62 3.21-.269.32-1.148 1.03-1.519 1.37-.314-1.707-.989-2.285-1.945-2.483-.782 1.027-.951 3.345.494 3.658-.5.363-1.475 1.07-2.089 1.47.138-.191.104-3.13-1.468-3.48-1.811 1.492-1.406 3.969-.562 4.722.029.023-1.249.677-1.687.957.055-.604.212-3.303-1.316-4.354-1.556 1.008-1.39 4.697-.883 5.502-.65.366-1.163.616-1.559.814.575-1.14-.109-4.566-1.699-5.265-1.332 1.582-1.967 5.544-1.088 6.526-.616.285-1.271.543-1.875.835.984-3.889-.113-5.942-1.144-6.681-2.6 2.178-2.214 6.69-1.659 7.875.027.047-1.601.649-1.63.692.214-.62 1.212-6.718-1.61-8.06-3.157 2.953-1.925 8.44-1.458 9.322-.745.279-1.185.503-1.948.81.802-5.371.322-8.612-1.431-9.736-2.288 1.917-3.28 6.791-1.144 10.815.018-.002-2.697 1.12-2.697 1.12.897-2.48 1.773-8.139-1.817-11.51-3.228 2.582-3.373 12.053-1.46 12.931-1.05.476-2.172 1.06-3.217 1.546 1.277-2.198 1.445-12.26-1.815-13.596-6.061 4.808-2.274 14.019-1.567 15.243-1.303.667-2.625 1.225-3.567 1.843 2.304-12.867-3.234-14.983-3.234-14.983-6.213 5.067-2.492 17.265-1.438 17.68-.873.54-3.129 2.047-3.16 2.053.82-1.49.261-15.527-4.653-15.441-5.177 6.218-1.009 16.881.232 18.637-.314.272-.776.618-1.179.923-.683-1.633-1.298-2.7-1.844-4.287-.739-2.224-1.103-4.23-1.05-4.48-.142-.81-.138-1.093-.177-1.455-.342-3.658.132-7.17 1.426-10.534C31.673 8.212 54.357 26.53 71.424.64c1.017 2.962 2.569 8.22-1.959 7.666-.131.253-.331.723-.402.784.231-.165 2.424-.396 3.132.287-.853 1.635-3.295 1.171-3.663.69l-.828 1.27c.007 0 2.027-.829 3.774.469-2.147 2.097-4.412.408-4.412.408-.39.512-.47.48-.761.894 1.44-.087 2.771.205 3.985 1.381-2.538 1.96-5.42.446-5.26.024-.412.463-.837.815-1.329 1.303 1.68-.45 3.305.443 4.408 2.121-3.657 2.025-5.751-.885-5.822-.92-.695.538-.956.771-1.848 1.43.04-.017 3.747-.366 5.2 2.466-4.516 1.24-6.461-.613-6.791-1.38.014-.005-.91.67-1.901 1.304 2.272.08 4.808 1.268 5.497 3.25-3.579.986-6.893-1.378-7.327-2.133-.435.255-1.088.607-1.638.942 1.166.232 4.155 1.01 5.533 4.299-6.51 1.232-8.108-2.15-8.561-2.677-.663.367-1.342.593-2.255 1.133 1.773.12 5.161 1.28 6.776 4.744-6.411.951-9.063-2.805-9.34-3.532-.688.358-1.397.755-2.054 1.047 1.155.216 4.377.337 6.729 6.025-4.866.267-10.008-4.009-9.66-4.625-.6.285-1.467.698-2.243 1.063 3.282.302 6.623 3.485 7.484 6.753-4.244 1.04-10.325-3.4-10.337-5.37-.212.09-.906.45-2.083 1.005.042.005 4.47.44 7.948 7.78-4.25.76-10.424-3.898-11.374-6.08-.312.154-1.333.752-1.998 1.107 1.398-.483 8.638 5.564 8.575 8.73-6.689.49-12.945-5.614-12.517-6.632-.815.388-1.596 1.006-2.381 1.408 1.868.07 9.1 4.586 10.851 9.925-6.581 2.183-15.092-5.698-14.525-7.587-.421.236-3.031 2.178-3.432 2.485 2.094.125 11.163 4.695 14.068 11.675-14.835 1.834-17.499-8.883-17.625-8.728zM86.867 4.071A3.572 3.572 0 0 0 83.21.602a3.563 3.563 0 0 0-3.48 3.647c.047 1.955 1.687 3.513 3.655 3.468a3.572 3.572 0 0 0 3.48-3.646zM83.196.124a4.046 4.046 0 0 1 4.15 3.934 4.043 4.043 0 0 1-3.95 4.134c-2.232.058-4.094-1.709-4.145-3.932A4.043 4.043 0 0 1 83.196.124zm-.417 3.215h-.806v2.475h-.528V3.339h-.788v-.48h2.122v.48zm2.954 2.475h-.54V3.886l-.626 1.238h-.49l-.63-1.238v1.928h-.532V2.859h.532l.87 1.68.876-1.68h.54v2.955zm106.282 31.449h2c.89 0 1.519-.266 2-.842.497-.612.576-1.594.576-3.714 0-2.163-.085-2.99-.577-3.593-.48-.575-1.11-.844-1.999-.844h-2v8.993zm2.257 2.558h-5.106V25.71h5.106c1.563 0 2.852.469 3.743 1.355 1.454 1.455 1.446 3.236 1.43 5.117v1.052c.005 1.943.024 3.777-1.43 5.234-.891.888-2.18 1.352-3.743 1.352zm-58.443 0h-9.337v-9.446c0-.945-.015-2.825.437-3.535.49-.755 1.11-1.128 2.328-1.128h6.572v2.558h-5.078c-.355 0-.741.076-1.025.36-.285.28-.381.847-.381 1.223v1.572h5.522v2.562h-5.522v3.276h6.484v2.558zM91.363 25.71v2.559h-6.482v3.279h5.521v2.557h-5.52v1.575c0 .375.091.94.374 1.226.284.282.668.356 1.03.356h5.077v2.558h-6.576c-1.217 0-1.838-.375-2.328-1.132-.454-.706-.433-2.584-.433-3.531v-9.446h9.337zm62.802 11.552h6.344v2.558h-9.199V27.535l.004-.005c.016-.89-.26-1.296-.92-1.688l-.034-.013c-.013-.014-.016-.034-.016-.053 0-.038.025-.064.06-.064h1.674c1.12 0 2.023.344 2.087 3.04v8.51zM79.12 39.82h-2.53l-5.448-8.438v8.438h-2.849V25.71h2.522l5.447 8.422V25.71h2.858v14.11zm104.262-7.79v-4.767c-.05-.735-.231-1.124-.817-1.42l-.03-.016c-.015-.008-.02-.034-.02-.05 0-.04.029-.064.059-.064h1.646c1.32-.05 1.993.939 2.017 2.95l.005 11.157h-2.534l-5.442-8.438v8.438h-2.85V25.71h2.528l5.438 8.422V32.03zm-17.309 2.895h3.304l-1.623-4.84-1.68 4.84zm3.233-7.834l4.65 12.729h-2.983l-.828-2.474h-4.88l-.844 2.474h-2.983l5.131-14.11 1.048.003c.807-.006 1.375.45 1.69 1.379zm-27.35 7.834h3.311l-1.625-4.84-1.686 4.84zm3.237-7.834l4.644 12.729h-2.978l-.828-2.474h-4.88l-.849 2.474h-2.977l5.137-14.11 1.046.003c.808-.006 1.37.45 1.685 1.379zm-46.808 7.262l2.5-8.646h2.139l2.506 8.646 2.136-8.646h2.976l-3.786 14.112h-2.37l-2.53-8.335-2.53 8.335h-2.373l-3.233-12.1c-.31-1.182-.66-1.566-1.454-1.88l-.03-.01a.072.072 0 0 1-.023-.055c0-.04.023-.067.057-.067h1.889c1.355.015 2.159.664 2.46 1.95l1.666 6.696zm25.02-4.941l-5.008 7.85h5.942v2.557h-9.32v-2.277l5.922-9.273h-5.664v-2.558h9.062v.77c-.035.878-.4 2.009-.933 2.93zm3.463 22.45h2.688l-1.32-3.932-1.368 3.931zm2.63-6.373l3.777 10.355h-2.424l-.67-2.012h-3.97l-.688 2.013h-2.424l4.175-11.477.85.002c.66-.005 1.118.368 1.373 1.12zm-22.194 10.303c-1.205 0-2.235-.42-3.06-1.244-1.119-1.12-1.118-2.477-1.118-4.357v-.307c0-1.88 0-3.237 1.118-4.356.836-.836 1.838-1.245 3.06-1.245 1.492 0 2.401.38 3.47 1.45l.036.034-1.552 1.552-.035-.036c-.642-.641-1.092-.945-1.919-.945-.553 0-1.039.206-1.365.58-.406.45-.524.915-.524 3.119 0 2.202.126 2.692.523 3.135.318.364.803.566 1.366.566.603 0 1.081-.202 1.461-.615.393-.426.475-1.048.475-1.495v-.344h-1.985v-1.926h4.275v1.656c0 1.709-.296 2.68-1.054 3.47-.835.867-1.9 1.308-3.172 1.308zm-23.38.051h-2.321v-6.468l-2.091 4.153h-1.564l-2.107-4.156v6.471h-2.322V44.368h2.27l2.942 6.087 2.924-6.087h2.269v11.476zm12.687 0h-2.32v-6.468l-2.09 4.153h-1.566l-2.107-4.156v6.471h-2.322V44.368h2.271l2.94 6.087 2.924-6.087h2.27v11.476zm55.02-9.638c-.563 0-1.074.214-1.4.589-.41.458-.531.928-.531 3.163s.12 2.706.53 3.162c.327.375.838.592 1.402.592.562 0 1.053-.212 1.385-.591.417-.464.547-.961.547-3.163s-.13-2.7-.547-3.161c-.332-.382-.823-.591-1.385-.591zm0 9.587c-1.25 0-2.27-.413-3.118-1.262-1.134-1.134-1.134-2.511-1.134-4.418v-.311c0-1.906 0-3.282 1.134-4.417.849-.848 1.869-1.26 3.119-1.26 1.24 0 2.254.412 3.104 1.26 1.148 1.149 1.148 2.554 1.148 4.495v.156c0 1.942 0 3.346-1.148 4.495-.85.849-1.864 1.262-3.104 1.262zm-13.81.051h-2.321V46.45h-2.972v-2.08h8.265v2.08h-2.972v9.395zm28.842 0h-2.058l-4.429-6.86v6.86h-2.32V44.368h2.057l4.429 6.849v-6.849h2.321v11.476zm-67.908-8.47V45.85c.012-.724-.209-1.056-.75-1.374l-.024-.012c-.01-.009-.015-.025-.015-.042 0-.03.022-.052.05-.052h1.361c.914 0 1.654.306 1.703 2.501l-.003 8.976h-2.32l-.002-8.472zm-29.54 0V45.85c.013-.724-.21-1.056-.75-1.374l-.024-.012c-.01-.009-.014-.025-.014-.042 0-.03.022-.052.049-.052h1.36c.917 0 1.656.306 1.704 2.501l-.003 8.976h-2.321l-.001-8.472zm73.668 0V45.85c.013-.724-.21-1.056-.75-1.374l-.023-.012c-.012-.009-.015-.025-.015-.042 0-.03.02-.052.048-.052h1.363c.914 0 1.655.306 1.703 2.501l-.004 8.976h-2.32l-.002-8.472zm-27.095 1.98h2.044c.935 0 1.564-.583 1.564-1.451 0-.868-.629-1.452-1.563-1.452h-2.044v2.904zm6.424 6.49h-2.686l-2.22-4.536h-1.517v4.537h-2.322V44.369h4.509c2.203 0 3.74 1.454 3.74 3.534 0 1.402-.767 2.525-2.056 3.015l2.552 4.927z"/>
</svg>
